{
.appVersion = "3149";
.formatVersion = 3;
DisplayStrings = (
"ʠ"
);
axes = (
{
name = Weight;
tag = wght;
}
);
classes = (
{
code = "zero
one
two
twostroke
three
four
five
Tonefive
six
seven
eight
nine
zero.slash
one.ss01
three.1
four.ss01
six.ss01
nine.ss01
zero.tf
one.tf
two.tf
three.tf
four.tf
five.tf
six.tf
seven.tf
eight.tf
nine.tf
zero.tf.slash
one.tf.ss01
three.1.tf
four.tf.ss01
six.tf.ss01
nine.tf.ss01
";
name = Numeral;
},
{
code = "space
nbspace
narrownbspace
mediumspace-math
enquad
emquad
enspace
emspace
thirdemspace
quarteremspace
sixthemspace
figurespace
punctuationspace
thinspace
hairspace
zerowidthspace
";
name = Whitespace;
},
{
automatic = 1;

glyphs = (
{
color = 6;
glyphname = A;
kernLeft = A;
kernRight = A;
lastChange = "2022-07-22 10:10:35 +0000";
layers = (
{
anchors = (
{
name = bottom;
pos = (552,0);
},
{
name = ogonek;
pos = (1192,0);
},
{
name = tonos;
pos = (600,1490);
},
{
name = top;
pos = (830,1676);
}
);
guides = (
{
angle = 90;
pos = (3200,1832);
}
);
layerId = "11F4534A-B963-4AB5-820F-DAF9A20CD933";
shapes = (
{
closed = 1;
nodes = (
(754,1254,l),
(766,1254,l),
(1002,0,l),
(1192,0,l),
(892,1490,l),
(706,1490,l),
(-88,0,l),
(100,0,l)
);
},
{
closed = 1;
nodes = (
(240,422,l),
(1002,422,l),
(1028,582,l),
(266,582,l)
);
}
);
width = 1290;
},
{
anchors = (
{
name = bottom;
pos = (698,0);
},
{
name = ogonek;
pos = (1466,0);
},
{
name = tonos;
pos = (590,1490);
},
{
name = top;
pos = (976,1676);
}
);
guides = (
{
pos = (1636,1896);
},
{
angle = 90;
pos = (1332,964);
}
);
layerId = "D0EC06BF-13F9-4C88-A6F5-B8203AF6C77E";
shapes = (
{
closed = 1;
nodes = (
(872,1080,l),
(884,1080,l),
(1030,0,l),
(1466,0,l),
(1222,1490,l),
(668,1490,l),
(-70,0,l),
(366,0,l)
);
},
{
closed = 1;
nodes = (
(330,286,l),
(1152,286,l),
(1204,588,l),
(384,588,l)
);
}
);
width = 1582;
},
{
anchors = (
{
name = bottom;
pos = (538,0);
},
{
name = ogonek;
pos = (1102,0);
},
{
name = tonos;
pos = (680,1490);
},
{
name = top;
pos = (818,1676);
}
);
layerId = "200BE2C5-40F6-4CF4-AF4F-A33C0CC0964F";
shapes = (
{
closed = 1;
nodes = (
(774,1432,l),
(780,1432,l),
(1054,0,l),
(1102,0,l),
(818,1490,l),
(754,1490,l),
(-26,0,l),
(24,0,l)
);
},
{
closed = 1;
nodes = (
(276,504,l),
(968,504,l),
(978,550,l),
(286,550,l)
);
}
);
width = 1262;
}
);
metricRight = "=|A";
unicode = 65;
userData = {
com.typemytype.robofont.guideline.magnetic.9EkLRXjahr = 5;
"interface.width-adjustments" = (
-16
);
};
},
{
color = 6;
glyphname = AE;
kernLeft = A;
kernRight = E;
lastChange = "2022-07-22 10:10:35 +0000";
layers = (
{
anchors = (
{
name = top;
pos = (1462,1676);
}
);
background = {
shapes = (
{
ref = A;
}
);
};
layerId = "11F4534A-B963-4AB5-820F-DAF9A20CD933";
shapes = (
{
closed = 1;
nodes = (
(110,0,l),
(956,1330,l),
(1064,1330,l),
(842,0,l),
(1752,0,l),
(1778,160,l),
(1048,160,l),
(1134,666,l),
(1806,666,l),
(1832,826,l),
(1160,826,l),
(1244,1330,l),
(1962,1330,l),
(1988,1490,l),
(880,1490,l),
(-88,0,l)
);
},
{
closed = 1;
nodes = (
(1006,422,l),
(1032,582,l),
(328,582,l),
(302,422,l)
);
}
);
width = 1930;
},
{
anchors = (
{
name = top;
pos = (1514,1676);
}
);
layerId = "D0EC06BF-13F9-4C88-A6F5-B8203AF6C77E";
shapes = (
{
closed = 1;
nodes = (
(374,0,l),
(948,1080,l),
(1050,1080,l),
(870,0,l),
(1940,0,l),
(1994,326,l),
(1328,326,l),
(1370,582,l),
(1984,582,l),
(2038,908,l),
(1424,908,l),
(1466,1164,l),
(2134,1164,l),
(2190,1490,l),
(758,1490,l),
(-70,0,l)
);
},
{
closed = 1;
nodes = (
(1154,286,l),
(1206,588,l),
(386,588,l),
(334,286,l)
);
}
);
width = 2116;
},
{
anchors = (
{
name = top;
pos = (1442,1676);
}
);
layerId = "200BE2C5-40F6-4CF4-AF4F-A33C0CC0964F";
shapes = (
{
closed = 1;
nodes = (
(30,0,l),
(1004,1442,l),
(1146,1442,l),
(908,0,l),
(1722,0,l),
(1730,46,l),
(962,46,l),
(1074,722,l),
(1778,722,l),
(1786,768,l),
(1082,768,l),
(1192,1442,l),
(1940,1442,l),
(1950,1490,l),
(980,1490,l),
(-26,0,l)
);
},
{
closed = 1;
nodes = (
(1018,504,l),
(1026,550,l),
(358,550,l),
(350,504,l)
);
}
);
width = 1964;
}
);
metricLeft = A;
metricRight = E;
unicode = 198;
userData = {
interface.gridadjust.original = "{'width': 2647, 'leftMargin': -30, 'rightMargin': 45}";
"interface.width-adjustments" = (
-16
);
};
},
{
color = 6;
glyphname = B;
kernLeft = B;
kernRight = B;
lastChange = "2022-07-22 10:10:35 +0000";
layers = (
{
anchors = (
{
name = bottom;
pos = (504,0);
},
{
name = top;
pos = (776,1676);
}
);
guides = (
{
angle = 90;
pos = (1328,1772);
},
{
angle = 90;
pos = (1800,1340);
}
);
layerId = "11F4534A-B963-4AB5-820F-DAF9A20CD933";
shapes = (
{
closed = 1;
nodes = (
(578,0,ls),
(929,0,o),
(1104,172,o),
(1142,396,cs),
(1180,631,o),
(1037,759,o),
(904,768,c),
(906,782,l),
(1037,817,o),
(1165,902,o),
(1198,1094,cs),
(1235,1312,o),
(1119,1489,o),
(808,1490,cs),
(286,1490,l),
(40,0,l)
);
},
{
closed = 1;
nodes = (
(334,678,l),
(700,678,ls),
(895,678,o),
(993,547,o),
(970,396,cs),
(947,265,o),
(839,160,o),
(604,160,cs),
(246,160,l)
);
},
{
closed = 1;
nodes = (
(440,1330,l),
(782,1330,ls),
(979,1329,o),
(1049,1225,o),
(1026,1094,cs),
(1002,937,o),
(857,835,o),
(694,834,cs),
(360,834,l)
);
}
);
width = 1236;
},
{
anchors = (
{
name = bottom;
pos = (546,0);
},
{
name = top;
pos = (828,1676);
}
);
guides = (
{
orientation = center;
angle = 90;
pos = (-672,716);
}
);
layerId = "D0EC06BF-13F9-4C88-A6F5-B8203AF6C77E";
shapes = (
{
closed = 1;
nodes = (
(680,0,ls),
(1003,0,o),
(1233,177,o),
(1274,422,cs),
(1308,631,o),
(1177,771,o),
(986,776,c),
(988,792,l),
(1166,826,o),
(1303,954,o),
(1332,1118,cs),
(1369,1344,o),
(1212,1489,o),
(872,1490,cs),
(226,1490,l),
(-22,0,l)
);
},
{
closed = 1;
nodes = (
(488,638,l),
(682,638,ls),
(808,637,o),
(872,579,o),
(854,474,cs),
(840,375,o),
(761,323,o),
(628,322,cs),
(438,322,l)
);
},
{
closed = 1;
nodes = (
(578,1172,l),
(750,1172,ls),
(849,1172,o),
(916,1123,o),
(902,1030,cs),
(887,940,o),
(802,887,o),
(698,888,cs),
(532,888,l)
);
}
);
width = 1320;
},
{
anchors = (
{
name = bottom;
pos = (544,0);
},
{
name = top;
pos = (806,1676);
}
);
layerId = "200BE2C5-40F6-4CF4-AF4F-A33C0CC0964F";
shapes = (
{
closed = 1;
nodes = (
(654,0,ls),
(911,0,o),
(1088,151,o),
(1126,382,cs),
(1161,588,o),
(1062,739,o),
(902,754,c),
(902,760,l),
(1053,797,o),
(1158,937,o),
(1186,1112,cs),
(1228,1347,o),
(1103,1489,o),
(852,1490,cs),
(386,1490,l),
(140,0,l)
);
},
{
closed = 1;
nodes = (
(308,734,l),
(776,734,ls),
(986,733,o),
(1114,588,o),
(1080,382,cs),
(1044,180,o),
(881,47,o),
(664,46,cs),
(194,46,l)
);
},
{
closed = 1;
nodes = (
(424,1442,l),
(844,1442,ls),
(1062,1443,o),
(1175,1324,o),
(1140,1112,cs),
(1111,934,o),
(986,780,o),
(786,780,cs),
(318,780,l)
);
}
);
width = 1312;
}
);
metricLeft = H;
unicode = 66;
userData = {
com.typemytype.robofont.guideline.magnetic.olHMUUD5VH = 5;
com.typemytype.robofont.guideline.magnetic.rWKPWS6RQH = 5;
"interface.width-adjustments" = (
-16
);
};
},
{
color = 3;
glyphname = Bhook;
kernLeft = B;
kernRight = B;
lastChange = "2022-07-22 10:10:35 +0000";
layers = (
{
layerId = "11F4534A-B963-4AB5-820F-DAF9A20CD933";
shapes = (
{
closed = 1;
nodes = (
(647,1490,l),
(501,1490,ls),
(310,1489,o),
(179,1356,o),
(155,1192,cs),
(141,1094,l),
(309,1094,l),
(317,1150,ls),
(332,1242,o),
(362,1329,o),
(477,1330,cs),
(621,1330,l)
);
},
{
pos = (311,0);
ref = B;
}
);
width = 1547;
},
{
layerId = "D0EC06BF-13F9-4C88-A6F5-B8203AF6C77E";
shapes = (
{
closed = 1;
nodes = (
(961,1490,l),
(697,1490,ls),
(383,1489,o),
(156,1329,o),
(111,1048,cs),
(83,870,l),
(437,870,l),
(455,978,ls),
(467,1065,o),
(520,1167,o),
(645,1166,cs),
(909,1166,l,{
name = hr00;
})
);
},
{
pos = (493,0);
ref = B;
}
);
width = 1813;
},
{
layerId = "200BE2C5-40F6-4CF4-AF4F-A33C0CC0964F";
shapes = (
{
closed = 1;
nodes = (
(603,1490,l),
(471,1490,ls),
(332,1489,o),
(264,1407,o),
(243,1280,cs),
(235,1228,l),
(281,1228,l),
(285,1254,ls),
(306,1378,o),
(349,1443,o),
(465,1442,cs),
(593,1442,l,{
name = hr00;
})
);
},
{
alignment = -1;
pos = (197,0);
ref = B;
}
);
width = 1509;
}
);
metricLeft = T;
metricRight = B;
unicode = 385;
userData = {
interface.gridadjust.original = "{'width': 2046.0, 'leftMargin': 41, 'rightMargin': 100.0}";
"interface.width-adjustments" = (
-16
);
};
},
{
color = 6;
glyphname = Btopbar;
lastChange = "2022-07-22 10:10:35 +0000";
layers = (
{
guides = (
{
angle = 90;
pos = (400,1684);
}
);
layerId = "11F4534A-B963-4AB5-820F-DAF9A20CD933";
shapes = (
{
closed = 1;
nodes = (
(598,0,ls),
(919,0,o),
(1123,180,o),
(1166,440,cs),
(1209,698,o),
(1062,864,o),
(740,864,cs),
(362,864,l),
(440,1330,l),
(1160,1330,l),
(1186,1490,l),
(286,1490,l),
(40,0,l)
);
},
{
closed = 1;
nodes = (
(336,704,l),
(714,704,ls),
(919,704,o),
(1012,585,o),
(988,442,cs),
(964,297,o),
(828,157,o),
(624,158,cs),
(246,158,l)
);
}
);
width = 1245;
},
{
layerId = "D0EC06BF-13F9-4C88-A6F5-B8203AF6C77E";
shapes = (
{
closed = 1;
nodes = (
(534,0,ls),
(911,0,o),
(1194,204,o),
(1244,500,cs),
(1292,797,o),
(1074,989,o),
(700,990,cs),
(550,990,l),
(576,1164,l),
(1218,1164,l),
(1274,1490,l),
(226,1490,l),
(-22,0,l)
);
},
{
closed = 1;
nodes = (
(496,680,l),
(648,680,ls),
(793,681,o),
(860,605,o),
(842,504,cs),
(825,396,o),
(733,317,o),
(586,318,cs),
(436,318,l)
);
}
);
width = 1292;
},
{
layerId = "200BE2C5-40F6-4CF4-AF4F-A33C0CC0964F";
shapes = (
{
closed = 1;
nodes = (
(698,0,ls),
(964,0,o),
(1139,146,o),
(1180,396,cs),
(1217,623,o),
(1071,777,o),
(828,776,cs),
(316,776,l),
(424,1442,l),
(1186,1442,l),
(1196,1490,l),
(386,1490,l),
(140,0,l)
);
},
{
closed = 1;
nodes = (
(306,730,l),
(818,730,ls),
(1044,730,o),
(1167,602,o),
(1134,398,cs),
(1096,180,o),
(939,47,o),
(706,46,cs),
(194,46,l)
);
}
);
width = 1336;
}
);
metricLeft = B;
metricRight = b;
tags = (
"TODO-opsz"
);
unicode = 386;
userData = {
com.typemytype.robofont.guideline.magnetic.8OVvpe1adm = 5;
interface.gridadjust.original = "{'width': 1777, 'leftMargin': 171, 'rightMargin': 158}";
"interface.width-adjustments" = (
-16
);
};
},
{
color = 6;
glyphname = C;
kernLeft = C;
kernRight = C;
lastChange = "2022-07-22 10:10:35 +0000";
layers = (
{
anchors = (
{
name = cedilla;
pos = (649,-12);
},
{
name = top;
pos = (921,1676);
}
);
guides = (
{
angle = 90;
pos = (1517,1432);
},
{
angle = -99.4;
pos = (969,692);
}
);
layerId = "11F4534A-B963-4AB5-820F-DAF9A20CD933";
shapes = (
{
closed = 1;
nodes = (
(942,-20,o),
(1210,160,o),
(1317,466,c),
(1137,466,l),
(1058,259,o),
(858,148,o),
(655,148,cs),
(389,148,o),
(215,352,o),
(279,734,c),
(343,1126,o),
(596,1341,o),
(873,1342,cs),
(1064,1341,o),
(1221,1231,o),
(1231,1024,c),
(1407,1024,l),
(1402,1329,o),
(1184,1510,o),
(881,1510,cs),
(503,1510,o),
(186,1222,o),
(107,756,c),
(29,279,o),
(261,-20,o),
(649,-20,cs)
);
}
);
width = 1395;
},
{
anchors = (
{
name = bottom_dd;
pos = (1250,-408);
},
{
name = cedilla;
pos = (686,-12);
},
{
name = top;
pos = (966,1676);
},
{
name = top0315;
pos = (1588,1632);
},
{
name = top_dd;
pos = (1582,1600);
}
);
associatedMasterId = "11F4534A-B963-4AB5-820F-DAF9A20CD933";
guides = (
{
angle = 90;
pos = (1392,1432);
}
);
layerId = "773773F7-3DB5-4147-B766-F86286931301";
name = "Sep 11 18, 23:27";
shapes = (
{
closed = 1;
nodes = (
(1452,1329,o),
(1236,1510,o),
(936,1510,cs),
(556,1510,o),
(230,1216,o),
(154,744,c),
(76,273,o),
(303,-20,o),
(684,-20,cs),
(983,-20,o),
(1257,160,o),
(1364,466,c),
(1184,466,l),
(1105,259,o),
(911,148,o),
(712,148,cs),
(442,148,o),
(265,358,o),
(328,744,c),
(393,1132,o),
(640,1341,o),
(910,1342,cs),
(1108,1341,o),
(1265,1231,o),
(1274,1024,c),
(1454,1024,l)
);
}
);
width = 1490;
},
{
anchors = (
{
name = cedilla;
pos = (681,6);
},
{
name = top;
pos = (969,1676);
}
);
background = {
shapes = (
{
pos = (11,0);
ref = O;
}
);
};
guides = (
{
pos = (1575,1024);
},
{
pos = (-1439,0);
},
{
angle = -99.4;
pos = (887,584);
}
);
layerId = "D0EC06BF-13F9-4C88-A6F5-B8203AF6C77E";
shapes = (
{
closed = 1;
nodes = (
(1136,-20,o),
(1395,285,o),
(1457,538,c),
(1049,538,l),
(1008,413,o),
(895,332,o),
(733,332,cs),
(549,332,o),
(467,460,o),
(509,722,c),
(555,992,o),
(703,1158,o),
(917,1158,cs),
(1064,1158,o),
(1128,1068,o),
(1117,930,c),
(1521,930,l),
(1550,1300,o),
(1308,1510,o),
(919,1510,cs),
(531,1510,o),
(182,1257,o),
(101,768,c),
(19,262,o),
(290,-20,o),
(709,-20,cs)
);
}
);
width = 1525;
},
{
anchors = (
{
name = bottom_dd;
pos = (1314,-408);
},
{
name = cedilla;
pos = (680,6);
},
{
name = top;
pos = (940,1586);
},
{
name = top0315;
pos = (1646,1588);
},
{
name = top_dd;
pos = (1646,1600);
}
);
associatedMasterId = "D0EC06BF-13F9-4C88-A6F5-B8203AF6C77E";
background = {
shapes = (
{
ref = O;
}
);
};
guides = (
{
pos = (1232,1024);
},
{
pos = (-256,0);
}
);
layerId = "06889DA9-D1FD-4E3E-9B69-96C5F07B1474";
name = "Sep 14 18, 09:35";
shapes = (
{
closed = 1;
nodes = (
(1539,1295,o),
(1283,1510,o),
(936,1510,cs),
(547,1510,o),
(192,1233,o),
(114,744,c),
(32,256,o),
(279,-20,o),
(696,-20,cs),
(1129,-20,o),
(1376,282,o),
(1438,536,c),
(1026,538,l),
(989,413,o),
(879,337,o),
(748,338,cs),
(564,337,o),
(480,489,o),
(524,744,c),
(564,1004,o),
(704,1155,o),
(884,1154,cs),
(1012,1155,o),
(1100,1079,o),
(1090,930,c),
(1502,930,l)
);
}
);
width = 1522;
},
{
anchors = (
{
name = cedilla;
pos = (671,0);
},
{
name = top;
pos = (949,1676);
}
);
layerId = "200BE2C5-40F6-4CF4-AF4F-A33C0CC0964F";
shapes = (
{
closed = 1;
nodes = (
(1018,-20,o),
(1247,256,o),
(1319,466,c),
(1269,466,l),
(1199,265,o),
(979,26,o),
(675,26,cs),
(370,26,o),
(146,276,o),
(225,744,cs),
(301,1207,o),
(608,1463,o),
(911,1464,cs),
(1217,1463,o),
(1357,1222,o),
(1359,1024,c),
(1409,1024,l),
(1409,1236,o),
(1272,1510,o),
(921,1510,cs),
(554,1510,o),
(253,1201,o),
(179,744,cs),
(101,288,o),
(301,-20,o),
(667,-20,cs)
);
}
);
width = 1481;
}
);
metricLeft = O;
unicode = 67;
userData = {
com.typemytype.robofont.guideline.magnetic.ju3ppiFr9V = 5;
"interface.width-adjustments" = (
-16
);
};
},
{
color = 3;
glyphname = Chook;
kernLeft = C;
kernRight = C;
lastChange = "2022-07-22 10:10:35 +0000";
layers = (
{
layerId = "11F4534A-B963-4AB5-820F-DAF9A20CD933";
shapes = (
{
closed = 1;
nodes = (
(1438,1210,ls),
(1458,1327,o),
(1533,1361,o),
(1624,1362,cs),
(1647,1361,o),
(1666,1359,o),
(1680,1356,c),
(1704,1502,l),
(1679,1510,o),
(1641,1510,o),
(1608,1510,cs),
(1444,1510,o),
(1300,1402,o),
(1266,1210,cs),
(1234,1024,l),
(1406,1024,l)
);
},
{
ref = C;
}
);
width = 1484;
},
{
guides = (
{
angle = 90;
pos = (-1872,0);
}
);
layerId = "D0EC06BF-13F9-4C88-A6F5-B8203AF6C77E";
shapes = (
{
closed = 1;
nodes = (
(1532,1016,ls),
(1554,1173,o),
(1702,1225,o),
(1794,1224,c),
(1821,1225,o),
(1876,1222,o),
(1904,1222,c),
(1958,1542,l),
(1891,1551,o),
(1841,1551,o),
(1780,1550,cs),
(1492,1551,o),
(1201,1388,o),
(1154,1082,cs),
(1130,930,l),
(1520,930,l,{
name = hr00;
})
);
},
{
ref = C;
}
);
width = 1752;
},
{
layerId = "200BE2C5-40F6-4CF4-AF4F-A33C0CC0964F";
shapes = (
{
closed = 1;
nodes = (
(1452,1286,ls),
(1471,1400,o),
(1520,1440,o),
(1586,1440,cs),
(1598,1440,o),
(1615,1439,o),
(1634,1436,c),
(1640,1482,l),
(1624,1485,o),
(1607,1487,o),
(1592,1486,cs),
(1491,1487,o),
(1428,1425,o),
(1406,1288,cs),
(1362,1024,l),
(1408,1024,l,{
name = hr00;
})
);
},
{
alignment = -1;
ref = C;
}
);
width = 1444;
}
);
metricLeft = C;
unicode = 391;
userData = {
interface.gridadjust.original = "{'width': 1998, 'leftMargin': 256, 'rightMargin': -44}";
};
},
{
color = 6;
glyphname = D;
kernLeft = B;
kernRight = D;
lastChange = "2022-07-22 10:10:35 +0000";
layers = (
{
anchors = (
{
name = bottom;
pos = (388,0);
},
{
name = cross;
pos = (292,768);
},
{
name = top;
pos = (942,1676);
}
);
layerId = "11F4534A-B963-4AB5-820F-DAF9A20CD933";
shapes = (
{
closed = 1;
nodes = (
(959,0,o),
(1255,276,o),
(1330,736,cs),
(1409,1204,o),
(1194,1489,o),
(760,1490,cs),
(380,1490,l),
(354,1330,l),
(734,1330,ls),
(1084,1329,o),
(1220,1114,o),
(1160,760,cs),
(1098,390,o),
(880,160,o),
(510,160,cs),
(168,160,l),
(142,0,l),
(504,0,ls)
);
},
{
closed = 1;
nodes = (
(286,1490,l),
(40,0,l),
(220,0,l),
(466,1490,l)
);
}
);
width = 1375;
},
{
anchors = (
{
name = bottom;
pos = (530,0);
},
{
name = bottom_dd;
pos = (1190,-408);
},
{
name = cross;
pos = (306,768);
},
{
name = top;
pos = (802,1676);
},
{
name = top0315;
pos = (1524,1612);
},
{
name = top_dd;
pos = (1522,1600);
}
);
associatedMasterId = "11F4534A-B963-4AB5-820F-DAF9A20CD933";
layerId = "43B3EEE0-AAB0-4149-B835-61E9C8667B70";
name = "Sep 11 18, 23:23";
shapes = (
{
closed = 1;
nodes = (
(1001,0,o),
(1303,282,o),
(1382,748,c),
(1457,1210,o),
(1248,1489,o),
(814,1490,c),
(428,1490,l),
(402,1330,l),
(776,1330,l),
(1126,1329,o),
(1265,1108,o),
(1208,748,c),
(1146,384,o),
(931,160,o),
(562,160,c),
(216,160,l),
(190,0,l),
(546,0,l)
);
},
{
closed = 1;
nodes = (
(334,1490,l),
(88,0,l),
(268,0,l),
(514,1490,l)
);
}
);
width = 1472;
},
{
anchors = (
{
name = bottom;
pos = (558,0);
},
{
name = cross;
pos = (310,788);
},
{
name = top;
pos = (756,1676);
}
);
guides = (
{
pos = (2128,1024);
},
{
pos = (-40,764);
},
{
pos = (740,1548);
},
{
pos = (2756,1696);
},
{
pos = (1420,348);
},
{
pos = (2076,1480);
},
{
pos = (1228,560);
}
);
layerId = "D0EC06BF-13F9-4C88-A6F5-B8203AF6C77E";
shapes = (
{
closed = 1;
nodes = (
(1015,0,o),
(1337,268,o),
(1414,724,c),
(1492,1199,o),
(1244,1489,o),
(784,1490,c),
(386,1490,l),
(328,1146,l),
(724,1146,l),
(956,1146,o),
(1064,1068,o),
(1014,766,c),
(962,445,o),
(808,343,o),
(586,344,c),
(202,344,l),
(144,0,l),
(560,0,l)
);
},
{
closed = 1;
nodes = (
(226,1490,l),
(-22,0,l),
(384,0,l),
(630,1490,l)
);
}
);
width = 1453;
},
{
anchors = (
{
name = bottom;
pos = (574,0);
},
{
name = bottom_dd;
pos = (1326,-408);
},
{
name = cross;
pos = (326,788);
},
{
name = top;
pos = (754,1586);
},
{
name = top0315;
pos = (1658,1594);
},
{
name = top_dd;
pos = (1658,1600);
}
);
associatedMasterId = "D0EC06BF-13F9-4C88-A6F5-B8203AF6C77E";
guides = (
{
pos = (1992,1024);
},
{
pos = (0,764);
},
{
pos = (260,1548);
},
{
pos = (2180,1696);
},
{
pos = (1732,348);
},
{
pos = (1644,1480);
},
{
pos = (1404,560);
}
);
layerId = "E3EE1E77-C165-47A6-B00B-72F4081D370D";
name = "Sep 14 18, 09:46";
shapes = (
{
closed = 1;
nodes = (
(1021,0,o),
(1356,279,o),
(1434,744,c),
(1510,1210,o),
(1268,1489,o),
(808,1490,c),
(402,1490,l),
(344,1146,l),
(730,1146,l),
(963,1146,o),
(1076,1056,o),
(1026,744,c),
(975,433,o),
(832,343,o),
(610,344,c),
(218,344,l),
(160,0,l),
(568,0,l)
);
},
{
closed = 1;
nodes = (
(242,1490,l),
(-6,0,l),
(398,0,l),
(646,1490,l)
);
}
);
width = 1484;
},
{
anchors = (
{
name = bottom;
pos = (498,0);
},
{
name = cross;
pos = (288,756);
},
{
name = top;
pos = (818,1676);
}
);
layerId = "200BE2C5-40F6-4CF4-AF4F-A33C0CC0964F";
shapes = (
{
closed = 1;
nodes = (
(966,0,o),
(1265,276,o),
(1346,750,cs),
(1425,1213,o),
(1225,1489,o),
(814,1490,cs),
(410,1490,l),
(402,1442,l),
(806,1442,ls),
(1201,1443,o),
(1372,1193,o),
(1300,750,cs),
(1231,317,o),
(943,47,o),
(538,46,cs),
(172,46,l),
(162,0,l),
(530,0,ls)
);
},
{
closed = 1;
nodes = (
(386,1490,l),
(140,0,l),
(186,0,l),
(434,1490,l)
);
}
);
width = 1462;
}
);
metricLeft = H;
metricRight = O;
note = "!post:RemoveOverlap";
unicode = 68;
userData = {
"interface.width-adjustments" = (
-16
);
};
},
{
color = 3;
glyphname = Dhook;
kernLeft = B;
kernRight = D;
lastChange = "2022-07-22 10:10:35 +0000";
layers = (
{
layerId = "11F4534A-B963-4AB5-820F-DAF9A20CD933";
shapes = (
{
closed = 1;
nodes = (
(309,1094,l),
(317,1150,ls),
(332,1242,o),
(361,1329,o),
(477,1330,cs),
(621,1330,l),
(647,1490,l),
(501,1490,ls),
(309,1489,o),
(178,1356,o),
(155,1192,cs),
(141,1094,l)
);
},
{
pos = (321,0);
ref = D;
}
);
width = 1696;
},
{
layerId = "D0EC06BF-13F9-4C88-A6F5-B8203AF6C77E";
shapes = (
{
closed = 1;
nodes = (
(437,870,l),
(455,978,ls),
(468,1065,o),
(514,1146,o),
(637,1146,cs),
(903,1146,l,{
name = hr00;
}),
(961,1490,l),
(695,1490,ls),
(384,1489,o),
(157,1329,o),
(111,1048,cs),
(81,870,l)
);
},
{
pos = (495,0);
ref = D;
}
);
width = 1948;
},
{
layerId = "200BE2C5-40F6-4CF4-AF4F-A33C0CC0964F";
shapes = (
{
closed = 1;
nodes = (
(281,1228,l),
(285,1254,ls),
(305,1378,o),
(349,1443,o),
(465,1442,cs),
(607,1442,l,{
name = hr00;
}),
(619,1490,l),
(471,1490,ls),
(331,1489,o),
(264,1407,o),
(243,1280,cs),
(235,1228,l)
);
},
{
alignment = -1;
pos = (215,0);
ref = D;
}
);
width = 1677;
}
);
metricLeft = T;
metricRight = D;
unicode = 394;
userData = {
interface.gridadjust.original = "{'width': 2134.0, 'leftMargin': 41, 'rightMargin': 184.0}";
};
},
{
color = 6;
glyphname = Dtopbar;
lastChange = "2022-07-22 10:10:35 +0000";
layers = (
{
layerId = "11F4534A-B963-4AB5-820F-DAF9A20CD933";
shapes = (
{
closed = 1;
nodes = (
(1272,1458,l),
(376,1458,l),
(350,1288,l),
(1040,1288,l),
(970,870,l),
(622,870,ls),
(301,870,o),
(95,698,o),
(50,440,cs),
(7,180,o),
(156,0,o),
(476,0,cs),
(1032,0,l)
);
},
{
closed = 1;
nodes = (
(504,166,ls),
(298,166,o),
(237,297,o),
(260,442,cs),
(284,585,o),
(385,701,o),
(592,702,cs),
(942,702,l),
(854,166,l)
);
}
);
width = 1196;
},
{
layerId = "D0EC06BF-13F9-4C88-A6F5-B8203AF6C77E";
shapes = (
{
closed = 1;
nodes = (
(1440,1502,l),
(392,1502,l),
(340,1184,l),
(998,1184,l),
(966,990,l),
(800,990,ls),
(424,989,o),
(139,794,o),
(92,500,cs),
(43,207,o),
(258,0,o),
(634,0,cs),
(1190,0,l)
);
},
{
closed = 1;
nodes = (
(686,312,ls),
(537,311,o),
(465,396,o),
(482,504,cs),
(500,605,o),
(599,681,o),
(746,680,cs),
(912,680,l),
(852,312,l)
);
}
);
width = 1380;
},
{
layerId = "200BE2C5-40F6-4CF4-AF4F-A33C0CC0964F";
shapes = (
{
closed = 1;
nodes = (
(1248,1490,l),
(440,1490,l),
(430,1442,l),
(1192,1442,l),
(1084,776,l),
(572,776,ls),
(313,777,o),
(132,636,o),
(94,404,cs),
(53,164,o),
(195,0,o),
(442,0,cs),
(1000,0,l)
);
},
{
closed = 1;
nodes = (
(450,46,ls),
(217,47,o),
(104,180,o),
(142,408,cs),
(173,602,o),
(340,730,o),
(562,730,cs),
(1074,730,l),
(962,46,l)
);
}
);
width = 1210;
}
);
tags = (
"TODO-opsz"
);
unicode = 395;
userData = {
interface.gridadjust.original = "{'width': 1777, 'leftMargin': 109, 'rightMargin': 219}";
"interface.width-adjustments" = (
-16
);
};
},
{
color = 6;
glyphname = E;
kernLeft = B;
kernRight = E;
lastChange = "2022-07-22 10:10:35 +0000";
layers = (
{
anchors = (
{
name = bottom;
pos = (472,0);
},
{
name = cedilla;
pos = (476,0);
},
{
name = ogonek;
pos = (950,0);
},
{
name = tonos;
pos = (240,1490);
},
{
name = top;
pos = (766,1676);
}
);
guides = (
{
orientation = center;
angle = 90;
pos = (-436,516);
}
);
layerId = "11F4534A-B963-4AB5-820F-DAF9A20CD933";
shapes = (
{
closed = 1;
nodes = (
(950,0,l),
(976,160,l),
(246,160,l),
(330,666,l),
(1002,666,l),
(1028,826,l),
(356,826,l),
(440,1330,l),
(1160,1330,l),
(1186,1490,l),
(286,1490,l),
(40,0,l)
);
}
);
width = 1128;
},
{
anchors = (
{
name = bottom;
pos = (520,0);
},
{
name = cedilla;
pos = (522,0);
},
{
name = ogonek;
pos = (1050,0);
},
{
name = tonos;
pos = (186,1490);
},
{
name = top;
pos = (800,1676);
}
);
guides = (
{
pos = (260,1360);
},
{
orientation = center;
angle = 90;
pos = (-434,620);
}
);
layerId = "D0EC06BF-13F9-4C88-A6F5-B8203AF6C77E";
shapes = (
{
closed = 1;
nodes = (
(1050,0,l),
(1104,326,l),
(438,326,l),
(480,582,l),
(1094,582,l),
(1148,908,l),
(534,908,l),
(576,1164,l),
(1244,1164,l),
(1300,1490,l),
(226,1490,l),
(-22,0,l)
);
}
);
width = 1226;
},
{
anchors = (
{
name = bottom;
pos = (506,0);
},
{
name = cedilla;
pos = (510,0);
},
{
name = ogonek;
pos = (954,0);
},
{
name = tonos;
pos = (334,1490);
},
{
name = top;
pos = (818,1676);
}
);
layerId = "200BE2C5-40F6-4CF4-AF4F-A33C0CC0964F";
shapes = (
{
closed = 1;
nodes = (
(954,0,l),
(962,46,l),
(194,46,l),
(306,722,l),
(1010,722,l),
(1018,768,l),
(314,768,l),
(424,1442,l),
(1172,1442,l),
(1182,1490,l),
(386,1490,l),
(140,0,l)
);
}
);
width = 1196;
}
);
metricLeft = H;
unicode = 69;
userData = {
"interface.width-adjustments" = (
-16
);
};
},
{
color = 6;
glyphname = Epsilon1;
lastChange = "2022-07-22 10:10:35 +0000";
layers = (
{
background = {
shapes = (
{
closed = 1;
nodes = (
(852,826,l),
(690,826,ls),
(474,826,o),
(410,925,o),
(434,1064,cs),
(457,1201,o),
(567,1309,o),
(786,1310,cs),
(951,1309,o),
(1053,1213,o),
(1030,1076,c),
(1236,1076,l),
(1280,1324,o),
(1079,1478,o),
(812,1478,cs),
(500,1478,o),
(271,1332,o),
(226,1062,cs),
(189,832,o),
(372,698,o),
(664,698,c),
(832,698,l)
);
},
{
closed = 1;
nodes = (
(352,785,o),
(134,652,o),
(94,408,cs),
(44,102,o),
(259,-20,o),
(564,-20,cs),
(815,-20,o),
(1097,108,o),
(1146,404,c),
(940,404,l),
(916,262,o),
(780,145,o),
(590,146,cs),
(387,145,o),
(273,230,o),
(302,404,cs),
(332,582,o),
(454,660,o),
(664,660,cs),
(826,660,l),
(846,786,l),
(678,786,l)
);
}
);
};
layerId = "11F4534A-B963-4AB5-820F-DAF9A20CD933";
shapes = (
{
closed = 1;
nodes = (
(806,840,l),
(642,840,ls),
(428,841,o),
(367,964,o),
(388,1094,cs),
(413,1241,o),
(532,1341,o),
(730,1342,cs),
(916,1341,o),
(1009,1245,o),
(986,1108,c),
(1192,1108,l),
(1234,1356,o),
(1052,1510,o),
(758,1510,cs),
(473,1510,o),
(225,1357,o),
(184,1102,cs),
(144,857,o),
(325,713,o),
(616,712,c),
(784,712,l)
);
},
{
closed = 1;
nodes = (
(305,800,o),
(87,666,o),
(42,396,cs),
(-7,102,o),
(221,-20,o),
(498,-20,cs),
(777,-20,o),
(1048,108,o),
(1096,404,c),
(890,404,l),
(867,262,o),
(742,145,o),
(524,146,cs),
(349,145,o),
(223,221,o),
(254,410,cs),
(284,588,o),
(406,675,o),
(616,674,cs),
(778,674,l),
(798,800,l),
(630,800,l)
);
}
);
width = 1196;
},
{
background = {
shapes = (
{
closed = 1;
nodes = (
(958,890,l),
(762,890,ls),
(647,890,o),
(589,934,o),
(608,1048,cs),
(621,1117,o),
(688,1164,o),
(820,1164,cs),
(927,1164,o),
(996,1140,o),
(980,1056,c),
(1370,1056,l),
(1415,1318,o),
(1180,1478,o),
(872,1478,cs),
(525,1478,o),
(263,1332,o),
(218,1062,cs),
(182,844,o),
(380,698,o),
(658,698,c),
(926,698,l,{
name = hr00;
})
);
},
{
closed = 1;
nodes = (
(351,785,o),
(127,652,o),
(84,408,cs),
(39,119,o),
(263,-20,o),
(626,-20,cs),
(912,-20,o),
(1238,108,o),
(1286,404,c),
(894,404,l),
(883,332,o),
(804,291,o),
(678,290,cs),
(557,291,o),
(467,323,o),
(480,422,cs),
(505,564,o),
(592,596,o),
(712,596,cs),
(908,596,l),
(940,786,l),
(672,786,l)
);
}
);
};
layerId = "D0EC06BF-13F9-4C88-A6F5-B8203AF6C77E";
shapes = (
{
closed = 1;
nodes = (
(936,904,l),
(742,904,ls),
(617,905,o),
(568,954,o),
(584,1050,cs),
(601,1151,o),
(668,1196,o),
(802,1196,cs),
(921,1196,o),
(975,1162,o),
(964,1088,c),
(1354,1088,l),
(1393,1332,o),
(1183,1510,o),
(856,1510,cs),
(485,1510,o),
(241,1349,o),
(196,1076,cs),
(161,865,o),
(346,713,o),
(636,712,c),
(904,712,l,{
name = hr00;
})
);
},
{
closed = 1;
nodes = (
(320,800,o),
(103,661,o),
(64,422,cs),
(16,139,o),
(211,-20,o),
(602,-20,cs),
(951,-20,o),
(1220,153,o),
(1264,404,c),
(870,404,l),
(857,332,o),
(779,291,o),
(640,290,cs),
(507,291,o),
(441,332,o),
(460,446,cs),
(478,553,o),
(548,611,o),
(694,610,cs),
(888,610,l),
(918,800,l),
(650,800,l)
);
}
);
width = 1378;
},
{
background = {
shapes = (
{
closed = 1;
nodes = (
(770,776,l),
(674,776,ls),
(409,777,o),
(257,908,o),
(290,1106,cs),
(320,1289,o),
(489,1431,o),
(744,1432,cs),
(965,1431,o),
(1076,1289,o),
(1074,1086,c),
(1120,1086,l),
(1127,1311,o),
(994,1478,o),
(736,1478,cs),
(467,1478,o),
(279,1320,o),
(244,1106,cs),
(217,940,o),
(301,802,o),
(520,752,c),
(768,752,l)
);
},
{
closed = 1;
nodes = (
(264,702,o),
(126,568,o),
(94,380,cs),
(59,164,o),
(217,-20,o),
(514,-20,cs),
(781,-20,o),
(982,143,o),
(1050,372,c),
(1004,372,l),
(942,175,o),
(756,26,o),
(508,26,cs),
(241,26,o),
(109,188,o),
(142,380,cs),
(174,581,o),
(390,730,o),
(668,730,cs),
(764,730,l),
(770,760,l),
(512,760,l)
);
}
);
};
layerId = "200BE2C5-40F6-4CF4-AF4F-A33C0CC0964F";
shapes = (
{
closed = 1;
nodes = (
(772,792,l),
(676,792,ls),
(411,791,o),
(260,929,o),
(294,1134,cs),
(325,1325,o),
(500,1463,o),
(738,1464,cs),
(976,1463,o),
(1081,1321,o),
(1076,1118,c),
(1122,1118,l),
(1132,1347,o),
(1009,1510,o),
(746,1510,cs),
(483,1510,o),
(284,1351,o),
(248,1134,cs),
(219,961,o),
(303,817,o),
(520,766,c),
(768,766,l)
);
},
{
closed = 1;
nodes = (
(275,719,o),
(125,569,o),
(94,380,cs),
(55,151,o),
(209,-20,o),
(494,-20,cs),
(777,-20,o),
(983,148,o),
(1050,372,c),
(1004,372,l),
(941,172,o),
(759,26,o),
(504,26,cs),
(241,26,o),
(108,181,o),
(140,380,cs),
(174,593,o),
(385,745,o),
(670,744,cs),
(766,744,l),
(770,776,l),
(512,776,l)
);
}
);
width = 1186;
}
);
tags = (
"TODO-opsz"
);
unicode = 400;
userData = {
interface.gridadjust.original = "{'width': 1671, 'leftMargin': 114, 'rightMargin': 108}";
"interface.width-adjustments" = (
-16
);
};
},
{
color = 6;
glyphname = Schwa;
lastChange = "2022-07-22 10:10:35 +0000";
layers = (
{
background = {
shapes = (
{
closed = 1;
nodes = (
(977,-20,o),
(1295,268,o),
(1364,684,cs),
(1378,768,ls),
(1449,1184,o),
(1260,1478,o),
(832,1478,cs),
(602,1478,o),
(457,1408,o),
(414,1382,c),
(436,1230,l),
(515,1263,o),
(634,1306,o),
(806,1306,cs),
(1129,1306,o),
(1219,1068,o),
(1170,768,cs),
(1154,684,ls),
(1105,387,o),
(925,148,o),
(672,148,cs),
(375,148,o),
(308,340,o),
(346,584,cs),
(352,616,l),
(1224,616,l),
(1250,774,l),
(172,774,l),
(152,648,ls),
(84,239,o),
(244,-20,o),
(642,-20,cs)
);
}
);
};
layerId = "11F4534A-B963-4AB5-820F-DAF9A20CD933";
shapes = (
{
closed = 1;
nodes = (
(957,-20,o),
(1251,281,o),
(1316,684,cs),
(1336,800,ls),
(1407,1237,o),
(1195,1510,o),
(790,1510,cs),
(637,1510,o),
(467,1470,o),
(370,1414,c),
(394,1262,l),
(520,1314,o),
(643,1338,o),
(750,1338,cs),
(1055,1338,o),
(1181,1141,o),
(1126,800,cs),
(1106,684,ls),
(1055,364,o),
(868,148,o),
(598,148,cs),
(372,148,o),
(260,297,o),
(300,584,cs),
(304,616,l),
(1176,616,l),
(1202,774,l),
(124,774,l),
(104,648,ls),
(34,223,o),
(227,-20,o),
(574,-20,cs)
);
}
);
width = 1382;
},
{
background = {
shapes = (
{
closed = 1;
nodes = (
(1103,-20,o),
(1435,244,o),
(1498,622,cs),
(1530,830,ls),
(1595,1207,o),
(1383,1478,o),
(890,1478,cs),
(676,1478,o),
(417,1431,o),
(370,1414,c),
(366,1080,l),
(455,1100,o),
(612,1126,o),
(806,1126,cs),
(1106,1126,o),
(1170,989,o),
(1140,830,cs),
(1108,622,ls),
(1080,460,o),
(969,329,o),
(780,328,cs),
(574,329,o),
(504,413,o),
(520,524,cs),
(526,552,l),
(1184,552,l),
(1236,876,l),
(190,876,l),
(158,678,ls),
(85,250,o),
(280,-20,o),
(722,-20,cs)
);
}
);
};
layerId = "D0EC06BF-13F9-4C88-A6F5-B8203AF6C77E";
shapes = (
{
closed = 1;
nodes = (
(1089,-20,o),
(1409,244,o),
(1472,622,cs),
(1510,862,ls),
(1573,1239,o),
(1363,1510,o),
(870,1510,cs),
(656,1510,o),
(396,1463,o),
(348,1446,c),
(346,1112,l),
(433,1132,o),
(612,1158,o),
(762,1158,cs),
(1107,1158,o),
(1147,1021,o),
(1120,862,cs),
(1082,622,ls),
(1055,460,o),
(952,329,o),
(736,328,cs),
(556,329,o),
(479,413,o),
(496,524,cs),
(500,552,l),
(1158,552,l),
(1210,876,l),
(164,876,l),
(130,678,ls),
(58,251,o),
(266,-20,o),
(678,-20,cs)
);
}
);
width = 1576;
},
{
layerId = "200BE2C5-40F6-4CF4-AF4F-A33C0CC0964F";
shapes = (
{
closed = 1;
nodes = (
(956,-20,o),
(1214,249,o),
(1290,694,cs),
(1298,744,l),
(1377,1216,o),
(1201,1510,o),
(842,1510,cs),
(688,1510,o),
(547,1463,o),
(438,1374,c),
(450,1332,l),
(557,1416,o),
(696,1463,o),
(834,1464,cs),
(1174,1463,o),
(1331,1191,o),
(1252,744,cs),
(1244,696,ls),
(1170,279,o),
(932,26,o),
(614,26,cs),
(296,26,o),
(136,275,o),
(202,670,cs),
(204,678,l),
(1260,678,l),
(1270,724,l),
(164,724,l),
(160,702,ls),
(79,272,o),
(260,-20,o),
(606,-20,cs)
);
}
);
width = 1390;
}
);
tags = (
"TODO-opsz"
);
unicode = 399;
userData = {
interface.gridadjust.original = "{'width': 1940, 'leftMargin': 120, 'rightMargin': 159}";
"interface.width-adjustments" = (
-16
);
};
},
{
color = 6;
glyphname = Ezh;
kernRight = B;
lastChange = "2022-07-22 10:10:35 +0000";
layers = (
{
anchors = (
{
name = top;
pos = (834,1676);
}
);
background = {
shapes = (
{
closed = 1;
nodes = (
(-14,-212,o),
(205,-419,o),
(522,-418,cs),
(879,-419,o),
(1159,-160,o),
(1216,194,cs),
(1275,547,o),
(1083,794,o),
(754,808,c),
(758,824,l),
(1374,1358,l),
(1394,1490,l),
(336,1490,l),
(310,1326,l),
(1118,1326,l),
(1116,1314,l),
(536,818,l),
(510,666,l),
(620,666,ls),
(911,666,o),
(1086,477,o),
(1040,194,cs),
(999,-64,o),
(807,-256,o),
(554,-256,cs),
(338,-256,o),
(181,-116,o),
(202,78,c),
(18,78,l)
);
}
);
};
layerId = "11F4534A-B963-4AB5-820F-DAF9A20CD933";
shapes = (
{
closed = 1;
nodes = (
(-66,-235,o),
(151,-441,o),
(470,-440,cs),
(826,-441,o),
(1108,-180,o),
(1168,180,cs),
(1226,531,o),
(1033,780,o),
(704,794,c),
(706,808,l),
(1324,1358,l),
(1346,1490,l),
(288,1490,l),
(260,1326,l),
(1068,1326,l),
(1068,1314,l),
(486,802,l),
(460,652,l),
(570,652,ls),
(862,652,o),
(1037,468,o),
(990,178,cs),
(948,-80,o),
(754,-278,o),
(502,-278,cs),
(287,-278,o),
(130,-139,o),
(150,64,c),
(-32,64,l)
);
}
);
width = 1298;
},
{
anchors = (
{
name = top;
pos = (868,1676);
}
);
background = {
shapes = (
{
closed = 1;
nodes = (
(-59,-166,o),
(190,-396,o),
(546,-396,cs),
(955,-396,o),
(1257,-91,o),
(1314,250,cs),
(1353,491,o),
(1275,780,o),
(912,820,c),
(916,834,l),
(1434,1198,l),
(1480,1490,l),
(290,1490,l),
(234,1158,l),
(938,1158,l),
(938,1146,l),
(528,862,l),
(484,582,l),
(680,582,ls),
(841,582,o),
(921,443,o),
(892,276,cs),
(869,132,o),
(768,-61,o),
(604,-62,cs),
(494,-61,o),
(380,26,o),
(398,166,c),
(-10,166,l)
);
}
);
};
layerId = "D0EC06BF-13F9-4C88-A6F5-B8203AF6C77E";
shapes = (
{
closed = 1;
nodes = (
(-90,-199,o),
(142,-442,o),
(514,-442,cs),
(896,-442,o),
(1221,-164,o),
(1284,222,cs),
(1336,534,o),
(1178,759,o),
(882,792,c),
(886,806,l),
(1408,1198,l),
(1456,1490,l),
(266,1490,l),
(210,1158,l),
(914,1158,l),
(914,1146,l),
(500,832,l),
(454,552,l),
(648,552,ls),
(803,553,o),
(892,425,o),
(858,214,cs),
(827,26,o),
(718,-108,o),
(562,-108,cs),
(430,-108,o),
(350,-9,o),
(368,136,c),
(-40,136,l)
);
}
);
width = 1363;
},
{
anchors = (
{
name = top;
pos = (895,1676);
}
);
background = {
shapes = (
{
closed = 1;
nodes = (
(-4,-212,o),
(214,-425,o),
(529,-424,cs),
(892,-425,o),
(1145,-140,o),
(1195,154,cs),
(1250,492,o),
(1020,751,o),
(621,768,c),
(621,774,l),
(1361,1452,l),
(1367,1490,l),
(357,1490,l),
(349,1442,l),
(1311,1442,l),
(1317,1470,l),
(551,768,l),
(543,722,l),
(613,722,ls),
(979,707,o),
(1200,471,o),
(1149,154,cs),
(1099,-151,o),
(837,-378,o),
(537,-378,cs),
(240,-378,o),
(48,-183,o),
(89,72,c),
(43,72,l)
);
}
);
};
layerId = "200BE2C5-40F6-4CF4-AF4F-A33C0CC0964F";
shapes = (
{
closed = 1;
nodes = (
(-7,-230,o),
(211,-442,o),
(525,-442,cs),
(889,-442,o),
(1142,-157,o),
(1195,154,cs),
(1251,492,o),
(1020,751,o),
(621,768,c),
(621,774,l),
(1361,1452,l),
(1367,1490,l),
(357,1490,l),
(349,1442,l),
(1311,1442,l),
(1317,1470,l),
(551,768,l),
(543,722,l),
(613,722,ls),
(979,707,o),
(1200,472,o),
(1149,154,cs),
(1096,-169,o),
(834,-396,o),
(523,-396,cs),
(238,-396,o),
(46,-201,o),
(89,72,c),
(43,72,l)
);
}
);
width = 1419;
}
);
metricLeft = T;
metricRight = B;
tags = (
"TODO-opsz"
);
unicode = 439;
userData = {
interface.gridadjust.original = "{'width': 1821, 'leftMargin': 110, 'rightMargin': 160}";
"interface.width-adjustments" = (
-16
);
};
},
{
color = 6;
glyphname = Ezhreversed;
lastChange = "2022-07-22 10:10:35 +0000";
layers = (
{
anchors = (
{
name = top;
pos = (832,1676);
}
);
layerId = "11F4534A-B963-4AB5-820F-DAF9A20CD933";
shapes = (
{
closed = 1;
nodes = (
(982,64,l),
(935,-139,o),
(733,-278,o),
(518,-278,cs),
(266,-278,o),
(138,-80,o),
(182,178,cs),
(229,468,o),
(465,652,o),
(758,652,cs),
(868,652,l),
(892,802,l),
(480,1314,l),
(480,1326,l),
(1290,1326,l),
(1318,1490,l),
(258,1490,l),
(236,1358,l),
(672,808,l),
(670,794,l),
(336,780,o),
(62,531,o),
(4,180,cs),
(-56,-180,o),
(139,-441,o),
(494,-440,cs),
(814,-441,o),
(1099,-235,o),
(1166,64,c)
);
}
);
width = 1298;
},
{
anchors = (
{
name = top;
pos = (865,1676);
}
);
layerId = "D0EC06BF-13F9-4C88-A6F5-B8203AF6C77E";
shapes = (
{
closed = 1;
nodes = (
(855,136,l),
(825,-9,o),
(711,-108,o),
(579,-108,cs),
(424,-108,o),
(360,26,o),
(391,214,cs),
(426,425,o),
(558,553,o),
(711,552,cs),
(905,552,l),
(953,832,l),
(645,1146,l),
(645,1158,l),
(1349,1158,l),
(1405,1490,l),
(215,1490,l),
(167,1198,l),
(559,806,l),
(555,792,l),
(251,759,o),
(19,534,o),
(-33,222,cs),
(-96,-164,o),
(135,-442,o),
(517,-442,cs),
(888,-442,o),
(1200,-199,o),
(1263,136,c)
);
}
);
width = 1363;
},
{
anchors = (
{
name = top;
pos = (894,1676);
}
);
layerId = "200BE2C5-40F6-4CF4-AF4F-A33C0CC0964F";
shapes = (
{
closed = 1;
nodes = (
(1168,72,l),
(1122,-199,o),
(864,-396,o),
(568,-396,cs),
(268,-396,o),
(83,-169,o),
(136,144,cs),
(189,471,o),
(487,705,o),
(862,722,cs),
(930,722,l),
(936,768,l),
(404,1470,l),
(400,1442,l),
(1362,1442,l),
(1370,1490,l),
(360,1490,l),
(354,1452,l),
(868,774,l),
(866,768,l),
(463,751,o),
(146,492,o),
(88,144,cs),
(39,-157,o),
(199,-442,o),
(562,-442,cs),
(876,-442,o),
(1164,-230,o),
(1214,72,c)
);
}
);
width = 1419;
}
);
metricLeft = "=|Ezh";
metricRight = "=|Ezh";
note = "mirror of Ezh";
tags = (
"TODO-opsz"
);
unicode = 440;
userData = {
interface.gridadjust.original = "{'width': 1821, 'leftMargin': 160, 'rightMargin': 110}";
"interface.width-adjustments" = (
-16
);
};
},
{
color = 6;
glyphname = F;
kernLeft = B;
kernRight = F;
lastChange = "2022-07-22 10:10:35 +0000";
layers = (
{
anchors = (
{
name = bottom;
pos = (420,12);
},
{
name = cross;
pos = (188,350);
},
{
name = top;
pos = (784,1676);
}
);
layerId = "11F4534A-B963-4AB5-820F-DAF9A20CD933";
shapes = (
{
closed = 1;
nodes = (
(220,0,l),
(330,666,l),
(976,666,l),
(1002,826,l),
(356,826,l),
(440,1330,l),
(1154,1330,l),
(1180,1490,l),
(286,1490,l),
(40,0,l)
);
}
);
width = 1106;
},
{
anchors = (
{
name = bottom;
pos = (528,12);
},
{
name = cross;
pos = (220,250);
},
{
name = top;
pos = (784,1676);
}
);
guides = (
{
pos = (240,1320);
}
);
layerId = "D0EC06BF-13F9-4C88-A6F5-B8203AF6C77E";
shapes = (
{
closed = 1;
nodes = (
(384,0,l),
(480,582,l),
(1058,582,l),
(1114,908,l),
(534,908,l),
(576,1164,l),
(1218,1164,l),
(1274,1490,l),
(226,1490,l),
(-22,0,l)
);
}
);
width = 1148;
},
{
anchors = (
{
name = bottom;
pos = (418,12);
},
{
name = cross;
pos = (232,410);
},
{
name = top;
pos = (820,1676);
}
);
layerId = "200BE2C5-40F6-4CF4-AF4F-A33C0CC0964F";
shapes = (
{
closed = 1;
nodes = (
(186,0,l),
(306,722,l),
(990,722,l),
(998,768,l),
(314,768,l),
(424,1442,l),
(1178,1442,l),
(1186,1490,l),
(386,1490,l),
(140,0,l)
);
}
);
width = 1198;
}
);
metricLeft = H;
unicode = 70;
userData = {
"interface.width-adjustments" = (
-16
);
};
},
{
color = 3;
glyphname = Fhook;
kernLeft = jdotless;
kernRight = F;
lastChange = "2022-07-22 10:10:35 +0000";
layers = (
{
layerId = "11F4534A-B963-4AB5-820F-DAF9A20CD933";
shapes = (
{
closed = 1;
nodes = (
(22,-116,ls),
(4,-237,o),
(-74,-268,o),
(-158,-268,cs),
(-185,-268,o),
(-205,-265,o),
(-220,-262,c),
(-242,-410,l),
(-214,-419,o),
(-193,-419,o),
(-176,-418,cs),
(28,-419,o),
(167,-313,o),
(200,-120,cs),
(220,0,l),
(40,0,l)
);
},
{
ref = F;
}
);
width = 1106;
},
{
layerId = "D0EC06BF-13F9-4C88-A6F5-B8203AF6C77E";
shapes = (
{
closed = 1;
nodes = (
(54,-34,ls),
(42,-103,o),
(-38,-116,o),
(-108,-116,c),
(-128,-116,o),
(-160,-119,o),
(-176,-116,c),
(-224,-414,l),
(-189,-419,o),
(-96,-419,o),
(-54,-418,c),
(154,-419,o),
(400,-385,o),
(458,-34,cs),
(464,0,l),
(60,0,l)
);
},
{
pos = (82,0);
ref = F;
}
);
width = 1230;
},
{
layerId = "200BE2C5-40F6-4CF4-AF4F-A33C0CC0964F";
shapes = (
{
closed = 1;
nodes = (
(62,-168,ls),
(38,-303,o),
(-23,-369,o),
(-130,-370,cs),
(-149,-369,o),
(-166,-367,o),
(-178,-364,c),
(-186,-410,l),
(-173,-414,o),
(-152,-416,o),
(-130,-416,cs),
(1,-416,o),
(79,-334,o),
(108,-168,cs),
(136,0,l),
(90,0,l)
);
},
{
alignment = -1;
pos = (-50,0);
ref = F;
}
);
width = 1148;
}
);
metricRight = F;
tags = (
"TODO-opsz"
);
unicode = 401;
userData = {
interface.gridadjust.original = "{'width': 1645, 'leftMargin': 0, 'rightMargin': 31}";
"interface.width-adjustments" = (
-16
);
};
},
{
color = 6;
glyphname = G;
kernLeft = C;
kernRight = G;
lastChange = "2022-07-22 10:10:35 +0000";
layers = (
{
anchors = (
{
name = bottom;
pos = (629,0);
},
{
name = top;
pos = (911,1676);
}
);
guides = (
{
pos = (2943,1408);
},
{
angle = 90;
pos = (2767,1304);
},
{
angle = 90;
pos = (2555,1644);
},
{
angle = -99.4;
pos = (1175,1024);
}
);
layerId = "11F4534A-B963-4AB5-820F-DAF9A20CD933";
shapes = (
{
closed = 1;
nodes = (
(995,-20,o),
(1289,215,o),
(1347,584,cs),
(1377,744,l),
(809,744,l),
(781,584,l),
(1229,584,l),
(1175,596,l),
(1132,323,o),
(911,148,o),
(655,148,cs),
(379,148,o),
(216,358,o),
(279,744,cs),
(344,1132,o),
(606,1341,o),
(871,1342,cs),
(1086,1341,o),
(1196,1219,o),
(1225,1024,c),
(1411,1024,l),
(1406,1312,o),
(1196,1510,o),
(881,1510,cs),
(501,1510,o),
(181,1216,o),
(105,744,cs),
(27,273,o),
(245,-20,o),
(641,-20,cs)
);
}
);
width = 1425;
},
{
anchors = (
{
name = bottom;
pos = (680,-12);
},
{
name = bottom_dd;
pos = (1312,-408);
},
{
name = top;
pos = (960,1676);
},
{
name = top0315;
pos = (1650,1632);
},
{
name = top_dd;
pos = (1644,1600);
}
);
associatedMasterId = "11F4534A-B963-4AB5-820F-DAF9A20CD933";
guides = (
{
pos = (2196,1408);
},
{
angle = 90;
pos = (2160,1304);
},
{
angle = 90;
pos = (1492,1644);
}
);
layerId = "4E80DD12-BE55-4A22-8C8A-5EF47AF296F7";
name = "Sep 11 18, 23:24";
shapes = (
{
closed = 1;
nodes = (
(76,273,o),
(303,-20,o),
(692,-20,cs),
(1041,-20,o),
(1335,212,o),
(1396,578,cs),
(1422,738,l),
(884,738,l),
(858,578,l),
(1268,578,l),
(1228,622,l),
(1222,578,l),
(1181,326,o),
(972,148,o),
(718,148,cs),
(442,148,o),
(265,358,o),
(328,744,cs),
(393,1132,o),
(640,1341,o),
(904,1342,cs),
(1097,1341,o),
(1239,1231,o),
(1274,1024,c),
(1458,1024,l),
(1423,1329,o),
(1228,1510,o),
(930,1510,cs),
(553,1510,o),
(233,1216,o),
(154,748,cs)
);
}
);
width = 1522;
},
{
anchors = (
{
name = bottom;
pos = (688,6);
},
{
name = top;
pos = (966,1676);
}
);
background = {
shapes = (
{
pos = (146,0);
ref = C;
}
);
};
layerId = "D0EC06BF-13F9-4C88-A6F5-B8203AF6C77E";
shapes = (
{
closed = 1;
nodes = (
(1091,-20,o),
(1409,218,o),
(1478,626,cs),
(1510,832,l),
(850,832,l),
(804,544,l),
(1144,544,l),
(1074,552,l),
(1053,417,o),
(940,332,o),
(754,332,cs),
(545,332,o),
(471,486,o),
(514,748,cs),
(556,1006,o),
(713,1158,o),
(918,1158,cs),
(1043,1158,o),
(1105,1100,o),
(1112,998,c),
(1520,998,l),
(1540,1297,o),
(1303,1510,o),
(952,1510,cs),
(550,1510,o),
(178,1233,o),
(96,742,cs),
(19,271,o),
(266,-20,o),
(700,-20,cs)
);
}
);
width = 1534;
},
{
anchors = (
{
name = bottom;
pos = (684,6);
},
{
name = bottom_dd;
pos = (1374,-408);
},
{
name = top;
pos = (942,1586);
},
{
name = top0315;
pos = (1704,1588);
},
{
name = top_dd;
pos = (1704,1600);
}
);
associatedMasterId = "D0EC06BF-13F9-4C88-A6F5-B8203AF6C77E";
background = {
shapes = (
{
ref = C;
}
);
};
guides = (
{
angle = 7.9575;
pos = (1208,1320);
},
{
angle = 90;
pos = (944,528);
},
{
pos = (1356,756);
}
);
layerId = "DB24DE82-64F7-46A2-B463-9A6336A82810";
name = "Sep 14 18, 09:43";
shapes = (
{
closed = 1;
nodes = (
(35,271,o),
(268,-20,o),
(690,-20,cs),
(1071,-20,o),
(1385,218,o),
(1452,626,cs),
(1484,820,l),
(812,820,l),
(766,538,l),
(1140,538,l),
(1070,626,l),
(1056,538,l),
(1021,407,o),
(887,337,o),
(756,338,cs),
(564,337,o),
(480,489,o),
(524,748,cs),
(564,1004,o),
(698,1155,o),
(888,1154,cs),
(1030,1155,o),
(1079,1068,o),
(1088,998,c),
(1502,998,l),
(1533,1295,o),
(1283,1510,o),
(936,1510,cs),
(547,1510,o),
(192,1233,o),
(110,742,cs)
);
}
);
width = 1524;
},
{
anchors = (
{
name = bottom;
pos = (661,0);
},
{
name = top;
pos = (941,1676);
}
);
layerId = "200BE2C5-40F6-4CF4-AF4F-A33C0CC0964F";
shapes = (
{
closed = 1;
nodes = (
(1008,-20,o),
(1289,221,o),
(1357,628,cs),
(1365,674,l),
(803,674,l),
(795,628,l),
(1331,628,l),
(1313,646,l),
(1255,261,o),
(988,26,o),
(681,26,cs),
(322,26,o),
(152,311,o),
(225,744,cs),
(303,1205,o),
(609,1463,o),
(911,1464,cs),
(1230,1463,o),
(1362,1233,o),
(1363,1024,c),
(1409,1024,l),
(1410,1236,o),
(1273,1510,o),
(921,1510,cs),
(554,1510,o),
(253,1201,o),
(179,744,cs),
(101,288,o),
(295,-20,o),
(673,-20,cs)
);
}
);
width = 1513;
}
);
metricLeft = O;
note = "C + hook segments";
unicode = 71;
userData = {
com.typemytype.robofont.guideline.magnetic.DBpTQJmUAf = 5;
com.typemytype.robofont.guideline.magnetic.Mdeh49HlEG = 5;
com.typemytype.robofont.guideline.magnetic.iFgX6ho5qJ = 5;
"interface.width-adjustments" = (
-16
);
};
},
{
color = 3;
glyphname = Gbar;
kernLeft = C;
kernRight = G;
lastChange = "2022-07-22 10:10:35 +0000";
layers = (
{
guides = (
{
angle = 90;
pos = (1052,744);
},
{
angle = 90;
pos = (464,148);
}
);
layerId = "11F4534A-B963-4AB5-820F-DAF9A20CD933";
shapes = (
{
closed = 1;
nodes = (
(760,454,l),
(738,308,l),
(1406,308,l),
(1430,454,l)
);
},
{
ref = G;
}
);
width = 1426;
},
{
layerId = "D0EC06BF-13F9-4C88-A6F5-B8203AF6C77E";
shapes = (
{
closed = 1;
nodes = (
(796,500,l),
(782,410,l),
(1488,410,l),
(1504,500,l)
);
},
{
ref = G;
}
);
width = 1534;
},
{
layerId = "200BE2C5-40F6-4CF4-AF4F-A33C0CC0964F";
shapes = (
{
closed = 1;
nodes = (
(770,466,l),
(762,418,l),
(1402,418,l),
(1410,466,l)
);
},
{
alignment = -1;
ref = G;
}
);
width = 1512;
}
);
metricLeft = G;
tags = (
"TODO-opsz"
);
unicode = 484;
userData = {
com.typemytype.robofont.guideline.magnetic.L529Uh5F2Z = 5;
com.typemytype.robofont.guideline.magnetic.aP8dy3XBkq = 5;
interface.gridadjust.original = "{'width': 1917, 'leftMargin': 256, 'rightMargin': 7}";
"interface.width-adjustments" = (
-16
);
};
},
{
color = 3;
glyphname = Ghook;
kernLeft = C;
kernRight = G;
lastChange = "2022-07-22 10:10:35 +0000";
layers = (
{
layerId = "11F4534A-B963-4AB5-820F-DAF9A20CD933";
shapes = (
{
closed = 1;
nodes = (
(1436,1182,ls),
(1455,1297,o),
(1530,1332,o),
(1624,1332,cs),
(1644,1332,o),
(1664,1329,o),
(1678,1326,c),
(1700,1472,l),
(1677,1481,o),
(1639,1481,o),
(1604,1480,cs),
(1418,1481,o),
(1304,1373,o),
(1262,1182,cs),
(1226,1024,l),
(1410,1024,l)
);
},
{
ref = G;
}
);
width = 1486;
},
{
guides = (
{
angle = 90;
pos = (1900,996);
}
);
layerId = "D0EC06BF-13F9-4C88-A6F5-B8203AF6C77E";
shapes = (
{
closed = 1;
nodes = (
(1570,1272,ls),
(1591,1396,o),
(1699,1414,o),
(1806,1414,cs),
(1841,1414,o),
(1873,1408,o),
(1910,1406,c),
(1962,1720,l),
(1900,1734,o),
(1847,1743,o),
(1788,1742,cs),
(1507,1743,o),
(1203,1577,o),
(1154,1272,cs),
(1110,998,l),
(1524,998,l)
);
},
{
ref = G;
}
);
width = 1746;
},
{
layerId = "200BE2C5-40F6-4CF4-AF4F-A33C0CC0964F";
shapes = (
{
closed = 1;
nodes = (
(1438,1208,ls),
(1457,1321,o),
(1507,1361,o),
(1572,1362,cs),
(1585,1361,o),
(1602,1360,o),
(1620,1358,c),
(1628,1404,l),
(1611,1407,o),
(1594,1408,o),
(1578,1408,cs),
(1478,1408,o),
(1414,1347,o),
(1392,1210,cs),
(1362,1024,l),
(1408,1024,l,{
name = hr00;
})
);
},
{
alignment = -1;
ref = G;
}
);
width = 1458;
}
);
metricLeft = G;
tags = (
"TODO-opsz"
);
unicode = 403;
userData = {
interface.gridadjust.original = "{'width': 1998, 'leftMargin': 256, 'rightMargin': -45}";
};
},
{
color = 6;
glyphname = uni021C;
lastChange = "2022-07-22 10:10:35 +0000";
layers = (
{
background = {
shapes = (
{
closed = 1;
nodes = (
(727,451,o),
(1167,713,o),
(1224,1062,cs),
(1268,1332,o),
(1091,1478,o),
(774,1478,cs),
(506,1478,o),
(256,1321,o),
(216,1074,c),
(422,1074,l),
(445,1213,o),
(593,1309,o),
(748,1310,cs),
(966,1309,o),
(1039,1196,o),
(1018,1064,cs),
(966,756,o),
(687,611,o),
(206,474,c),
(184,322,l)
);
},
{
closed = 1;
nodes = (
(916,591,o),
(945,503,o),
(916,328,cs),
(858,-26,o),
(561,-177,o),
(84,-270,c),
(56,-436,l),
(620,-326,o),
(1047,-148,o),
(1126,326,cs),
(1164,553,o),
(1088,687,o),
(934,748,c),
(812,634,l)
);
}
);
};
layerId = "11F4534A-B963-4AB5-820F-DAF9A20CD933";
shapes = (
{
closed = 1;
nodes = (
(682,451,o),
(1123,720,o),
(1182,1084,cs),
(1228,1357,o),
(1037,1510,o),
(750,1510,cs),
(452,1510,o),
(218,1353,o),
(178,1106,c),
(384,1106,l),
(407,1245,o),
(536,1341,o),
(722,1342,cs),
(908,1341,o),
(1002,1241,o),
(974,1064,cs),
(927,784,o),
(644,625,o),
(166,488,c),
(140,338,l)
);
},
{
closed = 1;
nodes = (
(874,605,o),
(902,509,o),
(874,340,cs),
(812,-35,o),
(517,-177,o),
(40,-270,c),
(12,-436,l),
(575,-326,o),
(1002,-148,o),
(1080,326,cs),
(1121,567,o),
(1047,701,o),
(892,762,c),
(770,648,l)
);
}
);
width = 1196;
},
{
background = {
shapes = (
{
closed = 1;
nodes = (
(913,460,o),
(1292,634,o),
(1364,1062,cs),
(1408,1332,o),
(1196,1475,o),
(846,1474,cs),
(553,1475,o),
(253,1329,o),
(206,1054,c),
(596,1054,l),
(611,1135,o),
(701,1164,o),
(794,1164,cs),
(940,1164,o),
(983,1103,o),
(966,992,cs),
(937,817,o),
(826,745,o),
(250,584,c),
(204,290,l)
);
},
{
closed = 1;
nodes = (
(832,506,o),
(902,500,o),
(878,366,cs),
(844,148,o),
(591,-47,o),
(134,-128,c),
(82,-436,l),
(701,-375,o),
(1196,-73,o),
(1268,358,cs),
(1306,596,o),
(1114,745,o),
(786,718,c),
(710,488,l)
);
}
);
};
layerId = "D0EC06BF-13F9-4C88-A6F5-B8203AF6C77E";
shapes = (
{
closed = 1;
nodes = (
(983,495,o),
(1281,706,o),
(1340,1062,cs),
(1391,1370,o),
(1190,1510,o),
(824,1510,cs),
(490,1510,o),
(231,1335,o),
(190,1088,c),
(580,1088,l),
(591,1157,o),
(660,1199,o),
(772,1198,cs),
(909,1199,o),
(967,1145,o),
(944,1006,cs),
(912,827,o),
(788,755,o),
(230,600,c),
(182,306,l)
);
},
{
closed = 1;
nodes = (
(836,524,o),
(877,495,o),
(856,366,cs),
(817,133,o),
(538,-52,o),
(110,-128,c),
(58,-436,l),
(703,-373,o),
(1176,-56,o),
(1244,358,cs),
(1287,612,o),
(1090,759,o),
(764,734,c),
(688,504,l)
);
}
);
width = 1378;
},
{
background = {
shapes = (
{
closed = 1;
nodes = (
(705,500,o),
(1092,788,o),
(1144,1106,cs),
(1180,1325,o),
(1030,1479,o),
(758,1480,cs),
(484,1479,o),
(257,1314,o),
(218,1086,c),
(264,1086,l),
(296,1281,o),
(508,1433,o),
(750,1432,cs),
(1000,1433,o),
(1129,1307,o),
(1098,1108,cs),
(1055,825,o),
(680,544,o),
(178,404,c),
(170,354,l)
);
},
{
closed = 1;
nodes = (
(972,639,o),
(1023,501,o),
(994,320,cs),
(937,-17,o),
(710,-185,o),
(48,-386,c),
(40,-436,l),
(742,-228,o),
(981,-47,o),
(1040,322,cs),
(1071,516,o),
(1020,657,o),
(886,740,c),
(850,704,l)
);
}
);
};
layerId = "200BE2C5-40F6-4CF4-AF4F-A33C0CC0964F";
shapes = (
{
closed = 1;
nodes = (
(708,515,o),
(1095,802,o),
(1148,1120,cs),
(1187,1356,o),
(1036,1510,o),
(764,1510,cs),
(489,1510,o),
(263,1345,o),
(224,1116,c),
(270,1116,l),
(302,1312,o),
(508,1463,o),
(764,1464,cs),
(1000,1463,o),
(1135,1332,o),
(1102,1128,cs),
(1057,833,o),
(683,559,o),
(182,418,c),
(174,368,l)
);
},
{
closed = 1;
nodes = (
(975,654,o),
(1026,516,o),
(994,320,cs),
(937,-17,o),
(710,-185,o),
(48,-386,c),
(40,-436,l),
(742,-228,o),
(979,-46,o),
(1040,322,cs),
(1074,530,o),
(1023,672,o),
(888,754,c),
(854,718,l)
);
}
);
width = 1210;
}
);
tags = (
"TODO-opsz"
);
unicode = 540;
userData = {
interface.gridadjust.original = "{'width': 1690, 'leftMargin': 124, 'rightMargin': 146}";
"interface.width-adjustments" = (
-16
);
};
},
{
color = 6;
glyphname = H;
kernLeft = B;
kernRight = H;
lastChange = "2022-07-22 10:10:35 +0000";
layers = (
{
anchors = (
{
name = bottom;
pos = (616,0);
},
{
name = cedilla;
pos = (150,0);
},
{
name = cyrtic;
pos = (1272,64);
},
{
name = right;
pos = (1192,0);
},
{
name = tonos;
pos = (246,1490);
},
{
name = top;
pos = (904,1678);
}
);
guides = (
{
orientation = center;
angle = 90;
pos = (-876,56);
}
);
layerId = "11F4534A-B963-4AB5-820F-DAF9A20CD933";
shapes = (
{
closed = 1;
nodes = (
(220,0,l),
(330,666,l),
(1124,666,l),
(1014,0,l),
(1194,0,l),
(1442,1490,l),
(1262,1490,l),
(1150,826,l),
(356,826,l),
(466,1490,l),
(286,1490,l),
(40,0,l)
);
}
);
width = 1420;
},
{
anchors = (
{
name = bottom;
pos = (650,0);
},
{
name = cedilla;
pos = (170,0);
},
{
name = cyrtic;
pos = (1542,162);
},
{
name = right;
pos = (1322,0);
},
{
name = tonos;
pos = (192,1490);
},
{
name = top;
pos = (930,1676);
}
);
guides = (
{
pos = (696,1652);
},
{
orientation = center;
angle = 90;
pos = (-96,1344);
}
);
layerId = "D0EC06BF-13F9-4C88-A6F5-B8203AF6C77E";
shapes = (
{
closed = 1;
nodes = (
(384,0,l),
(480,582,l),
(1014,582,l),
(918,0,l),
(1322,0,l),
(1570,1490,l),
(1166,1490,l),
(1070,908,l),
(534,908,l),
(630,1490,l),
(226,1490,l),
(-22,0,l)
);
}
);
width = 1488;
},
{
anchors = (
{
name = bottom;
pos = (660,0);
},
{
name = cedilla;
pos = (162,-6);
},
{
name = cyrtic;
pos = (1202,6);
},
{
name = right;
pos = (1182,0);
},
{
name = tonos;
pos = (352,1490);
},
{
name = top;
pos = (940,1676);
}
);
layerId = "200BE2C5-40F6-4CF4-AF4F-A33C0CC0964F";
shapes = (
{
closed = 1;
nodes = (
(186,0,l),
(306,722,l),
(1254,722,l),
(1134,0,l),
(1182,0,l),
(1428,1490,l),
(1382,1490,l),
(1262,768,l),
(314,768,l),
(434,1490,l),
(386,1490,l),
(140,0,l)
);
}
);
width = 1506;
}
);
unicode = 72;
userData = {
"interface.width-adjustments" = (
-16
);
};
},
{
color = 3;
glyphname = Hbar;
kernLeft = B;
kernRight = H;
lastChange = "2022-07-22 10:10:35 +0000";
layers = (
{
guides = (
{
orientation = center;
angle = 90;
pos = (-667,2068);
}
);
layerId = "11F4534A-B963-4AB5-820F-DAF9A20CD933";
shapes = (
{
closed = 1;
nodes = (
(152,1176,l),
(130,1024,l),
(1522,1024,l),
(1546,1176,l)
);
},
{
pos = (38,0);
ref = H;
}
);
width = 1495;
},
{
layerId = "D0EC06BF-13F9-4C88-A6F5-B8203AF6C77E";
shapes = (
{
closed = 1;
nodes = (
(148,1268,l),
(116,1076,l),
(1710,1076,l),
(1742,1268,l)
);
},
{
pos = (82,0);
ref = H;
}
);
width = 1657;
},
{
layerId = "200BE2C5-40F6-4CF4-AF4F-A33C0CC0964F";
shapes = (
{
closed = 1;
nodes = (
(212,1080,l),
(202,1032,l),
(1476,1032,l),
(1486,1080,l)
);
},
{
alignment = -1;
pos = (8,0);
ref = H;
}
);
width = 1524;
}
);
metricLeft = T;
metricRight = T;
tags = (
"TODO-opsz"
);
unicode = 294;
userData = {
interface.gridadjust.original = "{'width': 1980.0, 'leftMargin': 43, 'rightMargin': 22.0}";
"interface.width-adjustments" = (
-16
);
};
},
{
color = 6;
glyphname = I;
kernLeft = B;
kernRight = H;
lastChange = "2022-07-22 10:10:35 +0000";
layers = (
{
anchors = (
{
name = bottom;
pos = (132,0);
},
{
name = cross;
pos = (258,768);
},
{
name = ogonek;
pos = (220,0);
},
{
name = right;
pos = (234,0);
},
{
name = tonos;
pos = (286,1490);
},
{
name = top;
pos = (406,1676);
}
);
guides = (
{
angle = -99.4;
pos = (456,1852);
}
);
layerId = "11F4534A-B963-4AB5-820F-DAF9A20CD933";
shapes = (
{
closed = 1;
nodes = (
(286,1490,l),
(40,0,l),
(220,0,l),
(466,1490,l)
);
}
);
width = 445;
},
{
anchors = (
{
name = bottom;
pos = (182,0);
},
{
name = cross;
pos = (310,788);
},
{
name = ogonek;
pos = (384,0);
},
{
name = right;
pos = (410,0);
},
{
name = tonos;
pos = (226,1490);
},
{
name = top;
pos = (462,1676);
}
);
guides = (
{
angle = -99.4;
pos = (556,1356);
}
);
layerId = "D0EC06BF-13F9-4C88-A6F5-B8203AF6C77E";
shapes = (
{
closed = 1;
nodes = (
(226,1490,l),
(-22,0,l),
(384,0,l),
(630,1490,l)
);
}
);
width = 549;
},
{
anchors = (
{
name = bottom;
pos = (162,0);
},
{
name = cross;
pos = (290,768);
},
{
name = ogonek;
pos = (186,0);
},
{
name = right;
pos = (194,0);
},
{
name = tonos;
pos = (386,1490);
},
{
name = top;
pos = (442,1676);
}
);
layerId = "200BE2C5-40F6-4CF4-AF4F-A33C0CC0964F";
shapes = (
{
closed = 1;
nodes = (
(386,1490,l),
(140,0,l),
(186,0,l),
(434,1490,l)
);
}
);
width = 511;
}
);
metricLeft = H;
metricRight = H;
unicode = 73;
userData = {
"interface.width-adjustments" = (
-16
);
};
},
{
color = 6;
glyphname = J;
kernLeft = J;
kernRight = J;
lastChange = "2022-07-22 10:10:35 +0000";
layers = (
{
anchors = (
{
name = cross;
pos = (862,884);
},
{
name = top;
pos = (993,1676);
}
);
layerId = "200BE2C5-40F6-4CF4-AF4F-A33C0CC0964F";
shapes = (
{
closed = 1;
nodes = (
(566,-20,o),
(755,93,o),
(805,396,cs),
(986,1490,l),
(940,1490,l),
(759,396,ls),
(713,119,o),
(546,26,o),
(384,26,cs),
(206,26,o),
(86,134,o),
(110,280,cs),
(111,288,l),
(65,288,l),
(64,280,ls),
(35,108,o),
(170,-20,o),
(376,-20,cs)
);
}
);
width = 1063;
},
{
anchors = (
{
name = cross;
pos = (846,884);
},
{
name = top;
pos = (977,1676);
}
);
guides = (
{
angle = -99.4;
pos = (1180,1492);
}
);
layerId = "11F4534A-B963-4AB5-820F-DAF9A20CD933";
shapes = (
{
closed = 1;
nodes = (
(621,-20,o),
(813,139,o),
(860,424,c),
(1036,1490,l),
(856,1490,l),
(680,424,l),
(650,239,o),
(545,140,o),
(389,140,cs),
(247,140,o),
(158,223,o),
(179,350,cs),
(185,384,l),
(7,384,l),
(1,350,ls),
(-37,120,o),
(118,-20,o),
(362,-20,cs)
);
}
);
width = 1014;
},
{
anchors = (
{
name = cross;
pos = (934,884);
},
{
name = top;
pos = (1069,1676);
}
);
background = {
shapes = (
{
closed = 1;
nodes = (
(679,384,o),
(620,294,o),
(520,294,cs),
(434,294,o),
(396,349,o),
(414,466,c),
(8,466,l),
(-52,122,o),
(161,-20,o),
(448,-20,cs),
(777,-20,o),
(1042,177,o),
(1094,468,c),
(1262,1490,l),
(864,1490,l),
(696,468,l)
);
}
);
};
guides = (
{
angle = -99.4;
pos = (1676,1484);
}
);
layerId = "D0EC06BF-13F9-4C88-A6F5-B8203AF6C77E";
shapes = (
{
closed = 1;
nodes = (
(754,-20,o),
(1021,177,o),
(1069,468,cs),
(1238,1490,l),
(840,1490,l),
(671,468,ls),
(652,353,o),
(592,294,o),
(502,294,cs),
(413,294,o),
(370,353,o),
(389,466,cs),
(390,472,l),
(-14,472,l),
(-15,466,ls),
(-72,122,o),
(137,-20,o),
(424,-20,cs)
);
}
);
width = 1156;
},
{
anchors = (
{
name = bottom;
pos = (488,-12);
},
{
name = bottom_dd;
pos = (1096,-408);
},
{
name = cross;
pos = (1032,884);
},
{
name = top;
pos = (1140,1570);
},
{
name = top0315;
pos = (1428,1600);
},
{
name = top_dd;
pos = (1428,1600);
}
);
associatedMasterId = "D0EC06BF-13F9-4C88-A6F5-B8203AF6C77E";
layerId = "AD268349-6365-406D-9447-8D02F922AB8D";
name = "Sep 14 18, 09:53";
shapes = (
{
closed = 1;
nodes = (
(753,384,o),
(695,294,o),
(594,294,cs),
(509,294,o),
(471,349,o),
(486,466,c),
(82,466,l),
(23,122,o),
(236,-20,o),
(520,-20,cs),
(852,-20,o),
(1117,177,o),
(1166,468,c),
(1336,1490,l),
(936,1490,l),
(768,468,l)
);
}
);
width = 1274;
}
);
metricRight = H;
unicode = 74;
},
{
color = 6;
glyphname = K;
kernLeft = B;
kernRight = K;
lastChange = "2022-07-22 10:10:35 +0000";
layers = (
{
anchors = (
{
name = bottom;
pos = (548,0);
},
{
name = top;
pos = (808,1676);
}
);
guides = (
{
angle = -99.4;
pos = (740,212);
}
);
layerId = "11F4534A-B963-4AB5-820F-DAF9A20CD933";
shapes = (
{
closed = 1;
nodes = (
(220,0,l),
(302,482,l),
(522,692,l),
(924,0,l),
(1142,0,l),
(654,818,l),
(1390,1490,l),
(1154,1490,l),
(362,750,l),
(344,750,l),
(466,1490,l),
(286,1490,l),
(40,0,l)
);
}
);
width = 1240;
},
{
anchors = (
{
name = bottom;
pos = (608,2);
},
{
name = top;
pos = (886,1676);
}
);
guides = (
{
angle = -99.4;
pos = (1396,1372);
}
);
layerId = "D0EC06BF-13F9-4C88-A6F5-B8203AF6C77E";
shapes = (
{
closed = 1;
nodes = (
(384,0,l),
(448,382,l),
(614,558,l),
(852,0,l),
(1334,0,l),
(960,826,l),
(1570,1490,l),
(1098,1490,l),
(552,888,l),
(532,888,l),
(630,1490,l),
(226,1490,l),
(-22,0,l)
);
}
);
width = 1416;
},
{
anchors = (
{
name = bottom;
pos = (542,0);
},
{
name = top;
pos = (824,1676);
}
);
layerId = "200BE2C5-40F6-4CF4-AF4F-A33C0CC0964F";
shapes = (
{
closed = 1;
nodes = (
(186,0,l),
(268,486,l),
(532,734,l),
(1030,0,l),
(1090,0,l),
(570,768,l),
(1346,1490,l),
(1282,1490,l),
(286,562,l),
(280,562,l),
(434,1490,l),
(386,1490,l),
(140,0,l)
);
}
);
width = 1262;
}
);
metricLeft = H;
unicode = 75;
userData = {
com.typemytype.robofont.guideline.magnetic.bB6GeEoQ3O = 5;
"interface.width-adjustments" = (
-16
);
};
},
{
color = 6;
glyphname = Khook;
kernLeft = B;
kernRight = K;
lastChange = "2022-07-22 10:10:35 +0000";
layers = (
{
background = {
shapes = (
{
ref = K;
}
);
};
layerId = "11F4534A-B963-4AB5-820F-DAF9A20CD933";
shapes = (
{
closed = 1;
nodes = (
(220,0,l),
(302,482,l),
(522,692,l),
(924,0,l),
(1142,0,l),
(654,818,l),
(1154,1274,ls),
(1240,1353,o),
(1308,1359,o),
(1362,1318,c),
(1458,1452,l),
(1354,1536,o),
(1197,1530,o),
(1060,1402,cs),
(362,750,l),
(344,750,l),
(466,1490,l),
(286,1490,l),
(40,0,l)
);
}
);
width = 1280;
},
{
background = {
shapes = (
{
pos = (12,0);
ref = K;
}
);
};
guides = (
{
angle = 227.7472;
pos = (1416,1740);
},
{
angle = 227.9329;
pos = (1728,1508);
}
);
layerId = "D0EC06BF-13F9-4C88-A6F5-B8203AF6C77E";
shapes = (
{
closed = 1;
nodes = (
(384,0,l),
(436,320,l),
(646,504,l),
(948,0,l),
(1430,0,l),
(954,792,l),
(1308,1096,ls),
(1378,1156,o),
(1428,1196,o),
(1514,1152,c),
(1680,1434,l),
(1468,1562,o),
(1257,1520,o),
(1050,1342,cs),
(554,914,l),
(534,914,l),
(630,1490,l),
(226,1490,l),
(-22,0,l)
);
}
);
width = 1522;
},
{
layerId = "200BE2C5-40F6-4CF4-AF4F-A33C0CC0964F";
shapes = (
{
closed = 1;
nodes = (
(186,0,l),
(268,486,l),
(532,734,l),
(1106,0,l),
(1164,0,l),
(566,764,l),
(1240,1388,l),
(1305,1455,o),
(1370,1466,o),
(1438,1420,c),
(1470,1450,l),
(1385,1518,o),
(1306,1508,o),
(1224,1432,cs),
(284,562,l),
(280,562,l),
(434,1490,l),
(386,1490,l),
(140,0,l)
);
}
);
width = 1342;
}
);
tags = (
"TODO-opsz"
);
unicode = 408;
userData = {
com.typemytype.robofont.guideline.magnetic.39qH0NXtzo = 5;
com.typemytype.robofont.guideline.magnetic.tBAYMBoO6i = 5;
interface.gridadjust.original = "{'width': 1764, 'leftMargin': 228, 'rightMargin': -13}";
"interface.width-adjustments" = (
-16
);
};
},
{
color = 6;
glyphname = L;
kernLeft = B;
kernRight = L;
lastChange = "2022-07-22 10:10:35 +0000";
layers = (
{
anchors = (
{
name = bottom;
pos = (484,0);
},
{
name = cross;
pos = (258,768);
},
{
name = dot;
pos = (594,794);
},
{
name = raccent;
pos = (718,1490);
},
{
name = top;
pos = (412,1676);
}
);
layerId = "11F4534A-B963-4AB5-820F-DAF9A20CD933";
shapes = (
{
closed = 1;
nodes = (
(912,0,l),
(938,160,l),
(246,160,l),
(466,1490,l),
(286,1490,l),
(40,0,l)
);
}
);
width = 1056;
},
{
anchors = (
{
name = bottom;
pos = (436,0);
},
{
name = cross;
pos = (310,788);
},
{
name = dot;
pos = (634,872);
},
{
name = raccent;
pos = (838,1490);
},
{
name = top;
pos = (456,1676);
}
);
guides = (
{
pos = (228,1304);
},
{
orientation = center;
angle = 90;
pos = (-170,584);
}
);
layerId = "D0EC06BF-13F9-4C88-A6F5-B8203AF6C77E";
shapes = (
{
closed = 1;
nodes = (
(986,0,l),
(1040,326,l),
(438,326,l),
(630,1490,l),
(226,1490,l),
(-22,0,l)
);
}
);
width = 1122;
},
{
anchors = (
{
name = bottom;
pos = (536,0);
},
{
name = cross;
pos = (290,768);
},
{
name = dot;
pos = (638,748);
},
{
name = raccent;
pos = (780,1490);
},
{
name = top;
pos = (442,1676);
}
);
layerId = "200BE2C5-40F6-4CF4-AF4F-A33C0CC0964F";
shapes = (
{
closed = 1;
nodes = (
(930,0,l),
(940,46,l),
(194,46,l),
(434,1490,l),
(386,1490,l),
(140,0,l)
);
}
);
width = 1152;
}
);
metricLeft = H;
unicode = 76;
userData = {
"interface.width-adjustments" = (
-16
);
};
},
{
color = 3;
glyphname = Lslash;
kernLeft = B;
kernRight = L;
lastChange = "2022-07-22 10:10:35 +0000";
layers = (
{
layerId = "11F4534A-B963-4AB5-820F-DAF9A20CD933";
shapes = (
{
closed = 1;
nodes = (
(-4,744,l),
(-4,614,l),
(586,800,l),
(586,930,l)
);
},
{
ref = L;
}
);
width = 1056;
},
{
layerId = "D0EC06BF-13F9-4C88-A6F5-B8203AF6C77E";
shapes = (
{
closed = 1;
nodes = (
(34,794,l),
(2,596,l),
(764,782,l),
(796,984,l)
);
},
{
pos = (104,0);
ref = L;
}
);
width = 1182;
},
{
layerId = "200BE2C5-40F6-4CF4-AF4F-A33C0CC0964F";
shapes = (
{
closed = 1;
nodes = (
(24,698,l),
(34,654,l),
(520,840,l),
(512,884,l)
);
},
{
alignment = -1;
pos = (-64,0);
ref = L;
}
);
width = 1104;
}
);
unicode = 321;
userData = {
interface.gridadjust.original = "{'width': 1524, 'leftMargin': 52, 'rightMargin': 104}";
"interface.width-adjustments" = (
-16
);
};
},
{
color = 6;
glyphname = M;
kernLeft = B;
kernRight = H;
lastChange = "2022-07-22 10:10:35 +0000";
layers = (
{
anchors = (
{
name = bottom;
pos = (770,0);
},
{
name = right;
pos = (1480,0);
},
{
name = top;
pos = (1048,1676);
}
);
guides = (
{
angle = 90;
pos = (620,152);
},
{
angle = 90;
pos = (1488,2056);
},
{
angle = 90;
pos = (2904,2060);
}
);
layerId = "11F4534A-B963-4AB5-820F-DAF9A20CD933";
shapes = (
{
closed = 1;
nodes = (
(40,0,l),
(208,0,l),
(398,1132,l),
(412,1132,l),
(688,0,l),
(850,0,l),
(1506,1132,l),
(1520,1132,l),
(1330,0,l),
(1500,0,l),
(1746,1490,l),
(1532,1490,l),
(822,254,l),
(804,254,l),
(502,1490,l),
(286,1490,l)
);
}
);
width = 1725;
},
{
anchors = (
{
name = bottom;
pos = (838,0);
},
{
name = right;
pos = (1696,0);
},
{
name = top;
pos = (1116,1676);
}
);
guides = (
{
pos = (336,1220);
},
{
angle = 90;
pos = (2136,1848);
},
{
angle = 90;
pos = (1868,2164);
},
{
angle = 90;
pos = (2832,2040);
}
);
layerId = "D0EC06BF-13F9-4C88-A6F5-B8203AF6C77E";
shapes = (
{
closed = 1;
nodes = (
(-22,0,l),
(374,0,l),
(520,866,l),
(532,866,l),
(720,12,l),
(960,12,l),
(1430,862,l),
(1442,862,l),
(1300,0,l),
(1696,0,l),
(1942,1490,l),
(1440,1490,l),
(954,646,l),
(936,646,l),
(730,1490,l),
(226,1490,l)
);
}
);
width = 1861;
},
{
anchors = (
{
name = bottom;
pos = (792,0);
},
{
name = right;
pos = (1442,0);
},
{
name = top;
pos = (1070,1676);
}
);
layerId = "200BE2C5-40F6-4CF4-AF4F-A33C0CC0964F";
shapes = (
{
closed = 1;
nodes = (
(140,0,l),
(186,0,l),
(410,1344,l),
(416,1344,l),
(768,0,l),
(814,0,l),
(1614,1344,l),
(1620,1344,l),
(1396,0,l),
(1442,0,l),
(1690,1490,l),
(1650,1490,l),
(806,70,l),
(800,70,l),
(428,1490,l),
(386,1490,l)
);
}
);
width = 1767;
}
);
metricLeft = H;
metricRight = H;
unicode = 77;
userData = {
com.typemytype.robofont.guideline.magnetic.ezYETy42tZ = 5;
com.typemytype.robofont.guideline.magnetic.wu5HJlZVk6 = 5;
com.typemytype.robofont.guideline.magnetic.x5YoYrsuLC = 5;
"interface.width-adjustments" = (
-16
);
};
},
{
color = 6;
glyphname = N;
kernLeft = B;
kernRight = H;
lastChange = "2022-07-22 10:10:35 +0000";
layers = (
{
anchors = (
{
name = bottom;
pos = (698,0);
},
{
name = right;
pos = (1208,0);
},
{
name = top;
pos = (978,1676);
}
);
layerId = "200BE2C5-40F6-4CF4-AF4F-A33C0CC0964F";
shapes = (
{
closed = 1;
nodes = (
(1458,1490,l),
(1224,88,l),
(1218,88,l),
(434,1490,l),
(386,1490,l),
(140,0,l),
(186,0,l),
(418,1402,l),
(424,1402,l),
(1210,0,l),
(1256,0,l),
(1504,1490,l)
);
}
);
width = 1581;
},
{
anchors = (
{
name = bottom;
pos = (630,0);
},
{
name = right;
pos = (1218,0);
},
{
name = top;
pos = (910,1676);
}
);
guides = (
{
angle = -99.4;
pos = (708,284);
}
);
layerId = "11F4534A-B963-4AB5-820F-DAF9A20CD933";
shapes = (
{
closed = 1;
nodes = (
(1290,1490,l),
(1096,318,l),
(1080,318,l),
(462,1490,l),
(286,1490,l),
(40,0,l),
(220,0,l),
(414,1170,l),
(430,1170,l),
(1046,0,l),
(1220,0,l),
(1468,1490,l)
);
}
);
width = 1446;
},
{
anchors = (
{
name = bottom;
pos = (624,0);
},
{
name = right;
pos = (1338,0);
},
{
name = top;
pos = (904,1676);
}
);
guides = (
{
pos = (696,1652);
},
{
angle = -99.4;
pos = (616,240);
}
);
layerId = "D0EC06BF-13F9-4C88-A6F5-B8203AF6C77E";
shapes = (
{
closed = 1;
nodes = (
(1110,1490,l),
(982,710,l),
(970,710,l),
(570,1490,l),
(226,1490,l),
(-22,0,l),
(384,0,l),
(514,782,l),
(522,782,l),
(930,0,l),
(1268,0,l),
(1514,1490,l)
);
}
);
width = 1433;
}
);
metricLeft = H;
metricRight = H;
unicode = 78;
userData = {
"interface.width-adjustments" = (
-16
);
};
},
{
color = 3;
glyphname = Nhook;
kernLeft = jdotless;
kernRight = H;
lastChange = "2022-07-22 10:10:35 +0000";
layers = (
{
layerId = "11F4534A-B963-4AB5-820F-DAF9A20CD933";
shapes = (
{
closed = 1;
nodes = (
(80,-116,ls),
(58,-233,o),
(-14,-268,o),
(-110,-268,cs),
(-128,-268,o),
(-148,-265,o),
(-164,-262,c),
(-188,-410,l),
(-157,-417,o),
(-115,-422,o),
(-68,-422,cs),
(93,-422,o),
(215,-326,o),
(256,-120,cs),
(280,0,l),
(100,0,l)
);
},
{
pos = (60,0);
ref = N;
}
);
width = 1506;
},
{
layerId = "D0EC06BF-13F9-4C88-A6F5-B8203AF6C77E";
shapes = (
{
closed = 1;
nodes = (
(49,-34,ls),
(38,-103,o),
(-42,-116,o),
(-115,-116,c),
(-133,-116,o),
(-165,-119,o),
(-181,-116,c),
(-231,-414,l),
(-194,-419,o),
(-101,-419,o),
(-59,-418,c),
(150,-419,o),
(394,-388,o),
(453,-34,cs),
(459,0,l),
(55,0,l)
);
},
{
pos = (75,0);
ref = N;
}
);
width = 1508;
},
{
layerId = "200BE2C5-40F6-4CF4-AF4F-A33C0CC0964F";
shapes = (
{
closed = 1;
nodes = (
(60,-168,ls),
(36,-303,o),
(-25,-369,o),
(-132,-370,cs),
(-151,-369,o),
(-168,-367,o),
(-180,-364,c),
(-188,-410,l),
(-175,-414,o),
(-154,-416,o),
(-132,-416,cs),
(-1,-416,o),
(77,-334,o),
(106,-168,cs),
(134,0,l),
(88,0,l)
);
},
{
alignment = -1;
pos = (-52,0);
ref = N;
}
);
width = 1529;
}
);
metricLeft = j;
metricRight = H;
tags = (
"TODO-opsz"
);
unicode = 413;
userData = {
interface.gridadjust.original = "{'width': 2104, 'leftMargin': 0, 'rightMargin': 218}";
"interface.width-adjustments" = (
-16
);
};
},
{
color = 3;
glyphname = Eng;
kernLeft = B;
kernRight = H;
lastChange = "2022-07-22 10:10:35 +0000";
layers = (
{
layerId = "11F4534A-B963-4AB5-820F-DAF9A20CD933";
shapes = (
{
closed = 1;
nodes = (
(1022,-116,ls),
(999,-232,o),
(927,-268,o),
(834,-268,cs),
(813,-268,o),
(793,-265,o),
(778,-262,c),
(754,-410,l),
(779,-419,o),
(817,-419,o),
(850,-418,cs),
(1015,-419,o),
(1160,-310,o),
(1198,-120,cs),
(1220,0,l),
(1046,0,l)
);
},
{
ref = N;
}
);
width = 1446;
},
{
layerId = "D0EC06BF-13F9-4C88-A6F5-B8203AF6C77E";
shapes = (
{
closed = 1;
nodes = (
(928,-30,ls),
(913,-111,o),
(837,-160,o),
(730,-160,cs),
(680,-160,o),
(628,-154,o),
(590,-146,c),
(540,-436,l),
(578,-448,o),
(625,-457,o),
(660,-456,cs),
(991,-457,o),
(1216,-363,o),
(1264,-20,cs),
(1268,0,l),
(930,0,l,{
name = hr00;
})
);
},
{
ref = N;
}
);
width = 1433;
},
{
layerId = "200BE2C5-40F6-4CF4-AF4F-A33C0CC0964F";
shapes = (
{
closed = 1;
nodes = (
(1182,-168,ls),
(1158,-303,o),
(1097,-369,o),
(990,-370,cs),
(971,-369,o),
(954,-367,o),
(942,-364,c),
(934,-410,l),
(947,-414,o),
(968,-416,o),
(990,-416,cs),
(1121,-416,o),
(1199,-334,o),
(1228,-168,cs),
(1256,0,l),
(1210,0,l)
);
},
{
alignment = -1;
ref = N;
}
);
width = 1581;
}
);
metricLeft = N;
metricRight = N;
tags = (
"TODO-opsz"
);
unicode = 330;
userData = {
interface.gridadjust.original = "{'width': 1947.0, 'leftMargin': 217, 'rightMargin': 205.0}";
"interface.width-adjustments" = (
-16
);
};
},
{
color = 6;
glyphname = O;
kernLeft = C;
kernRight = D;
lastChange = "2022-07-22 10:10:35 +0000";
layers = (
{
anchors = (
{
name = bottom;
pos = (673,0);
},
{
name = ogonek;
pos = (707,0);
},
{
name = tonos;
pos = (376,1490);
},
{
name = top;
pos = (951,1676);
},
{
name = tophorn;
pos = (1297,1295);
}
);
layerId = "200BE2C5-40F6-4CF4-AF4F-A33C0CC0964F";
shapes = (
{
closed = 1;
nodes = (
(1036,-20,o),
(1337,289,o),
(1413,744,cs),
(1488,1200,o),
(1289,1510,o),
(923,1510,cs),
(555,1510,o),
(254,1199,o),
(179,744,cs),
(104,291,o),
(301,-20,o),
(670,-20,cs)
);
},
{
closed = 1;
nodes = (
(336,26,o),
(155,314,o),
(224,737,cs),
(295,1169,o),
(579,1464,o),
(923,1464,cs),
(1257,1464,o),
(1438,1175,o),
(1368,752,cs),
(1296,321,o),
(1013,26,o),
(670,26,cs)
);
}
);
width = 1530;
},
{
anchors = (
{
name = bottom;
pos = (640,0);
},
{
name = ogonek;
pos = (780,-6);
},
{
name = tonos;
pos = (304,1490);
},
{
name = top;
pos = (918,1676);
},
{
name = tophorn;
pos = (1222,1186);
}
);
layerId = "11F4534A-B963-4AB5-820F-DAF9A20CD933";
shapes = (
{
closed = 1;
nodes = (
(1023,-20,o),
(1342,267,o),
(1419,733,cs),
(1498,1210,o),
(1266,1510,o),
(880,1510,cs),
(504,1510,o),
(184,1222,o),
(106,755,cs),
(28,279,o),
(261,-20,o),
(648,-20,cs)
);
},
{
closed = 1;
nodes = (
(389,148,o),
(214,352,o),
(277,733,cs),
(342,1126,o),
(597,1342,o),
(873,1342,cs),
(1138,1342,o),
(1312,1138,o),
(1248,755,cs),
(1184,364,o),
(930,148,o),
(654,148,cs)
);
}
);
width = 1464;
},
{
anchors = (
{
name = bottom;
pos = (686,0);
},
{
name = bottom_dd;
pos = (1330,-408);
},
{
name = ogonek;
pos = (830,-6);
},
{
name = tonos;
pos = (440,1490);
},
{
name = top;
pos = (966,1676);
},
{
name = top0315;
pos = (1614,1600);
},
{
name = top_dd;
pos = (1614,1600);
}
);
associatedMasterId = "11F4534A-B963-4AB5-820F-DAF9A20CD933";
guides = (
{
angle = 90;
pos = (1512,1652);
}
);
layerId = "E11F9D15-1819-45F7-A1B9-2845A462DB74";
name = "Sep 11 18, 23:22";
shapes = (
{
closed = 1;
nodes = (
(1545,1216,o),
(1318,1510,o),
(936,1510,cs),
(556,1510,o),
(230,1216,o),
(154,744,c),
(76,273,o),
(303,-20,o),
(684,-20,cs),
(1065,-20,o),
(1391,273,o),
(1470,744,c)
);
},
{
closed = 1;
nodes = (
(1231,358,o),
(983,148,o),
(712,148,cs),
(442,148,o),
(265,358,o),
(328,744,c),
(393,1132,o),
(640,1341,o),
(910,1342,cs),
(1181,1341,o),
(1359,1132,o),
(1294,744,c)
);
}
);
width = 1560;
},
{
anchors = (
{
name = bottom;
pos = (697,0);
},
{
name = ogonek;
pos = (906,6);
},
{
name = tonos;
pos = (302,1490);
},
{
name = top;
pos = (975,1676);
},
{
name = tophorn;
pos = (1371,1056);
}
);
background = {
shapes = (
{
closed = 1;
nodes = (
(1649,1228,o),
(1367,1510,o),
(952,1510,cs),
(556,1510,o),
(204,1251,o),
(126,766,cs),
(41,259,o),
(323,-20,o),
(742,-20,cs),
(1135,-20,o),
(1484,233,o),
(1566,718,cs)
);
},
{
closed = 1;
nodes = (
(1111,489,o),
(969,332,o),
(756,332,cs),
(570,332,o),
(486,460,o),
(532,718,cs),
(576,995,o),
(721,1158,o),
(936,1158,cs),
(1126,1158,o),
(1199,1021,o),
(1158,766,cs)
);
}
);
};
guides = (
{
angle = 90;
pos = (3640,2104);
}
);
layerId = "D0EC06BF-13F9-4C88-A6F5-B8203AF6C77E";
shapes = (
{
closed = 1;
nodes = (
(1109,-20,o),
(1460,234,o),
(1540,718,cs),
(1625,1229,o),
(1342,1510,o),
(927,1510,cs),
(530,1510,o),
(181,1255,o),
(101,770,cs),
(17,263,o),
(297,-20,o),
(715,-20,cs)
);
},
{
closed = 1;
nodes = (
(542,332,o),
(466,464,o),
(508,718,cs),
(555,999,o),
(699,1158,o),
(910,1158,cs),
(1100,1158,o),
(1175,1025,o),
(1133,770,cs),
(1087,490,o),
(943,332,o),
(732,332,cs)
);
}
);
width = 1580;
},
{
anchors = (
{
name = bottom;
pos = (678,0);
},
{
name = bottom_dd;
pos = (1350,-408);
},
{
name = ogonek;
pos = (878,6);
},
{
name = tonos;
pos = (366,1490);
},
{
name = top;
pos = (940,1586);
},
{
name = top0315;
pos = (1696,1600);
},
{
name = top_dd;
pos = (1696,1600);
}
);
associatedMasterId = "D0EC06BF-13F9-4C88-A6F5-B8203AF6C77E";
guides = (
{
angle = 90;
pos = (1468,2104);
}
);
layerId = "62410FF8-B362-47DD-87E9-ADD04A63F2F4";
name = "Sep 14 18, 09:39";
shapes = (
{
closed = 1;
nodes = (
(1568,1239,o),
(1312,1510,o),
(928,1510,cs),
(541,1510,o),
(195,1239,o),
(110,742,c),
(29,247,o),
(288,-20,o),
(674,-20,cs),
(1059,-20,o),
(1402,244,o),
(1484,742,c)
);
},
{
closed = 1;
nodes = (
(1030,474,o),
(913,335,o),
(734,334,cs),
(550,335,o),
(477,474,o),
(520,742,c),
(567,1012,o),
(687,1155,o),
(870,1154,cs),
(1050,1155,o),
(1120,1012,o),
(1074,742,c)
);
}
);
width = 1536;
}
);
unicode = 79;
userData = {
com.typemytype.robofont.guideline.magnetic.GU6fgH972W = 5;
"interface.width-adjustments" = (
-16
);
};
},
{
color = 6;
glyphname = OI;
lastChange = "2022-07-22 10:10:35 +0000";
layers = (
{
background = {
shapes = (
{
closed = 1;
nodes = (
(1080,760,l),
(996,250,l),
(919,180,o),
(806,145,o),
(688,146,cs),
(404,145,o),
(293,342,o),
(350,678,cs),
(370,806,l),
(162,802,l),
(142,678,ls),
(71,249,o),
(257,-20,o),
(648,-20,cs),
(867,-20,o),
(1074,60,o),
(1186,198,c),
(1278,760,l,{
name = hr00;
})
);
},
{
closed = 1;
nodes = (
(1303,1424,o),
(1128,1510,o),
(920,1510,cs),
(519,1510,o),
(236,1249,o),
(164,812,cs),
(146,696,l),
(352,696,l),
(370,812,ls),
(428,1159,o),
(606,1341,o),
(888,1342,cs),
(1012,1341,o),
(1113,1301,o),
(1160,1236,c),
(1078,742,l),
(1276,742,l),
(1368,1292,l)
);
},
{
closed = 1;
nodes = (
(1588,1490,l),
(1290,1376,l),
(1262,1208,l),
(1510,1292,l),
(1230,-396,l),
(1432,-396,l),
(1742,1490,l)
);
}
);
};
layerId = "11F4534A-B963-4AB5-820F-DAF9A20CD933";
shapes = (
{
closed = 1;
nodes = (
(1032,760,l),
(948,250,l),
(871,180,o),
(758,145,o),
(640,146,cs),
(356,145,o),
(245,342,o),
(302,678,cs),
(322,806,l),
(114,802,l),
(94,678,ls),
(23,249,o),
(209,-20,o),
(600,-20,cs),
(819,-20,o),
(1026,60,o),
(1138,198,c),
(1230,760,l,{
name = hr00;
})
);
},
{
closed = 1;
nodes = (
(1255,1424,o),
(1080,1510,o),
(872,1510,cs),
(471,1510,o),
(188,1249,o),
(116,812,cs),
(98,696,l),
(304,696,l),
(322,812,ls),
(380,1159,o),
(558,1341,o),
(840,1342,cs),
(964,1341,o),
(1065,1301,o),
(1112,1236,c),
(1030,742,l),
(1228,742,l),
(1320,1292,l)
);
},
{
closed = 1;
nodes = (
(1540,1490,l),
(1242,1376,l),
(1214,1208,l),
(1462,1292,l),
(1178,-418,l),
(1378,-418,l),
(1694,1490,l)
);
}
);
width = 1674;
},
{
background = {
shapes = (
{
closed = 1;
nodes = (
(1070,966,l),
(964,340,l),
(925,317,o),
(851,291,o),
(756,290,cs),
(513,291,o),
(471,451,o),
(510,690,cs),
(526,776,l),
(126,774,l),
(112,690,ls),
(38,241,o),
(252,-20,o),
(690,-20,cs),
(988,-20,o),
(1220,96,o),
(1316,178,c),
(1448,966,l)
);
},
{
closed = 1;
nodes = (
(1436,1396,o),
(1244,1510,o),
(944,1510,cs),
(505,1510,o),
(205,1251,o),
(130,800,cs),
(114,698,l),
(512,696,l),
(530,800,ls),
(571,1053,o),
(652,1199,o),
(910,1198,cs),
(981,1199,o),
(1057,1187,o),
(1100,1152,c),
(996,530,l),
(1376,536,l),
(1504,1312,l)
);
},
{
closed = 1;
nodes = (
(1790,1490,l),
(1282,1266,l),
(1208,832,l),
(1618,1016,l),
(1384,-396,l),
(1758,-396,l),
(2068,1490,l)
);
}
);
};
layerId = "D0EC06BF-13F9-4C88-A6F5-B8203AF6C77E";
shapes = (
{
closed = 1;
nodes = (
(1046,966,l),
(940,340,l),
(901,317,o),
(827,291,o),
(732,290,cs),
(489,291,o),
(447,451,o),
(486,690,cs),
(502,776,l),
(102,774,l),
(88,690,ls),
(14,241,o),
(228,-20,o),
(666,-20,cs),
(964,-20,o),
(1196,96,o),
(1292,178,c),
(1424,966,l)
);
},
{
closed = 1;
nodes = (
(1412,1396,o),
(1220,1510,o),
(920,1510,cs),
(481,1510,o),
(181,1251,o),
(106,800,cs),
(90,698,l),
(488,696,l),
(506,800,ls),
(547,1053,o),
(628,1199,o),
(886,1198,cs),
(957,1199,o),
(1033,1187,o),
(1076,1152,c),
(972,530,l),
(1352,536,l),
(1480,1312,l)
);
},
{
closed = 1;
nodes = (
(1766,1490,l),
(1258,1266,l),
(1184,832,l),
(1594,1016,l),
(1356,-418,l),
(1728,-418,l),
(2044,1490,l)
);
}
);
width = 1966;
},
{
background = {
shapes = (
{
closed = 1;
nodes = (
(1118,786,l),
(1018,184,l),
(940,90,o),
(793,26,o),
(652,26,cs),
(345,26,o),
(151,287,o),
(214,672,cs),
(222,714,l),
(174,714,l),
(168,672,ls),
(100,269,o),
(319,-20,o),
(640,-20,cs),
(801,-20,o),
(961,51,o),
(1062,174,c),
(1164,786,l)
);
},
{
closed = 1;
nodes = (
(1181,1444,o),
(1048,1510,o),
(894,1510,cs),
(551,1510,o),
(256,1207,o),
(186,786,cs),
(172,702,l),
(218,702,l),
(232,786,ls),
(297,1175,o),
(577,1463,o),
(886,1464,cs),
(1024,1463,o),
(1148,1405,o),
(1202,1308,c),
(1098,670,l),
(1144,670,l),
(1254,1330,l)
);
},
{
closed = 1;
nodes = (
(1436,1490,l),
(1218,1338,l),
(1208,1278,l),
(1448,1446,l),
(1144,-396,l),
(1192,-396,l),
(1502,1490,l)
);
}
);
};
layerId = "200BE2C5-40F6-4CF4-AF4F-A33C0CC0964F";
shapes = (
{
closed = 1;
nodes = (
(1118,786,l),
(1018,184,l),
(940,90,o),
(793,26,o),
(652,26,cs),
(345,26,o),
(151,287,o),
(214,672,cs),
(222,714,l),
(174,714,l),
(168,672,ls),
(100,269,o),
(319,-20,o),
(640,-20,cs),
(801,-20,o),
(961,51,o),
(1062,174,c),
(1164,786,l)
);
},
{
closed = 1;
nodes = (
(1181,1444,o),
(1048,1510,o),
(894,1510,cs),
(551,1510,o),
(256,1207,o),
(186,786,cs),
(172,702,l),
(218,702,l),
(232,786,ls),
(297,1175,o),
(577,1463,o),
(886,1464,cs),
(1024,1463,o),
(1148,1405,o),
(1202,1308,c),
(1098,670,l),
(1144,670,l),
(1254,1330,l)
);
},
{
closed = 1;
nodes = (
(1436,1490,l),
(1218,1338,l),
(1208,1278,l),
(1448,1446,l),
(1140,-418,l),
(1186,-418,l),
(1502,1490,l)
);
}
);
width = 1582;
}
);
tags = (
"TODO-opsz"
);
unicode = 418;
userData = {
interface.gridadjust.original = "{'width': 2409.0, 'leftMargin': 161, 'rightMargin': 232.0}";
"interface.width-adjustments" = (
-16
);
};
},
{
color = 3;
glyphname = Oslash;
kernLeft = C;
kernRight = D;
lastChange = "2022-07-22 10:10:35 +0000";
layers = (
{
guides = (
{
angle = 145.6539;
pos = (300,-96);
},
{
angle = 90;
pos = (920,1852);
},
{
angle = 56.0077;
pos = (920,1024);
}
);
layerId = "11F4534A-B963-4AB5-820F-DAF9A20CD933";
shapes = (
{
pos = (0,-2);
ref = O;
},
{
closed = 1;
nodes = (
(1336,1472,l),
(1226,1548,l),
(190,14,l),
(302,-62,l)
);
}
);
width = 1465;
},
{
guides = (
{
angle = 90;
pos = (1276,1588);
},
{
pos = (1356,1024);
},
{
angle = 55.9722;
pos = (1088,1024);
}
);
layerId = "D0EC06BF-13F9-4C88-A6F5-B8203AF6C77E";
shapes = (
{
ref = O;
},
{
closed = 1;
nodes = (
(1564,1454,l),
(1418,1566,l),
(78,32,l),
(224,-78,l)
);
}
);
width = 1580;
},
{
layerId = "200BE2C5-40F6-4CF4-AF4F-A33C0CC0964F";
shapes = (
{
alignment = -1;
pos = (-1,-6);
ref = O;
},
{
closed = 1;
nodes = (
(1439,1498,l),
(1407,1524,l),
(147,-8,l),
(183,-34,l)
);
}
);
width = 1530;
}
);
metricLeft = O;
metricRight = O;
unicode = 216;
userData = {
com.typemytype.robofont.guideline.magnetic.7eFhkhwEhv = 5;
com.typemytype.robofont.guideline.magnetic.bDBaZ7HKjd = 5;
com.typemytype.robofont.guideline.magnetic.rquz9RFtyk = 5;
"interface.width-adjustments" = (
-16
);
};
},
{
color = 3;
glyphname = OE;
kernLeft = C;
kernRight = E;
lastChange = "2022-07-22 10:10:35 +0000";
layers = (
{
layerId = "11F4534A-B963-4AB5-820F-DAF9A20CD933";
shapes = (
{
pos = (725,0);
ref = E;
},
{
closed = 1;
nodes = (
(837,0,l),
(867,160,l),
(665,160,ls),
(376,160,o),
(221,396,o),
(279,744,cs),
(337,1097,o),
(570,1329,o),
(857,1330,cs),
(1059,1330,l),
(1085,1490,l),
(883,1490,ls),
(492,1489,o),
(178,1193,o),
(105,744,cs),
(30,300,o),
(245,0,o),
(637,0,cs)
);
}
);
width = 1853;
},
{
layerId = "D0EC06BF-13F9-4C88-A6F5-B8203AF6C77E";
shapes = (
{
pos = (900,0);
ref = E;
},
{
closed = 1;
nodes = (
(1030,0,l),
(1086,326,l),
(718,326,l),
(557,326,o),
(452,413,o),
(506,742,c),
(559,1068,o),
(693,1164,o),
(856,1164,c),
(1222,1164,l),
(1278,1490,l),
(910,1490,l),
(525,1489,o),
(178,1251,o),
(96,742,c),
(13,236,o),
(277,0,o),
(664,0,c)
);
}
);
width = 2126;
},
{
layerId = "200BE2C5-40F6-4CF4-AF4F-A33C0CC0964F";
shapes = (
{
alignment = -1;
pos = (691,0);
ref = E;
},
{
closed = 1;
nodes = (
(853,0,l),
(863,46,l),
(679,46,ls),
(329,47,o),
(154,324,o),
(225,744,cs),
(296,1161,o),
(573,1446,o),
(909,1442,cs),
(1091,1442,l),
(1101,1490,l),
(917,1490,ls),
(545,1489,o),
(253,1194,o),
(179,744,cs),
(106,303,o),
(304,0,o),
(671,0,cs)
);
}
);
width = 1887;
}
);
metricLeft = O;
metricRight = E;
note = "Mirrored D + E";
unicode = 338;
userData = {
interface.gridadjust.original = "{'width': 2698, 'leftMargin': 143, 'rightMargin': 191}";
"interface.width-adjustments" = (
-16
);
};
},
{
color = 6;
glyphname = P;
kernLeft = B;
kernRight = P;
lastChange = "2022-07-22 10:10:35 +0000";
layers = (
{
anchors = (
{
name = tonos;
pos = (344,1490);
},
{
name = top;
pos = (824,1676);
}
);
layerId = "200BE2C5-40F6-4CF4-AF4F-A33C0CC0964F";
shapes = (
{
closed = 1;
nodes = (
(186,0,l),
(424,1442,l),
(814,1442,ls),
(1039,1443,o),
(1169,1283,o),
(1132,1054,cs),
(1094,826,o),
(911,666,o),
(686,666,cs),
(274,666,l),
(264,620,l),
(678,620,ls),
(928,620,o),
(1137,800,o),
(1178,1054,cs),
(1222,1309,o),
(1073,1489,o),
(824,1490,cs),
(386,1490,l),
(140,0,l)
);
}
);
width = 1242;
},
{
anchors = (
{
name = tonos;
pos = (252,1490);
},
{
name = top;
pos = (786,1676);
}
);
guides = (
{
angle = 90;
pos = (2120,1760);
},
{
angle = 90;
pos = (2012,1804);
}
);
layerId = "11F4534A-B963-4AB5-820F-DAF9A20CD933";
shapes = (
{
closed = 1;
nodes = (
(220,0,l),
(440,1330,l),
(758,1330,l),
(999,1329,o),
(1069,1199,o),
(1040,1018,cs),
(1011,841,o),
(895,704,o),
(656,704,c),
(302,704,l),
(274,544,l),
(636,544,l),
(982,544,o),
(1174,756,o),
(1218,1018,cs),
(1261,1283,o),
(1139,1489,o),
(790,1490,c),
(286,1490,l),
(40,0,l)
);
}
);
width = 1202;
},
{
anchors = (
{
name = tonos;
pos = (206,1490);
},
{
name = top;
pos = (820,1676);
}
);
guides = (
{
pos = (348,1240);
},
{
pos = (-44,764);
},
{
pos = (604,1552);
},
{
pos = (1264,1372);
}
);
layerId = "D0EC06BF-13F9-4C88-A6F5-B8203AF6C77E";
shapes = (
{
closed = 1;
nodes = (
(384,0,l),
(578,1166,l),
(720,1166,ls),
(863,1167,o),
(933,1091,o),
(912,962,cs),
(892,835,o),
(796,756,o),
(650,756,cs),
(348,756,l),
(296,442,l),
(680,442,ls),
(1023,442,o),
(1282,640,o),
(1334,962,cs),
(1387,1280,o),
(1201,1489,o),
(870,1490,cs),
(226,1490,l),
(-22,0,l)
);
}
);
width = 1296;
}
);
metricLeft = H;
unicode = 80;
userData = {
com.typemytype.robofont.guideline.magnetic.fNIC4eKo9v = 5;
com.typemytype.robofont.guideline.magnetic.hdLF6WxJ6g = 5;
"interface.width-adjustments" = (
-16
);
};
},
{
color = 3;
glyphname = Phook;
kernLeft = B;
kernRight = P;
lastChange = "2022-07-22 10:10:35 +0000";
layers = (
{
layerId = "11F4534A-B963-4AB5-820F-DAF9A20CD933";
shapes = (
{
closed = 1;
nodes = (
(317,1150,ls),
(332,1242,o),
(362,1329,o),
(477,1330,cs),
(621,1330,l),
(647,1490,l),
(501,1490,ls),
(310,1489,o),
(179,1356,o),
(155,1192,cs),
(141,1094,l),
(309,1094,l)
);
},
{
pos = (311,0);
ref = P;
}
);
width = 1513;
},
{
layerId = "D0EC06BF-13F9-4C88-A6F5-B8203AF6C77E";
shapes = (
{
closed = 1;
nodes = (
(455,978,ls),
(469,1065,o),
(519,1167,o),
(645,1166,cs),
(909,1166,l,{
name = hr00;
}),
(961,1490,l),
(697,1490,ls),
(382,1489,o),
(158,1329,o),
(111,1048,cs),
(83,870,l),
(437,870,l)
);
},
{
pos = (493,0);
ref = P;
}
);
width = 1789;
},
{
layerId = "200BE2C5-40F6-4CF4-AF4F-A33C0CC0964F";
shapes = (
{
closed = 1;
nodes = (
(285,1254,ls),
(306,1378,o),
(350,1443,o),
(465,1442,cs),
(593,1442,l,{
name = hr00;
}),
(605,1490,l),
(471,1490,ls),
(332,1489,o),
(264,1407,o),
(243,1280,cs),
(235,1228,l),
(281,1228,l)
);
},
{
alignment = -1;
pos = (119,0);
ref = P;
}
);
width = 1361;
}
);
metricLeft = T;
metricRight = P;
note = "!post:RemoveOverlap";
tags = (
"TODO-opsz"
);
unicode = 420;
userData = {
interface.gridadjust.original = "{'width': 2072, 'leftMargin': 41, 'rightMargin': 158}";
"interface.width-adjustments" = (
-16
);
};
},
{
color = 6;
glyphname = Thorn;
kernLeft = B;
lastChange = "2022-07-22 10:10:35 +0000";
layers = (
{
layerId = "11F4534A-B963-4AB5-820F-DAF9A20CD933";
shapes = (
{
closed = 1;
nodes = (
(28,0,l),
(208,0,l),
(456,1490,l),
(274,1490,l)
);
},
{
closed = 1;
nodes = (
(280,1022,l),
(664,1022,ls),
(871,1021,o),
(970,919,o),
(942,750,cs),
(912,582,o),
(784,486,o),
(578,486,cs),
(194,486,l),
(168,326,l),
(552,326,ls),
(868,326,o),
(1075,518,o),
(1112,754,cs),
(1153,989,o),
(1008,1181,o),
(690,1182,cs),
(306,1182,l)
);
}
);
width = 1196;
},
{
guides = (
{
pos = (120,1240);
},
{
pos = (-36,764);
}
);
layerId = "D0EC06BF-13F9-4C88-A6F5-B8203AF6C77E";
shapes = (
{
closed = 1;
nodes = (
(-18,0,l),
(386,0,l),
(634,1490,l),
(230,1490,l)
);
},
{
closed = 1;
nodes = (
(326,940,l),
(714,940,ls),
(875,940,o),
(910,844,o),
(898,762,cs),
(884,684,o),
(817,591,o),
(656,590,cs),
(266,590,l),
(218,294,l),
(608,294,ls),
(994,294,o),
(1239,486,o),
(1286,766,cs),
(1332,1044,o),
(1151,1239,o),
(764,1240,cs),
(374,1240,l)
);
}
);
width = 1380;
},
{
layerId = "200BE2C5-40F6-4CF4-AF4F-A33C0CC0964F";
shapes = (
{
closed = 1;
nodes = (
(120,0,l),
(162,0,l),
(410,1490,l),
(366,1490,l)
);
},
{
closed = 1;
nodes = (
(318,1086,l),
(698,1086,ls),
(932,1085,o),
(1069,964,o),
(1030,744,cs),
(991,521,o),
(827,407,o),
(594,408,cs),
(212,408,l),
(200,360,l),
(582,360,ls),
(876,361,o),
(1041,519,o),
(1078,748,cs),
(1112,958,o),
(988,1132,o),
(710,1132,cs),
(328,1132,l)
);
}
);
width = 1210;
}
);
tags = (
"TODO-opsz"
);
unicode = 222;
userData = {
interface.gridadjust.original = "{'width': 1662, 'leftMargin': 224, 'rightMargin': 119}";
"interface.width-adjustments" = (
-16
);
};
},
{
color = 3;
glyphname = Q;
kernLeft = C;
kernRight = D;
lastChange = "2022-07-22 10:10:35 +0000";
layers = (
{
layerId = "11F4534A-B963-4AB5-820F-DAF9A20CD933";
shapes = (
{
closed = 1;
nodes = (
(900,134,l),
(942,78,l),
(1104,-140,l),
(1302,-140,l),
(1054,190,l),
(1010,248,l),
(846,466,l),
(648,466,l)
);
},
{
ref = O;
}
);
width = 1492;
},
{
guides = (
{
angle = 90;
pos = (1540,1432);
}
);
layerId = "D0EC06BF-13F9-4C88-A6F5-B8203AF6C77E";
shapes = (
{
closed = 1;
nodes = (
(810,268,l),
(904,96,l),
(1046,-110,l),
(1404,-110,l),
(1204,192,l),
(1050,410,l),
(960,552,l),
(646,552,l)
);
},
{
ref = O;
}
);
width = 1581;
},
{
layerId = "200BE2C5-40F6-4CF4-AF4F-A33C0CC0964F";
shapes = (
{
closed = 1;
nodes = (
(1018,122,l),
(1026,110,l),
(1216,-140,l),
(1274,-140,l),
(1068,134,l),
(1058,146,l),
(818,466,l),
(760,466,l)
);
},
{
alignment = -1;
ref = O;
}
);
width = 1538;
}
);
metricLeft = O;
metricRight = O;
unicode = 81;
userData = {
"interface.width-adjustments" = (
-16
);
};
},
{
color = 6;
glyphname = Q_rthook;
kernLeft = O;
kernRight = rthook;
lastChange = "2022-07-22 10:10:35 +0000";
layers = (
{
layerId = "11F4534A-B963-4AB5-820F-DAF9A20CD933";
shapes = (
{
closed = 1;
nodes = (
(1320,1490,l),
(1282,1260,l),
(1264,1260,l),
(1216,1417,o),
(1066,1510,o),
(862,1510,cs),
(487,1510,o),
(178,1193,o),
(106,750,cs),
(30,294,o),
(236,-23,o),
(610,-24,cs),
(809,-23,o),
(991,70,o),
(1092,236,c),
(1104,236,l),
(1046,-120,ls),
(1015,-311,o),
(1125,-419,o),
(1288,-418,cs),
(1323,-419,o),
(1361,-419,o),
(1390,-410,c),
(1412,-264,l),
(1397,-268,o),
(1376,-271,o),
(1358,-270,cs),
(1263,-271,o),
(1199,-236,o),
(1218,-120,cs),
(1486,1490,l)
);
},
{
closed = 1;
nodes = (
(372,148,o),
(221,378,o),
(284,748,cs),
(340,1094,o),
(561,1347,o),
(840,1346,cs),
(1155,1347,o),
(1236,1082,o),
(1194,748,cs),
(1128,412,o),
(974,148,o),
(636,148,cs)
);
}
);
width = 1502;
},
{
guides = (
{
pos = (229,1024);
}
);
layerId = "D0EC06BF-13F9-4C88-A6F5-B8203AF6C77E";
shapes = (
{
closed = 1;
nodes = (
(1255,1490,l),
(1219,1280,l),
(1207,1280,l),
(1155,1401,o),
(1045,1510,o),
(843,1510,cs),
(496,1510,o),
(168,1169,o),
(97,744,cs),
(27,323,o),
(234,-20,o),
(591,-20,cs),
(790,-20,o),
(938,87,o),
(1031,210,c),
(1041,210,l),
(1001,-34,ls),
(946,-364,o),
(1136,-419,o),
(1379,-418,cs),
(1473,-419,o),
(1538,-410,o),
(1583,-408,c),
(1633,-110,l),
(1599,-113,o),
(1569,-116,o),
(1539,-116,cs),
(1467,-116,o),
(1392,-102,o),
(1403,-34,cs),
(1655,1490,l)
);
},
{
closed = 1;
nodes = (
(552,332,o),
(469,477,o),
(513,744,cs),
(557,1012,o),
(689,1158,o),
(891,1158,cs),
(1090,1158,o),
(1174,1012,o),
(1129,744,cs),
(1085,477,o),
(954,332,o),
(753,332,cs)
);
}
);
width = 1719;
},
{
layerId = "200BE2C5-40F6-4CF4-AF4F-A33C0CC0964F";
shapes = (
{
closed = 1;
nodes = (
(1401,1490,l),
(1333,1080,l),
(1329,1080,l),
(1294,1356,o),
(1149,1510,o),
(909,1510,cs),
(557,1510,o),
(256,1200,o),
(179,744,cs),
(105,285,o),
(301,-20,o),
(655,-20,cs),
(893,-20,o),
(1088,129,o),
(1213,396,c),
(1219,396,l),
(1119,-206,l),
(1094,-345,o),
(1147,-416,o),
(1273,-416,cs),
(1297,-416,o),
(1317,-414,o),
(1341,-408,c),
(1347,-362,l),
(1328,-367,o),
(1308,-369,o),
(1283,-370,cs),
(1173,-369,o),
(1145,-327,o),
(1167,-198,c),
(1447,1490,l)
);
},
{
closed = 1;
nodes = (
(328,26,o),
(153,311,o),
(225,744,cs),
(299,1170,o),
(581,1463,o),
(899,1464,cs),
(1210,1463,o),
(1351,1185,o),
(1279,744,cs),
(1207,313,o),
(962,26,o),
(653,26,cs)
);
}
);
width = 1531;
}
);
metricLeft = O;
note = "Composed by O and a vertical stem with tail";
tags = (
"TODO-opsz"
);
unicode = 586;
userData = {
interface.gridadjust.original = "{'width': 1998, 'leftMargin': 161, 'rightMargin': 14}";
"interface.width-adjustments" = (
-16
);
};
},
{
color = 6;
glyphname = R;
kernLeft = B;
kernRight = R;
lastChange = "2022-07-22 10:10:35 +0000";
layers = (
{
anchors = (
{
name = bottom;
pos = (552,0);
},
{
name = top;
pos = (812,1676);
}
);
layerId = "200BE2C5-40F6-4CF4-AF4F-A33C0CC0964F";
shapes = (
{
closed = 1;
nodes = (
(186,0,l),
(424,1442,l),
(814,1442,ls),
(1039,1443,o),
(1172,1295,o),
(1134,1064,cs),
(1097,838,o),
(913,689,o),
(690,690,cs),
(276,690,l),
(270,642,l),
(684,642,ls),
(934,643,o),
(1137,812,o),
(1182,1064,cs),
(1222,1321,o),
(1073,1489,o),
(824,1490,cs),
(386,1490,l),
(140,0,l)
);
},
{
closed = 1;
nodes = (
(1074,0,l),
(820,678,l),
(770,678,l),
(1024,0,l)
);
}
);
width = 1260;
},
{
anchors = (
{
name = bottom;
pos = (530,0);
},
{
name = top;
pos = (784,1676);
}
);
guides = (
{
angle = -99.4;
pos = (1464,2112);
}
);
layerId = "11F4534A-B963-4AB5-820F-DAF9A20CD933";
shapes = (
{
closed = 1;
nodes = (
(220,0,l),
(440,1330,l),
(758,1330,ls),
(999,1329,o),
(1072,1213,o),
(1042,1032,cs),
(1014,855,o),
(903,745,o),
(664,744,cs),
(264,744,l),
(234,582,l),
(642,582,ls),
(988,582,o),
(1177,771,o),
(1220,1032,cs),
(1264,1297,o),
(1139,1489,o),
(790,1490,cs),
(286,1490,l),
(40,0,l)
);
},
{
closed = 1;
nodes = (
(1106,0,l),
(850,670,l),
(648,670,l),
(898,0,l)
);
}
);
width = 1214;
},
{
anchors = (
{
name = bottom;
pos = (582,0);
},
{
name = top;
pos = (838,1676);
}
);
guides = (
{
pos = (872,1552);
},
{
angle = 90;
pos = (504,0);
},
{
orientation = center;
angle = 90;
pos = (-1204,220);
}
);
layerId = "D0EC06BF-13F9-4C88-A6F5-B8203AF6C77E";
shapes = (
{
closed = 1;
nodes = (
(384,0,l),
(578,1166,l),
(720,1166,ls),
(860,1167,o),
(936,1111,o),
(916,984,cs),
(895,855,o),
(802,806,o),
(660,806,cs),
(358,806,l),
(304,492,l),
(688,492,ls),
(1029,492,o),
(1285,663,o),
(1338,984,cs),
(1390,1300,o),
(1201,1489,o),
(870,1490,cs),
(226,1490,l),
(-22,0,l)
);
},
{
closed = 1;
nodes = (
(1224,0,l),
(966,684,l),
(534,684,l),
(784,0,l)
);
}
);
width = 1340;
}
);
metricLeft = H;
unicode = 82;
userData = {
com.typemytype.robofont.guideline.magnetic.vulxOItvKZ = 5;
"interface.width-adjustments" = (
-16
);
};
},
{
color = 6;
glyphname = S;
kernLeft = S;
kernRight = S;
lastChange = "2022-07-22 10:10:35 +0000";
layers = (
{
anchors = (
{
name = bottom;
pos = (532,-24);
},
{
name = cedilla;
pos = (536,0);
},
{
name = top;
pos = (814,1676);
}
);
layerId = "200BE2C5-40F6-4CF4-AF4F-A33C0CC0964F";
shapes = (
{
closed = 1;
nodes = (
(820,-23,o),
(1028,137,o),
(1068,378,cs),
(1098,562,o),
(999,677,o),
(754,756,cs),
(594,808,ls),
(391,874,o),
(306,978,o),
(332,1128,cs),
(364,1323,o),
(559,1466,o),
(786,1466,cs),
(1017,1466,o),
(1141,1321,o),
(1122,1118,c),
(1170,1118,l),
(1192,1347,o),
(1047,1513,o),
(792,1512,cs),
(533,1513,o),
(322,1354,o),
(286,1128,cs),
(257,957,o),
(351,836,o),
(574,766,cs),
(736,712,ls),
(964,639,o),
(1047,538,o),
(1022,378,cs),
(986,169,o),
(792,23,o),
(536,24,cs),
(289,23,o),
(151,156,o),
(168,350,c),
(122,350,l),
(100,130,o),
(255,-23,o),
(526,-24,cs)
);
}
);
width = 1254;
},
{
anchors = (
{
name = bottom;
pos = (510,-26);
},
{
name = cedilla;
pos = (516,0);
},
{
name = top;
pos = (790,1676);
}
);
guides = (
{
pos = (-156,528);
},
{
orientation = center;
angle = 90;
pos = (-478,-72);
}
);
layerId = "11F4534A-B963-4AB5-820F-DAF9A20CD933";
shapes = (
{
closed = 1;
nodes = (
(851,-26,o),
(1075,163,o),
(1116,404,cs),
(1162,684,o),
(912,774,o),
(766,814,cs),
(622,856,ls),
(516,884,o),
(348,943,o),
(374,1102,cs),
(397,1245,o),
(545,1350,o),
(744,1350,cs),
(924,1350,o),
(1037,1265,o),
(1038,1106,c),
(1212,1106,l),
(1238,1341,o),
(1063,1510,o),
(776,1510,cs),
(490,1510,o),
(240,1344,o),
(196,1094,cs),
(164,893,o),
(289,774,o),
(510,706,cs),
(686,654,ls),
(836,611,o),
(967,556,o),
(942,408,cs),
(915,244,o),
(740,137,o),
(534,136,cs),
(356,137,o),
(211,215,o),
(226,384,c),
(40,384,l),
(16,140,o),
(188,-26,o),
(508,-26,cs)
);
}
);
width = 1210;
},
{
anchors = (
{
name = bottom;
pos = (572,0);
},
{
name = cedilla;
pos = (570,0);
},
{
name = top;
pos = (846,1676);
}
);
guides = (
{
pos = (-48,764);
},
{
pos = (1516,1552);
},
{
angle = -99.4;
pos = (592,-132);
}
);
layerId = "D0EC06BF-13F9-4C88-A6F5-B8203AF6C77E";
shapes = (
{
closed = 1;
nodes = (
(959,-17,o),
(1212,145,o),
(1262,440,cs),
(1300,666,o),
(1189,826,o),
(872,896,cs),
(756,922,ls),
(619,951,o),
(561,995,o),
(578,1064,cs),
(590,1132,o),
(651,1178,o),
(776,1178,cs),
(907,1178,o),
(959,1120,o),
(950,1024,c),
(1338,1024,l),
(1387,1318,o),
(1192,1510,o),
(832,1510,cs),
(476,1510,o),
(197,1321,o),
(150,1036,cs),
(113,803,o),
(252,675,o),
(506,616,cs),
(648,584,ls),
(808,550,o),
(860,506,o),
(848,440,cs,{
name = hr00;
}),
(837,367,o),
(761,314,o),
(630,314,cs),
(476,314,o),
(395,387,o),
(412,524,c),
(28,524,l),
(-33,151,o),
(194,-17,o),
(582,-18,cs)
);
}
);
width = 1316;
},
{
anchors = (
{
name = bottom;
pos = (610,12);
},
{
name = bottom_dd;
pos = (1210,-408);
},
{
name = top;
pos = (850,1586);
},
{
name = top0315;
pos = (1542,1600);
},
{
name = top_dd;
pos = (1542,1600);
}
);
associatedMasterId = "D0EC06BF-13F9-4C88-A6F5-B8203AF6C77E";
guides = (
{
pos = (500,2280);
},
{
pos = (0,764);
},
{
pos = (260,1552);
},
{
orientation = center;
angle = 90;
pos = (864,-132);
}
);
layerId = "18B59461-478D-4DF5-86A0-7D050CD23FB5";
name = "Sep 14 18, 09:56";
shapes = (
{
closed = 1;
nodes = (
(1346,1024,l),
(1402,1324,o),
(1193,1510,o),
(846,1510,cs),
(500,1510,o),
(224,1338,o),
(184,1090,c),
(145,858,o),
(337,719,o),
(576,634,cs),
(562,640,ls),
(637,614,o),
(876,550,o),
(852,418,cs,{
name = hr00;
}),
(847,375,o),
(791,308,o),
(642,308,cs),
(483,308,o),
(410,387,o),
(428,524,c),
(44,524,l),
(-29,128,o),
(279,-17,o),
(594,-18,cs),
(916,-17,o),
(1190,128,o),
(1240,424,c),
(1277,652,o),
(1164,803,o),
(846,914,cs),
(838,916,ls),
(663,977,o),
(564,1015,o),
(576,1082,c),
(585,1143,o),
(678,1178,o),
(794,1178,cs),
(934,1178,o),
(983,1114,o),
(966,1024,c)
);
}
);
width = 1356;
}
);
note = "recipe: use stroke + offset curve filter with 32, no autostroke";
unicode = 83;
userData = {
com.typemytype.robofont.guideline.magnetic.yXeOBXqbc8 = 5;
"interface.width-adjustments" = (
-16
);
};
},
{
color = 6;
glyphname = Germandbls;
kernLeft = B;
kernRight = S;
lastChange = "2022-07-22 10:10:35 +0000";
layers = (
{
layerId = "11F4534A-B963-4AB5-820F-DAF9A20CD933";
shapes = (
{
closed = 1;
nodes = (
(219,0,l),
(385,990,ls),
(414,1175,o),
(501,1350,o),
(727,1350,cs),
(850,1350,o),
(920,1300,o),
(977,1256,c),
(615,852,l),
(589,696,l),
(733,696,ls),
(794,695,o),
(1053,695,o),
(1007,422,cs),
(979,247,o),
(854,140,o),
(663,140,cs),
(568,140,o),
(500,166,o),
(449,190,c),
(365,30,l),
(454,-6,o),
(544,-20,o),
(635,-20,cs),
(926,-20,o),
(1160,134,o),
(1207,418,cs),
(1250,675,o),
(1107,832,o),
(815,850,c),
(1217,1286,l),
(1104,1408,o),
(964,1510,o),
(745,1510,cs),
(443,1510,o),
(260,1335,o),
(205,990,cs),
(39,0,l)
);
}
);
width = 1298;
},
{
guides = (
{
pos = (844,2092);
}
);
layerId = "D0EC06BF-13F9-4C88-A6F5-B8203AF6C77E";
shapes = (
{
closed = 1;
nodes = (
(384,0,l),
(546,974,ls),
(569,1117,o),
(648,1201,o),
(752,1202,cs),
(852,1201,o),
(951,1167,o),
(1008,1112,c),
(712,864,l),
(678,654,l),
(808,654,ls),
(971,655,o),
(1058,573,o),
(1034,440,cs),
(1020,343,o),
(930,285,o),
(800,286,cs),
(738,285,o),
(657,303,o),
(590,332,c),
(438,46,l),
(523,9,o),
(665,-20,o),
(788,-20,cs),
(1111,-20,o),
(1369,172,o),
(1414,440,cs),
(1448,652,o),
(1323,829,o),
(1110,872,c),
(1500,1230,l),
(1308,1393,o),
(1017,1510,o),
(802,1510,cs),
(468,1510,o),
(194,1289,o),
(142,974,cs),
(-22,0,l)
);
}
);
width = 1468;
},
{
layerId = "200BE2C5-40F6-4CF4-AF4F-A33C0CC0964F";
shapes = (
{
closed = 1;
nodes = (
(187,0,l),
(369,1108,ls),
(406,1329,o),
(550,1463,o),
(753,1464,cs),
(867,1463,o),
(979,1416,o),
(1061,1334,c),
(605,806,l),
(597,760,l),
(619,760,ls),
(931,759,o),
(1062,645,o),
(1021,408,cs),
(984,187,o),
(815,47,o),
(587,46,cs),
(523,47,o),
(462,56,o),
(415,76,c),
(395,34,l),
(441,12,o),
(499,0,o),
(567,0,cs),
(843,0,o),
(1026,151,o),
(1069,414,cs),
(1110,662,o),
(961,801,o),
(657,802,c),
(1119,1336,l),
(1042,1444,o),
(910,1510,o),
(767,1510,cs),
(528,1510,o),
(368,1368,o),
(327,1120,cs),
(139,0,l)
);
}
);
width = 1249;
}
);
metricLeft = B;
metricRight = S;
tags = (
"TODO-opsz"
);
unicode = 7838;
userData = {
interface.gridadjust.original = "{'width': 1819, 'leftMargin': 188, 'rightMargin': 122}";
"interface.width-adjustments" = (
-16
);
};
},
{
color = 6;
glyphname = T;
kernLeft = T;
kernRight = T;
lastChange = "2022-07-22 10:10:35 +0000";
layers = (
{
anchors = (
{
name = bottom;
pos = (516,0);
},
{
name = cedilla;
pos = (536,0);
},
{
name = cross;
pos = (644,768);
},
{
name = cyrtic;
pos = (700,64);
},
{
name = right;
pos = (558,0);
},
{
name = top;
pos = (796,1676);
}
);
guides = (
{
angle = -99.4;
pos = (708,176);
}
);
layerId = "11F4534A-B963-4AB5-820F-DAF9A20CD933";
shapes = (
{
closed = 1;
nodes = (
(648,1330,l),
(426,0,l),
(606,0,l),
(828,1330,l),
(1296,1330,l),
(1322,1490,l),
(206,1490,l),
(178,1330,l)
);
}
);
width = 1218;
},
{
anchors = (
{
name = bottom;
pos = (584,0);
},
{
name = cedilla;
pos = (578,0);
},
{
name = cross;
pos = (694,666);
},
{
name = cyrtic;
pos = (986,162);
},
{
name = right;
pos = (738,0);
},
{
name = top;
pos = (866,1676);
}
);
guides = (
{
angle = -99.4;
pos = (950,960);
}
);
layerId = "D0EC06BF-13F9-4C88-A6F5-B8203AF6C77E";
shapes = (
{
closed = 1;
nodes = (
(578,1164,l),
(386,0,l),
(784,0,l),
(976,1164,l),
(1424,1164,l),
(1480,1490,l),
(186,1490,l),
(130,1164,l)
);
}
);
width = 1358;
},
{
anchors = (
{
name = bottom;
pos = (536,0);
},
{
name = cedilla;
pos = (534,-6);
},
{
name = cross;
pos = (664,768);
},
{
name = cyrtic;
pos = (580,6);
},
{
name = right;
pos = (546,0);
},
{
name = top;
pos = (814,1676);
}
);
layerId = "200BE2C5-40F6-4CF4-AF4F-A33C0CC0964F";
shapes = (
{
closed = 1;
nodes = (
(750,1442,l),
(512,0,l),
(558,0,l),
(798,1442,l),
(1278,1442,l),
(1286,1490,l),
(280,1490,l),
(270,1442,l)
);
}
);
width = 1256;
}
);
unicode = 84;
userData = {
"interface.width-adjustments" = (
-16
);
};
},
{
color = 6;
glyphname = Thook;
kernLeft = T;
kernRight = T;
lastChange = "2022-07-22 10:10:35 +0000";
layers = (
{
layerId = "11F4534A-B963-4AB5-820F-DAF9A20CD933";
shapes = (
{
closed = 1;
nodes = (
(501,1490,ls),
(317,1489,o),
(183,1370,o),
(155,1196,cs),
(141,1108,l),
(303,1108,l),
(311,1164,ls),
(326,1248,o),
(372,1329,o),
(475,1330,cs),
(817,1330,l),
(845,1490,l)
);
},
{
closed = 1;
nodes = (
(611,1490,l),
(585,1330,l),
(727,1330,l),
(507,0,l),
(687,0,l),
(909,1330,l),
(1377,1330,l),
(1403,1490,l)
);
}
);
width = 1299;
},
{
layerId = "D0EC06BF-13F9-4C88-A6F5-B8203AF6C77E";
shapes = (
{
closed = 1;
nodes = (
(668,1490,ls),
(348,1489,o),
(159,1324,o),
(112,1044,cs),
(80,864,l),
(406,864,l),
(426,972,ls),
(441,1065,o),
(482,1164,o),
(614,1164,cs),
(840,1164,l),
(896,1490,l)
);
},
{
closed = 1;
nodes = (
(686,1490,l),
(630,1164,l),
(642,1164,l),
(450,0,l),
(848,0,l),
(1040,1164,l),
(1488,1164,l),
(1544,1490,l)
);
}
);
width = 1422;
},
{
layerId = "200BE2C5-40F6-4CF4-AF4F-A33C0CC0964F";
shapes = (
{
closed = 1;
nodes = (
(471,1490,ls),
(333,1489,o),
(265,1407,o),
(243,1280,cs),
(235,1228,l),
(281,1228,l),
(287,1254,ls),
(306,1378,o),
(350,1443,o),
(465,1442,cs),
(593,1442,l,{
name = hr00;
}),
(605,1490,l)
);
},
{
closed = 1;
nodes = (
(521,1490,l),
(513,1442,l),
(847,1442,l),
(609,0,l),
(655,0,l),
(895,1442,l),
(1375,1442,l),
(1383,1490,l)
);
}
);
width = 1353;
}
);
metricLeft = T;
metricRight = T;
note = "!post:RemoveOverlap";
tags = (
"TODO-opsz"
);
unicode = 428;
userData = {
interface.gridadjust.original = "{'width': 1772, 'leftMargin': 41, 'rightMargin': 63}";
"interface.width-adjustments" = (
-16
);
};
},
{
color = 3;
glyphname = Tonefive;
lastChange = "2022-07-22 10:10:35 +0000";
layers = (
{
layerId = "11F4534A-B963-4AB5-820F-DAF9A20CD933";
shapes = (
{
closed = 1;
nodes = (
(176,1490,l),
(146,1330,l),
(470,1330,l),
(498,1490,l,{
name = hr00;
})
);
},
{
ref = five;
}
);
width = 1126;
},
{
layerId = "D0EC06BF-13F9-4C88-A6F5-B8203AF6C77E";
shapes = (
{
closed = 1;
nodes = (
(206,1490,l),
(154,1166,l),
(476,1166,l),
(528,1490,l)
);
},
{
pos = (58,0);
ref = five;
}
);
width = 1308;
},
{
layerId = "200BE2C5-40F6-4CF4-AF4F-A33C0CC0964F";
shapes = (
{
closed = 1;
nodes = (
(222,1490,l),
(212,1442,l),
(448,1442,l),
(462,1490,l)
);
},
{
alignment = -1;
pos = (-34,0);
ref = five;
}
);
width = 1142;
}
);
tags = (
"TODO-opsz"
);
unicode = 444;
userData = {
interface.gridadjust.original = "{'width': 1587, 'leftMargin': 89, 'rightMargin': 43}";
"interface.width-adjustments" = (
-16
);
};
},
{
color = 6;
glyphname = Tonesix;
lastChange = "2022-07-22 10:10:35 +0000";
layers = (
{
layerId = "11F4534A-B963-4AB5-820F-DAF9A20CD933";
shapes = (
{
closed = 1;
nodes = (
(126,1490,l),
(100,1330,l),
(630,1330,l),
(656,1490,l)
);
},
{
closed = 1;
nodes = (
(478,704,l),
(904,704,l),
(1107,704,o),
(1200,585,o),
(1176,442,c),
(1153,297,o),
(1017,157,o),
(814,158,c),
(434,158,l),
(656,1490,l),
(476,1490,l),
(228,0,l),
(786,0,l),
(1107,0,o),
(1311,180,o),
(1354,440,c),
(1398,698,o),
(1249,864,o),
(930,864,c),
(504,864,l)
);
}
);
width = 1368;
},
{
layerId = "D0EC06BF-13F9-4C88-A6F5-B8203AF6C77E";
shapes = (
{
closed = 1;
nodes = (
(160,1490,l),
(104,1164,l),
(788,1164,l),
(842,1490,l)
);
},
{
closed = 1;
nodes = (
(640,680,l),
(948,680,l),
(1092,681,o),
(1159,605,o),
(1142,504,c),
(1124,396,o),
(1031,317,o),
(886,318,c),
(736,318,l),
(930,1490,l),
(526,1490,l),
(278,0,l),
(834,0,l),
(1209,0,o),
(1494,204,o),
(1544,500,c),
(1593,797,o),
(1375,989,o),
(1000,990,c),
(692,990,l)
);
}
);
width = 1654;
},
{
layerId = "200BE2C5-40F6-4CF4-AF4F-A33C0CC0964F";
shapes = (
{
closed = 1;
nodes = (
(172,1490,l),
(162,1442,l),
(542,1442,l),
(540,1490,l)
);
},
{
closed = 1;
nodes = (
(408,730,l),
(940,730,ls),
(1164,730,o),
(1287,602,o),
(1254,398,cs),
(1216,180,o),
(1059,47,o),
(828,46,cs),
(316,46,l),
(552,1490,l),
(508,1490,l),
(260,0,l),
(818,0,ls),
(1084,0,o),
(1259,147,o),
(1300,396,cs),
(1337,624,o),
(1191,777,o),
(948,776,cs),
(416,776,l)
);
}
);
width = 1290;
}
);
tags = (
"TODO-opsz"
);
unicode = 388;
userData = {
interface.gridadjust.original = "{'width': 1917, 'leftMargin': 136, 'rightMargin': 157}";
"interface.width-adjustments" = (
-16
);
};
},
{
color = 6;
glyphname = Tonetwo;
kernLeft = S;
kernRight = B;
lastChange = "2022-07-22 10:10:35 +0000";
layers = (
{
anchors = (
{
name = bottom;
pos = (507,-26);
},
{
name = cedilla;
pos = (511,0);
},
{
name = top;
pos = (791,1676);
}
);
layerId = "11F4534A-B963-4AB5-820F-DAF9A20CD933";
shapes = (
{
closed = 1;
nodes = (
(398,1264,o),
(548,1350,o),
(729,1350,cs),
(926,1350,o),
(1040,1245,o),
(1015,1102,cs),
(990,943,o),
(803,884,o),
(687,856,cs),
(529,814,ls),
(368,774,o),
(88,684,o),
(43,404,cs),
(3,163,o),
(166,-26,o),
(509,-26,cs),
(830,-26,o),
(1055,140,o),
(1113,384,c),
(927,384,l),
(884,215,o),
(714,137,o),
(535,136,cs),
(330,137,o),
(190,244,o),
(217,408,cs),
(242,556,o),
(391,611,o),
(555,654,cs),
(747,706,ls),
(991,774,o),
(1156,893,o),
(1189,1094,cs),
(1231,1344,o),
(1035,1510,o),
(749,1510,cs),
(462,1510,o),
(226,1342,o),
(181,1118,c),
(355,1118,l)
);
}
);
width = 1210;
},
{
anchors = (
{
name = bottom;
pos = (558,0);
},
{
name = cedilla;
pos = (560,0);
},
{
name = top;
pos = (840,1676);
}
);
layerId = "D0EC06BF-13F9-4C88-A6F5-B8203AF6C77E";
shapes = (
{
closed = 1;
nodes = (
(541,1121,o),
(613,1178,o),
(744,1178,cs),
(869,1178,o),
(915,1130,o),
(904,1064,cs),
(897,993,o),
(827,952,o),
(680,922,cs),
(554,896,ls),
(214,825,o),
(53,666,o),
(14,440,cs),
(-34,145,o),
(165,-17,o),
(542,-18,cs),
(931,-17,o),
(1212,150,o),
(1276,524,c),
(892,524,l),
(862,387,o),
(758,314,o),
(604,314,cs),
(474,314,o),
(415,366,o),
(426,440,cs,{
name = hr00;
}),
(439,507,o),
(503,548,o),
(674,584,cs),
(828,616,ls),
(1101,673,o),
(1285,803,o),
(1322,1036,cs),
(1371,1319,o),
(1153,1510,o),
(798,1510,cs),
(438,1510,o),
(181,1316,o),
(130,1024,c),
(516,1024,l)
);
}
);
width = 1316;
},
{
anchors = (
{
name = bottom;
pos = (529,-24);
},
{
name = cedilla;
pos = (533,0);
},
{
name = top;
pos = (811,1676);
}
);
layerId = "200BE2C5-40F6-4CF4-AF4F-A33C0CC0964F";
shapes = (
{
closed = 1;
nodes = (
(364,1321,o),
(539,1466,o),
(769,1466,cs),
(998,1466,o),
(1142,1324,o),
(1109,1128,cs),
(1084,977,o),
(967,874,o),
(743,808,cs),
(565,756,ls),
(294,677,o),
(158,561,o),
(127,378,cs),
(88,145,o),
(253,-23,o),
(535,-24,cs),
(807,-23,o),
(1011,130,o),
(1063,350,c),
(1015,350,l),
(968,156,o),
(788,23,o),
(543,24,cs),
(286,23,o),
(139,167,o),
(173,378,cs),
(200,538,o),
(315,635,o),
(569,710,cs),
(747,762,ls),
(992,836,o),
(1128,956,o),
(1155,1128,cs),
(1192,1348,o),
(1032,1513,o),
(777,1512,cs),
(522,1513,o),
(322,1347,o),
(269,1118,c),
(317,1118,l)
);
}
);
width = 1254;
}
);
metricLeft = S;
metricRight = S;
tags = (
"TODO-opsz"
);
unicode = 423;
userData = {
interface.gridadjust.original = "{'width': 1672.0, 'leftMargin': 105, 'rightMargin': 109.0}";
"interface.width-adjustments" = (
-16
);
};
},
{
color = 3;
glyphname = Trthook;
kernLeft = T;
kernRight = T;
lastChange = "2022-07-22 10:10:35 +0000";
layers = (
{
layerId = "11F4534A-B963-4AB5-820F-DAF9A20CD933";
shapes = (
{
closed = 1;
nodes = (
(426,0,l),
(406,-122,ls),
(374,-316,o),
(505,-419,o),
(668,-418,c),
(766,-418,l),
(792,-258,l),
(738,-258,l),
(644,-259,o),
(567,-236,o),
(586,-120,cs),
(606,0,l)
);
},
{
ref = T;
}
);
width = 1218;
},
{
layerId = "D0EC06BF-13F9-4C88-A6F5-B8203AF6C77E";
shapes = (
{
closed = 1;
nodes = (
(386,0,l),
(380,-32,ls),
(322,-384,o),
(543,-419,o),
(756,-418,c),
(930,-418,l),
(980,-120,l),
(912,-120,l),
(843,-119,o),
(767,-102,o),
(778,-34,cs),
(784,0,l)
);
},
{
ref = T;
}
);
width = 1358;
},
{
layerId = "200BE2C5-40F6-4CF4-AF4F-A33C0CC0964F";
shapes = (
{
closed = 1;
nodes = (
(512,0,l),
(482,-168,ls),
(455,-330,o),
(514,-416,o),
(640,-416,c),
(698,-416,l),
(706,-370,l),
(654,-370,l),
(549,-369,o),
(506,-305,o),
(530,-168,cs),
(558,0,l)
);
},
{
alignment = -1;
ref = T;
}
);
width = 1256;
}
);
metricLeft = T;
metricRight = T;
tags = (
"TODO-opsz"
);
unicode = 430;
userData = {
interface.gridadjust.original = "{'width': 1680, 'leftMargin': 67, 'rightMargin': 63}";
"interface.width-adjustments" = (
-16
);
};
},
{
color = 6;
glyphname = U;
kernLeft = U;
kernRight = J;
lastChange = "2022-07-22 10:10:35 +0000";
layers = (
{
anchors = (
{
name = bottom;
pos = (616,-20);
},
{
name = ogonek;
pos = (762,2);
},
{
name = right;
pos = (702,0);
},
{
name = rtophorn;
pos = (1264,1490);
},
{
name = top;
pos = (896,1676);
}
);
layerId = "11F4534A-B963-4AB5-820F-DAF9A20CD933";
shapes = (
{
closed = 1;
nodes = (
(1102,518,ls),
(1066,300,o),
(892,143,o),
(642,142,cs),
(394,143,o),
(270,300,o),
(306,518,cs),
(466,1490,l),
(286,1490,l),
(124,504,ls),
(74,198,o),
(263,-26,o),
(614,-26,cs),
(964,-26,o),
(1232,198,o),
(1282,504,cs),
(1444,1490,l),
(1264,1490,l)
);
}
);
width = 1423;
},
{
anchors = (
{
name = bottom;
pos = (623,8);
},
{
name = ogonek;
pos = (841,0);
},
{
name = right;
pos = (749,0);
},
{
name = rtophorn;
pos = (1107,1490);
},
{
name = top;
pos = (899,1676);
}
);
guides = (
{
pos = (431,1240);
},
{
pos = (-39,764);
},
{
pos = (743,1552);
},
{
orientation = center;
angle = 90;
pos = (-1413,564);
}
);
layerId = "D0EC06BF-13F9-4C88-A6F5-B8203AF6C77E";
shapes = (
{
closed = 1;
nodes = (
(953,570,ls),
(930,432,o),
(816,332,o),
(677,332,cs),
(538,332,o),
(454,432,o),
(477,570,cs),
(629,1490,l),
(225,1490,l),
(67,536,ls),
(11,195,o),
(232,-17,o),
(617,-18,cs),
(1000,-17,o),
(1297,195,o),
(1353,536,cs),
(1511,1490,l),
(1107,1490,l)
);
}
);
width = 1429;
},
{
anchors = (
{
name = bottom;
pos = (672,-24);
},
{
name = ogonek;
pos = (738,0);
},
{
name = right;
pos = (738,0);
},
{
name = rtophorn;
pos = (1410,1490);
},
{
name = top;
pos = (954,1676);
}
);
layerId = "200BE2C5-40F6-4CF4-AF4F-A33C0CC0964F";
shapes = (
{
closed = 1;
nodes = (
(1248,504,ls),
(1203,228,o),
(953,23,o),
(672,24,cs),
(391,23,o),
(224,228,o),
(270,504,cs),
(434,1490,l),
(386,1490,l),
(224,504,ls),
(174,202,o),
(369,-23,o),
(672,-24,cs),
(980,-23,o),
(1244,201,o),
(1294,504,cs),
(1458,1490,l),
(1410,1490,l)
);
}
);
width = 1535;
}
);
metricLeft = H;
metricRight = H;
unicode = 85;
userData = {
com.typemytype.robofont.guideline.magnetic.icXM2D4lH7 = 5;
"interface.width-adjustments" = (
-16
);
};
},
{
color = 6;
glyphname = Upsilon2;
lastChange = "2022-07-22 10:10:35 +0000";
layers = (
{
layerId = "11F4534A-B963-4AB5-820F-DAF9A20CD933";
shapes = (
{
closed = 1;
nodes = (
(28,279,o),
(252,-20,o),
(636,-20,cs),
(1020,-20,o),
(1343,279,o),
(1412,704,cs),
(1459,986,o),
(1377,1196,o),
(1202,1318,c),
(1206,1330,l),
(1518,1330,l),
(1544,1490,l),
(1014,1490,l),
(978,1286,l),
(1159,1204,o),
(1284,983,o),
(1238,704,cs),
(1188,393,o),
(947,148,o),
(664,148,cs),
(383,148,o),
(223,393,o),
(272,704,cs),
(319,983,o),
(519,1204,o),
(722,1286,c),
(758,1490,l),
(228,1490,l),
(202,1330,l),
(514,1330,l),
(510,1318,l),
(298,1193,o),
(144,986,o),
(98,704,cs)
);
}
);
width = 1464;
},
{
layerId = "D0EC06BF-13F9-4C88-A6F5-B8203AF6C77E";
shapes = (
{
closed = 1;
nodes = (
(-1,265,o),
(258,-20,o),
(688,-20,cs),
(1119,-20,o),
(1471,265,o),
(1538,666,cs),
(1576,893,o),
(1503,1053,o),
(1364,1154,c),
(1364,1164,l),
(1620,1164,l),
(1674,1490,l),
(1044,1490,l),
(976,1082,l),
(1102,1030,o),
(1160,881,o),
(1130,706,cs),
(1096,489,o),
(936,335,o),
(746,334,cs),
(558,335,o),
(450,489,o),
(486,706,cs),
(514,881,o),
(625,1030,o),
(768,1082,c),
(834,1490,l),
(202,1490,l),
(148,1164,l),
(404,1164,l),
(400,1152,l),
(229,1053,o),
(104,893,o),
(66,666,cs)
);
}
);
width = 1570;
},
{
layerId = "200BE2C5-40F6-4CF4-AF4F-A33C0CC0964F";
shapes = (
{
closed = 1;
nodes = (
(106,305,o),
(324,-20,o),
(666,-20,cs),
(1025,-20,o),
(1329,287,o),
(1400,728,cs),
(1451,1038,o),
(1358,1286,o),
(1096,1432,c),
(1098,1442,l),
(1520,1442,l),
(1528,1490,l),
(1058,1490,l),
(1048,1422,l),
(1265,1297,o),
(1416,1087,o),
(1356,730,cs),
(1289,335,o),
(1013,28,o),
(674,26,cs),
(339,25,o),
(160,335,o),
(226,730,cs),
(288,1089,o),
(504,1296,o),
(762,1422,c),
(774,1490,l),
(306,1490,l),
(298,1442,l),
(720,1442,l),
(718,1432,l),
(394,1279,o),
(235,1053,o),
(178,728,cs)
);
}
);
width = 1524;
}
);
tags = (
"TODO-opsz"
);
unicode = 433;
userData = {
interface.gridadjust.original = "{'width': 1871, 'leftMargin': 164, 'rightMargin': 163}";
"interface.width-adjustments" = (
-16
);
};
},
{
color = 6;
glyphname = V;
kernLeft = V;
kernRight = V;
lastChange = "2022-07-22 10:10:35 +0000";
layers = (
{
anchors = (
{
name = bottom;
pos = (555,0);
},
{
name = top;
pos = (831,1676);
}
);
guides = (
{
angle = 90;
pos = (705,476);
},
{
angle = 90;
pos = (873,2088);
},
{
angle = 90;
pos = (2165,2196);
}
);
layerId = "11F4534A-B963-4AB5-820F-DAF9A20CD933";
shapes = (
{
closed = 1;
nodes = (
(159,1490,l),
(459,0,l),
(645,0,l),
(1439,1490,l),
(1251,1490,l),
(601,236,l),
(585,236,l),
(349,1490,l)
);
}
);
width = 1290;
},
{
anchors = (
{
name = bottom;
pos = (699,0);
},
{
name = top;
pos = (977,1676);
}
);
guides = (
{
angle = 90;
pos = (1481,1048);
}
);
layerId = "D0EC06BF-13F9-4C88-A6F5-B8203AF6C77E";
shapes = (
{
closed = 1;
nodes = (
(177,1490,l),
(423,0,l),
(975,0,l),
(1713,1490,l),
(1257,1490,l),
(777,440,l),
(765,440,l),
(635,1490,l)
);
}
);
width = 1582;
},
{
anchors = (
{
name = bottom;
pos = (537,0);
},
{
name = top;
pos = (813,1676);
}
);
layerId = "200BE2C5-40F6-4CF4-AF4F-A33C0CC0964F";
shapes = (
{
closed = 1;
nodes = (
(221,1490,l),
(505,0,l),
(569,0,l),
(1349,1490,l),
(1299,1490,l),
(549,58,l),
(543,58,l),
(269,1490,l)
);
}
);
width = 1262;
}
);
metricLeft = A;
metricRight = A;
unicode = 86;
userData = {
com.typemytype.robofont.guideline.magnetic.IJvllllLzF = 5;
com.typemytype.robofont.guideline.magnetic.KeOP4W9VuQ = 5;
com.typemytype.robofont.guideline.magnetic.yHrbtxZ5FX = 5;
"interface.width-adjustments" = (
-16
);
};
},
{
color = 6;
glyphname = Gamma1;
kernLeft = V;
kernRight = V;
lastChange = "2022-07-22 10:10:35 +0000";
layers = (
{
layerId = "11F4534A-B963-4AB5-820F-DAF9A20CD933";
shapes = (
{
closed = 1;
nodes = (
(496,114,ls),
(543,-61,o),
(568,-140,o),
(560,-198,cs),
(554,-241,o),
(513,-279,o),
(462,-280,cs),
(409,-279,o),
(380,-244,o),
(386,-198,cs),
(393,-140,o),
(455,-55,o),
(558,114,cs),
(1378,1490,l),
(1182,1490,l),
(466,282,ls),
(310,15,o),
(219,-99,o),
(202,-198,cs),
(176,-355,o),
(263,-442,o),
(432,-442,cs),
(601,-442,o),
(717,-355,o),
(744,-198,cs),
(759,-105,o),
(700,15,o),
(630,282,cs),
(322,1490,l),
(126,1490,l)
);
}
);
width = 1196;
},
{
background = {
shapes = (
{
closed = 1;
nodes = (
(738,168,ls),
(772,79,o),
(784,-30,o),
(770,-110,cs),
(763,-159,o),
(748,-180,o),
(720,-180,cs),
(691,-180,o),
(682,-159,o),
(690,-112,cs),
(702,-32,o),
(752,74,o),
(818,168,cs),
(1738,1490,l),
(1270,1490,l),
(760,688,ls),
(353,47,o),
(302,-49,o),
(288,-134,cs),
(257,-321,o),
(417,-436,o),
(676,-436,cs),
(932,-436,o),
(1123,-309,o),
(1150,-146,cs),
(1172,-22,o),
(1108,245,o),
(970,686,cs),
(720,1490,l),
(254,1490,l)
);
}
);
};
layerId = "D0EC06BF-13F9-4C88-A6F5-B8203AF6C77E";
shapes = (
{
closed = 1;
nodes = (
(714,168,ls),
(748,79,o),
(760,-30,o),
(746,-116,cs),
(739,-165,o),
(724,-186,o),
(696,-186,cs),
(667,-186,o),
(658,-164,o),
(666,-118,cs),
(678,-32,o),
(728,74,o),
(794,168,cs),
(1714,1490,l),
(1246,1490,l),
(736,688,ls),
(329,47,o),
(278,-49,o),
(264,-140,cs),
(233,-327,o),
(393,-442,o),
(652,-442,cs),
(908,-442,o),
(1099,-315,o),
(1126,-152,cs),
(1148,-22,o),
(1084,245,o),
(946,686,cs),
(696,1490,l),
(230,1490,l)
);
}
);
width = 1634;
},
{
layerId = "200BE2C5-40F6-4CF4-AF4F-A33C0CC0964F";
shapes = (
{
closed = 1;
nodes = (
(444,110,ls),
(508,-167,o),
(524,-253,o),
(516,-294,cs),
(505,-352,o),
(449,-396,o),
(374,-396,cs),
(299,-396,o),
(260,-353,o),
(270,-296,cs),
(279,-253,o),
(325,-164,o),
(472,92,cs),
(1266,1490,l),
(1212,1490,l),
(394,50,ls),
(259,-189,o),
(231,-244,o),
(224,-286,cs),
(209,-371,o),
(268,-442,o),
(376,-442,cs),
(476,-442,o),
(548,-378,o),
(562,-294,cs),
(572,-244,o),
(558,-172,o),
(500,72,cs),
(164,1490,l),
(116,1490,l)
);
}
);
width = 1058;
}
);
tags = (
"TODO-opsz"
);
unicode = 404;
userData = {
interface.gridadjust.original = "{'width': 1778, 'leftMargin': 28, 'rightMargin': 28}";
"interface.width-adjustments" = (
-16
);
};
},
{
color = 6;
glyphname = Vcursive;
lastChange = "2022-07-22 10:10:35 +0000";
layers = (
{
background = {
shapes = (
{
closed = 1;
nodes = (
(832,-20,o),
(1108,143,o),
(1164,472,cs),
(1272,1128,ls),
(1309,1353,o),
(1196,1478,o),
(1004,1478,cs),
(972,1478,o),
(919,1469,o),
(888,1460,c),
(862,1300,l),
(881,1306,o),
(911,1306,o),
(928,1306,cs),
(1036,1306,o),
(1085,1260,o),
(1062,1128,cs),
(954,472,ls),
(916,247,o),
(771,145,o),
(576,146,cs),
(381,145,o),
(271,247,o),
(308,472,cs),
(472,1458,l),
(264,1458,l),
(102,472,ls),
(47,143,o),
(250,-20,o),
(550,-20,cs)
);
}
);
};
layerId = "11F4534A-B963-4AB5-820F-DAF9A20CD933";
shapes = (
{
closed = 1;
nodes = (
(784,-20,o),
(1061,142,o),
(1116,472,cs),
(1230,1160,ls),
(1266,1385,o),
(1146,1510,o),
(968,1510,cs),
(922,1510,o),
(877,1501,o),
(846,1492,c),
(818,1332,l),
(839,1336,o),
(867,1338,o),
(888,1338,cs),
(992,1338,o),
(1041,1292,o),
(1020,1160,cs),
(906,472,ls),
(869,247,o),
(723,145,o),
(528,146,cs),
(333,145,o),
(223,247,o),
(260,472,cs),
(430,1490,l),
(222,1490,l),
(54,472,ls),
(-1,143,o),
(202,-20,o),
(502,-20,cs)
);
}
);
width = 1196;
},
{
background = {
shapes = (
{
closed = 1;
nodes = (
(990,-20,o),
(1257,177,o),
(1314,520,cs),
(1396,1024,ls),
(1447,1315,o),
(1307,1475,o),
(1026,1474,cs),
(955,1475,o),
(914,1472,o),
(850,1458,c),
(798,1146,l),
(841,1152,o),
(873,1155,o),
(904,1154,cs),
(1004,1155,o),
(1019,1126,o),
(1000,1024,cs),
(920,520,ls),
(897,378,o),
(830,291,o),
(670,290,cs),
(507,291,o),
(463,378,o),
(486,520,cs),
(640,1458,l),
(250,1458,l),
(96,520,ls),
(39,175,o),
(254,-20,o),
(616,-20,cs)
);
}
);
};
layerId = "D0EC06BF-13F9-4C88-A6F5-B8203AF6C77E";
shapes = (
{
closed = 1;
nodes = (
(966,-20,o),
(1235,177,o),
(1290,520,cs),
(1378,1058,ls),
(1425,1351,o),
(1292,1510,o),
(998,1510,cs),
(947,1510,o),
(896,1505,o),
(832,1492,c),
(778,1182,l),
(823,1187,o),
(855,1190,o),
(886,1190,cs),
(986,1190,o),
(999,1161,o),
(982,1058,cs),
(896,520,ls),
(872,378,o),
(806,291,o),
(646,290,cs),
(483,291,o),
(439,378,o),
(462,520,cs),
(622,1490,l),
(232,1490,l),
(72,520,ls),
(15,175,o),
(230,-20,o),
(592,-20,cs)
);
}
);
width = 1372;
},
{
background = {
shapes = (
{
closed = 1;
nodes = (
(807,-23,o),
(1025,152,o),
(1080,474,cs),
(1202,1232,ls),
(1231,1396,o),
(1177,1479,o),
(1038,1480,cs),
(1005,1479,o),
(977,1476,o),
(946,1466,c),
(940,1420,l),
(971,1430,o),
(993,1433,o),
(1022,1432,cs),
(1143,1433,o),
(1180,1373,o),
(1158,1232,cs),
(1032,474,ls),
(984,185,o),
(782,23,o),
(514,24,cs),
(246,23,o),
(108,177,o),
(158,474,cs),
(318,1456,l),
(274,1456,l),
(110,474,ls),
(57,159,o),
(220,-23,o),
(504,-24,cs)
);
}
);
};
layerId = "200BE2C5-40F6-4CF4-AF4F-A33C0CC0964F";
shapes = (
{
closed = 1;
nodes = (
(815,-23,o),
(1028,160,o),
(1080,474,cs),
(1208,1262,ls),
(1234,1429,o),
(1180,1510,o),
(1040,1510,cs),
(1008,1510,o),
(979,1505,o),
(952,1496,c),
(944,1450,l),
(973,1460,o),
(996,1463,o),
(1026,1464,cs),
(1146,1463,o),
(1185,1406,o),
(1162,1262,cs),
(1032,474,ls),
(986,193,o),
(790,23,o),
(514,24,cs),
(237,23,o),
(110,185,o),
(158,474,cs),
(322,1490,l),
(280,1490,l),
(110,474,ls),
(60,168,o),
(211,-23,o),
(504,-24,cs)
);
}
);
width = 1216;
}
);
tags = (
"TODO-opsz"
);
unicode = 434;
userData = {
interface.gridadjust.original = "{'width': 1830, 'leftMargin': 186, 'rightMargin': 185}";
"interface.width-adjustments" = (
-16
);
};
},
{
color = 6;
glyphname = W;
kernLeft = W;
kernRight = W;
lastChange = "2022-07-22 10:10:35 +0000";
layers = (
{
anchors = (
{
name = bottom;
pos = (842,12);
},
{
name = top;
pos = (1118,1676);
}
);
guides = (
{
pos = (836,360);
},
{
angle = 90;
pos = (1900,2096);
},
{
angle = 90;
pos = (436,332);
},
{
angle = 90;
pos = (1624,356);
}
);
layerId = "11F4534A-B963-4AB5-820F-DAF9A20CD933";
metricLeft = "=A*0.84";
metricRight = "=A*0.84";
shapes = (
{
closed = 1;
nodes = (
(504,0,l),
(1030,1186,l),
(1042,1186,l),
(1174,0,l),
(1360,0,l),
(2014,1490,l),
(1830,1490,l),
(1318,276,l),
(1304,276,l),
(1188,1490,l),
(984,1490,l),
(466,276,l),
(452,276,l),
(342,1490,l),
(158,1490,l),
(318,0,l)
);
}
);
width = 1864;
},
{
anchors = (
{
name = bottom;
pos = (997,0);
},
{
name = top;
pos = (1277,1676);
}
);
guides = (
{
pos = (1979,2512);
}
);
layerId = "D0EC06BF-13F9-4C88-A6F5-B8203AF6C77E";
metricLeft = "=A-16";
metricRight = "=A-16";
shapes = (
{
closed = 1;
nodes = (
(739,0,l),
(1131,832,l),
(1143,832,l),
(1257,0,l),
(1643,0,l),
(2331,1490,l),
(1879,1490,l),
(1525,570,l),
(1513,570,l),
(1423,1490,l),
(1067,1490,l),
(675,574,l),
(663,574,l),
(611,1490,l),
(161,1490,l),
(353,0,l)
);
}
);
width = 2184;
},
{
anchors = (
{
name = bottom;
pos = (821,12);
},
{
name = top;
pos = (1093,1676);
}
);
layerId = "200BE2C5-40F6-4CF4-AF4F-A33C0CC0964F";
metricLeft = "=A-12";
metricRight = "=A-12";
shapes = (
{
closed = 1;
nodes = (
(437,0,l),
(1051,1416,l),
(1055,1416,l),
(1199,0,l),
(1265,0,l),
(1923,1490,l),
(1871,1490,l),
(1245,72,l),
(1239,72,l),
(1097,1490,l),
(1033,1490,l),
(415,72,l),
(411,72,l),
(259,1490,l),
(209,1490,l),
(373,0,l)
);
}
);
width = 1824;
}
);
unicode = 87;
userData = {
com.typemytype.robofont.guideline.magnetic.8gZT6dIVxI = 5;
com.typemytype.robofont.guideline.magnetic.ZoWqubfLj9 = 5;
com.typemytype.robofont.guideline.magnetic.k6chDe7LUI = 5;
com.typemytype.robofont.guideline.magnetic.tUpIEqa0MC = 5;
"interface.width-adjustments" = (
-16
);
};
},
{
color = 6;
glyphname = X;
kernLeft = X;
kernRight = X;
lastChange = "2022-07-22 10:10:35 +0000";
layers = (
{
anchors = (
{
name = bottom;
pos = (520,12);
},
{
name = cross;
pos = (642,744);
},
{
name = cyrtic;
pos = (1098,64);
},
{
name = right;
pos = (988,0);
},
{
name = top;
pos = (796,1676);
}
);
guides = (
{
angle = 90;
pos = (2328,2180);
},
{
orientation = center;
angle = 90;
pos = (-166,1372);
},
{
angle = 90;
pos = (612,2060);
},
{
orientation = center;
pos = (118,1024);
}
);
layerId = "11F4534A-B963-4AB5-820F-DAF9A20CD933";
shapes = (
{
closed = 1;
nodes = (
(162,1490,l),
(520,744,l),
(-86,0,l),
(126,0,l),
(612,608,l),
(624,608,l),
(906,0,l),
(1118,0,l),
(776,744,l),
(1366,1490,l),
(1154,1490,l),
(668,870,l),
(656,870,l),
(374,1490,l)
);
}
);
width = 1218;
},
{
anchors = (
{
name = bottom;
pos = (662,-6);
},
{
name = cross;
pos = (788,744);
},
{
name = cyrtic;
pos = (1334,162);
},
{
name = right;
pos = (1174,0);
},
{
name = top;
pos = (942,1676);
}
);
guides = (
{
orientation = center;
angle = 90;
pos = (98,2152);
},
{
angle = 90;
pos = (700,2084);
},
{
angle = 90;
pos = (2500,2080);
},
{
orientation = center;
pos = (-302,1024);
}
);
layerId = "D0EC06BF-13F9-4C88-A6F5-B8203AF6C77E";
shapes = (
{
closed = 1;
nodes = (
(206,1490,l),
(526,744,l),
(-56,0,l),
(416,0,l),
(742,442,l),
(752,442,l),
(934,0,l),
(1384,0,l),
(1046,744,l),
(1614,1490,l),
(1146,1490,l),
(826,1056,l),
(814,1056,l),
(642,1490,l)
);
}
);
width = 1514;
},
{
anchors = (
{
name = bottom;
pos = (510,12);
},
{
name = cross;
pos = (632,744);
},
{
name = cyrtic;
pos = (1036,6);
},
{
name = right;
pos = (986,0);
},
{
name = top;
pos = (786,1676);
}
);
layerId = "200BE2C5-40F6-4CF4-AF4F-A33C0CC0964F";
shapes = (
{
closed = 1;
nodes = (
(224,1490,l),
(602,744,l),
(-24,0,l),
(40,0,l),
(626,702,l),
(632,702,l),
(984,0,l),
(1036,0,l),
(660,744,l),
(1282,1490,l),
(1222,1490,l),
(638,788,l),
(632,788,l),
(280,1490,l)
);
}
);
width = 1198;
}
);
note = "recipe: offset curve 32, no auto";
unicode = 88;
userData = {
com.typemytype.robofont.guideline.magnetic.1jwe8yH4eD = 5;
com.typemytype.robofont.guideline.magnetic.AJAcp0DKEy = 5;
com.typemytype.robofont.guideline.magnetic.QFtArEHSdm = 5;
com.typemytype.robofont.guideline.magnetic.TR4vAYYyfi = 5;
com.typemytype.robofont.guideline.magnetic.nnmV4p3je2 = 5;
"interface.width-adjustments" = (
-16
);
};
},
{
color = 6;
glyphname = Y;
kernLeft = Y;
kernRight = Y;
lastChange = "2022-07-22 10:10:35 +0000";
layers = (
{
anchors = (
{
name = bottom;
pos = (540,0);
},
{
name = cross;
pos = (638,594);
},
{
name = ogonek;
pos = (630,0);
},
{
name = tonos;
pos = (92,1490);
},
{
name = top;
pos = (818,1676);
}
);
guides = (
{
orientation = center;
angle = 90;
pos = (-186,1360);
},
{
angle = 90;
pos = (892,2092);
},
{
angle = 90;
pos = (2056,2100);
}
);
layerId = "11F4534A-B963-4AB5-820F-DAF9A20CD933";
shapes = (
{
closed = 1;
nodes = (
(552,614,l),
(450,0,l),
(630,0,l),
(732,614,l),
(1416,1490,l),
(1208,1490,l),
(682,794,l),
(664,794,l),
(366,1490,l),
(158,1490,l)
);
}
);
width = 1266;
},
{
anchors = (
{
name = bottom;
pos = (666,0);
},
{
name = cross;
pos = (758,556);
},
{
name = ogonek;
pos = (866,0);
},
{
name = tonos;
pos = (60,1490);
},
{
name = top;
pos = (944,1676);
}
);
guides = (
{
orientation = center;
angle = 90;
pos = (286,1724);
}
);
layerId = "D0EC06BF-13F9-4C88-A6F5-B8203AF6C77E";
shapes = (
{
closed = 1;
nodes = (
(544,468,l),
(464,0,l),
(866,0,l),
(944,468,l),
(1660,1490,l),
(1210,1490,l),
(820,884,l),
(806,884,l),
(616,1490,l),
(166,1490,l)
);
}
);
width = 1518;
},
{
anchors = (
{
name = bottom;
pos = (536,0);
},
{
name = cross;
pos = (638,606);
},
{
name = ogonek;
pos = (558,0);
},
{
name = tonos;
pos = (200,1490);
},
{
name = top;
pos = (814,1676);
}
);
layerId = "200BE2C5-40F6-4CF4-AF4F-A33C0CC0964F";
shapes = (
{
closed = 1;
nodes = (
(628,706,l),
(512,0,l),
(558,0,l),
(674,706,l),
(1342,1490,l),
(1280,1490,l),
(660,760,l),
(652,760,l),
(276,1490,l),
(224,1490,l)
);
}
);
width = 1256;
}
);
unicode = 89;
userData = {
com.typemytype.robofont.guideline.magnetic.KceIXUepDd = 5;
com.typemytype.robofont.guideline.magnetic.TWkdg41wEI = 5;
com.typemytype.robofont.guideline.magnetic.o5DXjGQkF9 = 5;
"interface.width-adjustments" = (
-16
);
};
},
{
color = 6;
glyphname = YR;
lastChange = "2022-07-22 10:10:35 +0000";
layers = (
{
background = {
shapes = (
{
closed = 1;
nodes = (
(450,1356,l),
(486,1560,l),
(276,1560,l),
(242,1356,l,{
name = hr00;
})
);
},
{
closed = 1;
nodes = (
(18,0,l),
(226,0,l),
(442,1288,l),
(718,1288,ls),
(937,1289,o),
(1004,1181,o),
(978,1018,cs),
(954,870,o),
(832,753,o),
(628,754,cs),
(306,754,l),
(280,588,l),
(722,588,l),
(780,608,l),
(1001,666,o),
(1152,817,o),
(1184,1018,cs),
(1231,1303,o),
(1076,1457,o),
(744,1458,cs),
(258,1458,l)
);
},
{
closed = 1;
nodes = (
(1216,-360,l),
(1216,-350,l),
(838,664,l),
(620,664,l),
(994,-360,l)
);
}
);
};
layerId = "11F4534A-B963-4AB5-820F-DAF9A20CD933";
shapes = (
{
closed = 1;
nodes = (
(410,1390,l),
(444,1592,l),
(234,1592,l),
(200,1390,l,{
name = hr00;
})
);
},
{
closed = 1;
nodes = (
(-30,0,l),
(180,0,l),
(398,1322,l),
(674,1322,ls),
(894,1322,o),
(963,1215,o),
(936,1052,cs),
(913,903,o),
(791,787,o),
(586,786,cs),
(264,786,l),
(238,622,l),
(680,622,l),
(738,642,l),
(959,700,o),
(1109,851,o),
(1144,1052,cs),
(1192,1337,o),
(1035,1491,o),
(704,1490,cs),
(218,1490,l)
);
},
{
closed = 1;
nodes = (
(1168,-360,l),
(1170,-350,l),
(790,664,l),
(572,664,l),
(946,-360,l)
);
}
);
width = 1382;
},
{
background = {
shapes = (
{
closed = 1;
nodes = (
(616,1356,l),
(652,1560,l),
(262,1560,l),
(226,1356,l)
);
},
{
closed = 1;
nodes = (
(0,0,l),
(392,0,l),
(582,1144,l),
(806,1144,ls),
(928,1143,o),
(992,1079,o),
(972,968,cs),
(954,858,o),
(876,797,o),
(750,798,cs),
(372,798,l),
(322,486,l),
(832,486,l),
(978,568,l),
(1178,643,o),
(1327,745,o),
(1370,1016,cs),
(1417,1303,o),
(1210,1457,o),
(858,1458,cs),
(242,1458,l,{
name = hr01;
})
);
},
{
closed = 1;
nodes = (
(1376,-344,l),
(1378,-328,l),
(1018,640,l),
(606,640,l),
(958,-344,l)
);
}
);
};
layerId = "D0EC06BF-13F9-4C88-A6F5-B8203AF6C77E";
shapes = (
{
closed = 1;
nodes = (
(596,1388,l),
(630,1592,l),
(240,1592,l),
(206,1388,l)
);
},
{
closed = 1;
nodes = (
(-24,0,l),
(368,0,l),
(564,1176,l),
(788,1176,ls),
(909,1175,o),
(972,1111,o),
(954,1000,cs),
(935,890,o),
(855,829,o),
(730,830,cs),
(352,830,l),
(304,518,l),
(812,518,l),
(960,600,l),
(1159,675,o),
(1306,777,o),
(1350,1048,cs),
(1398,1335,o),
(1191,1489,o),
(840,1490,cs),
(224,1490,l,{
name = hr01;
})
);
},
{
closed = 1;
nodes = (
(1350,-344,l),
(1354,-328,l),
(992,640,l),
(580,640,l),
(932,-344,l)
);
}
);
width = 1570;
},
{
background = {
shapes = (
{
closed = 1;
nodes = (
(298,1364,l),
(330,1560,l),
(286,1560,l),
(254,1368,l)
);
},
{
closed = 1;
nodes = (
(26,0,l),
(72,0,l),
(306,1414,l),
(696,1414,ls),
(921,1414,o),
(1055,1265,o),
(1016,1036,cs),
(980,809,o),
(796,660,o),
(616,660,cs),
(158,660,l),
(152,614,l),
(676,614,l),
(686,620,l),
(876,668,o),
(1027,822,o),
(1064,1036,cs),
(1107,1291,o),
(956,1460,o),
(706,1460,cs),
(270,1460,l)
);
},
{
closed = 1;
nodes = (
(1082,-372,l),
(1084,-368,l),
(702,648,l),
(654,648,l),
(1036,-372,l)
);
}
);
};
layerId = "200BE2C5-40F6-4CF4-AF4F-A33C0CC0964F";
shapes = (
{
closed = 1;
nodes = (
(302,1384,l),
(334,1588,l),
(288,1588,l),
(254,1384,l)
);
},
{
closed = 1;
nodes = (
(26,0,l),
(72,0,l),
(312,1442,l),
(702,1442,ls),
(924,1443,o),
(1057,1293,o),
(1020,1064,cs),
(983,838,o),
(799,689,o),
(630,690,cs),
(162,690,l),
(156,642,l),
(670,642,l),
(684,648,l),
(879,692,o),
(1031,852,o),
(1066,1064,cs),
(1108,1320,o),
(959,1489,o),
(708,1490,cs),
(272,1490,l)
);
},
{
closed = 1;
nodes = (
(1080,-372,l),
(1080,-366,l),
(694,664,l),
(642,664,l),
(1030,-372,l)
);
}
);
width = 1352;
}
);
tags = (
"TODO-opsz"
);
unicode = 422;
userData = {
interface.gridadjust.original = "{'width': 1939, 'leftMargin': 228, 'rightMargin': -18}";
"interface.width-adjustments" = (
-16
);
};
},
{
color = 6;
glyphname = Yhook;
kernLeft = Y;
kernRight = Y;
lastChange = "2022-07-22 10:10:35 +0000";
layers = (
{
background = {
shapes = (
{
closed = 1;
nodes = (
(1288,1266,ls),
(1354,1351,o),
(1423,1361,o),
(1486,1332,c),
(1556,1478,l),
(1425,1545,o),
(1273,1500,o),
(1150,1342,cs),
(1108,1288,l),
(1250,1216,l)
);
},
{
closed = 1;
nodes = (
(734,760,l),
(738,794,l),
(704,794,l),
(698,760,l)
);
},
{
closed = 1;
nodes = (
(210,1490,l),
(602,614,l),
(500,0,l),
(680,0,l),
(782,614,l),
(1250,1216,l),
(1108,1288,l),
(722,780,l),
(416,1490,l)
);
}
);
};
guides = (
{
angle = 238.6031;
pos = (1808,1588);
},
{
angle = 239.3277;
pos = (1684,1724);
}
);
layerId = "11F4534A-B963-4AB5-820F-DAF9A20CD933";
shapes = (
{
closed = 1;
nodes = (
(686,760,l),
(690,794,l),
(656,794,l),
(650,760,l)
);
},
{
closed = 1;
nodes = (
(554,614,l),
(452,0,l),
(632,0,l),
(734,614,l),
(1240,1266,ls),
(1306,1350,o),
(1375,1361,o),
(1438,1332,c),
(1508,1478,l),
(1377,1545,o),
(1223,1501,o),
(1102,1342,cs),
(674,780,l),
(368,1490,l),
(162,1490,l)
);
}
);
width = 1350;
},
{
background = {
shapes = (
{
closed = 1;
nodes = (
(1484,1068,ls),
(1564,1175,o),
(1616,1204,o),
(1728,1172,c),
(1858,1470,l),
(1660,1542,o),
(1407,1524,o),
(1216,1268,cs),
(1144,1166,l),
(1448,1024,l)
);
},
{
closed = 1;
nodes = (
(926,850,l),
(930,884,l),
(896,884,l),
(890,850,l)
);
},
{
closed = 1;
nodes = (
(206,1490,l),
(658,550,l),
(564,0,l),
(966,0,l),
(1058,550,l),
(1448,1024,l),
(1144,1166,l),
(910,870,l),
(640,1490,l)
);
}
);
};
guides = (
{
angle = 240.4178;
pos = (1324,1336);
},
{
angle = 238.4456;
pos = (1468,988);
}
);
layerId = "D0EC06BF-13F9-4C88-A6F5-B8203AF6C77E";
shapes = (
{
closed = 1;
nodes = (
(902,850,l),
(906,884,l),
(872,884,l),
(866,850,l)
);
},
{
closed = 1;
nodes = (
(634,550,l),
(540,0,l),
(942,0,l),
(1034,550,l),
(1460,1068,ls),
(1544,1171,o),
(1592,1204,o),
(1704,1172,c),
(1834,1470,l),
(1636,1542,o),
(1385,1521,o),
(1192,1268,cs),
(886,870,l),
(616,1490,l),
(182,1490,l)
);
}
);
width = 1682;
},
{
layerId = "200BE2C5-40F6-4CF4-AF4F-A33C0CC0964F";
shapes = (
{
closed = 1;
nodes = (
(622,724,l),
(628,760,l),
(594,760,l),
(588,724,l)
);
},
{
closed = 1;
nodes = (
(580,706,l),
(464,0,l),
(510,0,l),
(626,706,l),
(1218,1404,ls),
(1272,1466,o),
(1353,1476,o),
(1396,1442,c),
(1434,1474,l),
(1373,1529,o),
(1258,1523,o),
(1180,1430,cs),
(606,752,l),
(228,1490,l),
(176,1490,l)
);
}
);
width = 1274;
}
);
note = "!post:RemoveOverlap";
tags = (
"TODO-opsz"
);
unicode = 435;
userData = {
com.typemytype.robofont.guideline.magnetic.1p4TietnVi = 5;
com.typemytype.robofont.guideline.magnetic.a19mK3ffcr = 5;
interface.gridadjust.original = "{'width': 1843, 'leftMargin': 18, 'rightMargin': -41}";
"interface.width-adjustments" = (
-16
);
};
},
{
color = 6;
glyphname = Z;
kernLeft = Z;
kernRight = Z;
lastChange = "2022-07-22 10:10:35 +0000";
layers = (
{
anchors = (
{
name = bottom;
pos = (528,0);
},
{
name = cross;
pos = (642,768);
},
{
name = top;
pos = (792,1676);
}
);
guides = (
{
angle = -99.4;
pos = (856,1056);
}
);
layerId = "11F4534A-B963-4AB5-820F-DAF9A20CD933";
shapes = (
{
closed = 1;
nodes = (
(1016,0,l),
(1042,160,l),
(232,160,l),
(1234,1358,l),
(1256,1490,l),
(228,1490,l),
(202,1330,l),
(1014,1330,l),
(14,130,l),
(-10,0,l)
);
}
);
width = 1184;
},
{
anchors = (
{
name = bottom;
pos = (596,0);
},
{
name = cross;
pos = (756,788);
},
{
name = top;
pos = (878,1676);
}
);
guides = (
{
pos = (352,1552);
},
{
angle = 90;
pos = (528,1664);
},
{
angle = 90;
pos = (1444,384);
},
{
orientation = center;
angle = 90;
pos = (-322,800);
}
);
layerId = "D0EC06BF-13F9-4C88-A6F5-B8203AF6C77E";
shapes = (
{
closed = 1;
nodes = (
(1200,0,l),
(1256,326,l),
(552,326,l),
(1414,1266,l),
(1450,1490,l),
(234,1490,l),
(180,1164,l),
(884,1164,l),
(22,224,l),
(-16,0,l)
);
}
);
width = 1374;
},
{
anchors = (
{
name = bottom;
pos = (526,0);
},
{
name = cross;
pos = (652,744);
},
{
name = top;
pos = (806,1676);
}
);
layerId = "200BE2C5-40F6-4CF4-AF4F-A33C0CC0964F";
shapes = (
{
closed = 1;
nodes = (
(998,0,l),
(1006,46,l),
(128,46,l),
(1234,1442,l),
(1240,1490,l),
(314,1490,l),
(308,1442,l),
(1172,1442,l),
(70,46,l),
(62,0,l)
);
}
);
width = 1240;
}
);
unicode = 90;
userData = {
com.typemytype.robofont.guideline.magnetic.7L9fK9Z9Br = 5;
com.typemytype.robofont.guideline.magnetic.DPCAFAyemJ = 5;
com.typemytype.robofont.guideline.magnetic.VxRM18zW9m = 5;
"interface.width-adjustments" = (
-16
);
};
},
{
color = 6;
glyphname = mcapturn;
lastChange = "2022-07-22 10:10:35 +0000";
layers = (
{
background = {
shapes = (
{
closed = 1;
nodes = (
(1402,0,l),
(1592,0,l),
(1832,1458,l),
(1634,1458,l),
(1428,212,l)
);
},
{
closed = 1;
nodes = (
(1457,303,o),
(1359,145,o),
(1144,146,cs),
(1050,145,o),
(966,204,o),
(1004,442,c),
(1172,1458,l),
(974,1458,l),
(806,442,l),
(751,93,o),
(873,-20,o),
(1086,-20,cs),
(1382,-20,o),
(1536,204,o),
(1586,506,c),
(1492,504,l)
);
},
{
closed = 1;
nodes = (
(800,303,o),
(698,145,o),
(482,146,cs),
(390,145,o),
(308,204,o),
(346,442,cs),
(514,1458,l),
(314,1458,l),
(146,442,ls),
(90,96,o),
(209,-20,o),
(424,-20,cs),
(721,-20,o),
(879,204,o),
(928,506,c),
(834,504,l)
);
}
);
};
layerId = "11F4534A-B963-4AB5-820F-DAF9A20CD933";
shapes = (
{
closed = 1;
nodes = (
(1354,0,l),
(1544,0,l),
(1790,1490,l),
(1592,1490,l),
(1380,212,l)
);
},
{
closed = 1;
nodes = (
(1409,303,o),
(1311,145,o),
(1096,146,cs),
(1002,145,o),
(918,204,o),
(956,442,c),
(1130,1490,l),
(932,1490,l),
(758,442,l),
(703,93,o),
(825,-20,o),
(1038,-20,cs),
(1334,-20,o),
(1488,204,o),
(1538,506,c),
(1444,504,l)
);
},
{
closed = 1;
nodes = (
(752,303,o),
(650,145,o),
(434,146,cs),
(342,145,o),
(258,204,o),
(298,442,cs),
(472,1490,l),
(272,1490,l),
(98,442,ls),
(40,96,o),
(161,-20,o),
(376,-20,cs),
(673,-20,o),
(831,204,o),
(880,506,c),
(786,504,l)
);
}
);
width = 1754;
},
{
background = {
shapes = (
{
closed = 1;
nodes = (
(1440,0,l),
(1774,0,l),
(2016,1458,l),
(1638,1458,l),
(1442,286,l)
);
},
{
closed = 1;
nodes = (
(1510,375,o),
(1437,279,o),
(1286,280,cs),
(1193,279,o),
(1158,335,o),
(1172,414,c),
(1344,1458,l),
(972,1458,l),
(800,414,l),
(748,99,o),
(876,-20,o),
(1108,-20,cs),
(1379,-20,o),
(1580,204,o),
(1630,506,c),
(1530,504,l)
);
},
{
closed = 1;
nodes = (
(841,372,o),
(771,279,o),
(620,280,cs),
(527,279,o),
(492,335,o),
(506,414,cs),
(678,1458,l),
(306,1458,l),
(134,414,ls),
(81,102,o),
(177,-20,o),
(442,-20,cs),
(724,-20,o),
(916,195,o),
(968,506,c),
(864,504,l)
);
}
);
};
layerId = "D0EC06BF-13F9-4C88-A6F5-B8203AF6C77E";
shapes = (
{
closed = 1;
nodes = (
(1416,0,l),
(1750,0,l),
(1998,1490,l),
(1620,1490,l),
(1418,286,l)
);
},
{
closed = 1;
nodes = (
(1486,375,o),
(1413,279,o),
(1262,280,cs),
(1169,279,o),
(1134,335,o),
(1148,414,c),
(1326,1490,l),
(954,1490,l),
(776,414,l),
(724,99,o),
(852,-20,o),
(1084,-20,cs),
(1355,-20,o),
(1556,204,o),
(1606,506,c),
(1506,504,l)
);
},
{
closed = 1;
nodes = (
(817,372,o),
(747,279,o),
(596,280,cs),
(503,279,o),
(469,335,o),
(482,414,cs),
(660,1490,l),
(288,1490,l),
(110,414,ls),
(58,102,o),
(153,-20,o),
(418,-20,cs),
(700,-20,o),
(892,195,o),
(944,506,c),
(840,504,l)
);
}
);
width = 1974;
},
{
background = {
shapes = (
{
closed = 1;
nodes = (
(1400,0,l),
(1440,0,l),
(1682,1458,l),
(1634,1458,l),
(1432,228,l)
);
},
{
closed = 1;
nodes = (
(1421,172,o),
(1258,32,o),
(1094,32,cs),
(892,32,o),
(810,164,o),
(844,366,cs),
(1024,1458,l),
(978,1458,l),
(798,366,ls),
(761,146,o),
(865,-15,o),
(1086,-14,cs),
(1284,-15,o),
(1463,138,o),
(1486,366,c),
(1454,366,l)
);
},
{
closed = 1;
nodes = (
(764,171,o),
(602,32,o),
(436,32,cs),
(233,32,o),
(153,163,o),
(186,366,cs),
(366,1458,l),
(320,1458,l),
(140,366,ls),
(103,145,o),
(206,-15,o),
(428,-14,cs),
(627,-15,o),
(805,138,o),
(830,366,c),
(798,366,l)
);
}
);
};
layerId = "200BE2C5-40F6-4CF4-AF4F-A33C0CC0964F";
shapes = (
{
closed = 1;
nodes = (
(1400,0,l),
(1440,0,l),
(1688,1490,l),
(1640,1490,l),
(1432,228,l)
);
},
{
closed = 1;
nodes = (
(1421,172,o),
(1258,32,o),
(1094,32,cs),
(892,32,o),
(810,164,o),
(844,366,cs),
(1030,1490,l),
(984,1490,l),
(798,366,ls),
(761,146,o),
(865,-15,o),
(1086,-14,cs),
(1284,-15,o),
(1463,138,o),
(1486,366,c),
(1454,366,l)
);
},
{
closed = 1;
nodes = (
(764,171,o),
(602,32,o),
(436,32,cs),
(233,32,o),
(153,163,o),
(186,366,cs),
(372,1490,l),
(326,1490,l),
(140,366,ls),
(103,145,o),
(206,-15,o),
(428,-14,cs),
(627,-15,o),
(805,138,o),
(830,366,c),
(798,366,l)
);
}
);
width = 1704;
}
);
tags = (
"TODO-opsz"
);
unicode = 412;
userData = {
interface.gridadjust.original = "{'width': 2558, 'leftMargin': 234, 'rightMargin': 234}";
"interface.width-adjustments" = (
-16
);
};
},
{
color = 6;
glyphname = uni01F6;
kernLeft = B;
kernRight = u;
lastChange = "2022-07-22 10:10:35 +0000";
layers = (
{
layerId = "11F4534A-B963-4AB5-820F-DAF9A20CD933";
shapes = (
{
closed = 1;
nodes = (
(1782,-20,o),
(2006,143,o),
(2062,472,cs),
(2168,1118,l),
(1988,1118,l),
(1880,472,ls),
(1843,247,o),
(1721,145,o),
(1526,146,cs),
(1331,145,o),
(1235,247,o),
(1272,472,cs),
(1442,1490,l),
(1262,1490,l),
(1150,826,l),
(356,826,l),
(466,1490,l),
(286,1490,l),
(40,0,l),
(220,0,l),
(330,666,l),
(1124,666,l),
(1092,472,ls),
(1040,148,o),
(1209,-20,o),
(1500,-20,cs)
);
}
);
width = 2185;
},
{
layerId = "D0EC06BF-13F9-4C88-A6F5-B8203AF6C77E";
shapes = (
{
closed = 1;
nodes = (
(1870,-20,o),
(2126,186,o),
(2182,520,cs),
(2272,1068,l),
(1866,1068,l),
(1776,520,ls),
(1753,390,o),
(1672,311,o),
(1558,312,cs),
(1445,311,o),
(1387,390,o),
(1410,520,cs),
(1570,1490,l),
(1166,1490,l),
(1070,908,l),
(534,908,l),
(630,1490,l),
(226,1490,l),
(-22,0,l),
(384,0,l),
(480,582,l),
(1014,582,l),
(1006,520,ls),
(951,186,o),
(1140,-20,o),
(1504,-20,cs)
);
}
);
width = 2265;
},
{
layerId = "200BE2C5-40F6-4CF4-AF4F-A33C0CC0964F";
shapes = (
{
closed = 1;
nodes = (
(1791,-22,o),
(1996,116,o),
(2050,442,cs),
(2170,1146,l),
(2124,1146,l),
(2008,442,ls),
(1963,182,o),
(1795,24,o),
(1558,24,cs),
(1325,25,o),
(1206,161,o),
(1254,442,cs),
(1428,1490,l),
(1382,1490,l),
(1262,768,l),
(314,768,l),
(434,1490,l),
(386,1490,l),
(140,0,l),
(186,0,l),
(306,722,l),
(1254,722,l),
(1208,442,ls),
(1154,126,o),
(1313,-22,o),
(1560,-22,cs)
);
}
);
width = 2270;
}
);
metricLeft = H;
metricRight = u;
tags = (
"TODO-opsz"
);
unicode = 502;
userData = {
interface.gridadjust.original = "{'width': 3059, 'leftMargin': 228, 'rightMargin': 176}";
"interface.width-adjustments" = (
-16
);
};
},
{
color = 6;
glyphname = uni01F7;
lastChange = "2022-07-22 10:10:35 +0000";
layers = (
{
background = {
shapes = (
{
closed = 1;
nodes = (
(262,1458,l),
(-46,-416,l),
(162,-416,l),
(472,1458,l)
);
},
{
closed = 1;
nodes = (
(646,-116,o),
(1137,308,o),
(1222,818,cs),
(1230,870,ls),
(1297,1277,o),
(1103,1478,o),
(738,1478,cs),
(599,1478,o),
(483,1440,o),
(390,1376,c),
(322,984,l),
(387,1181,o),
(492,1309,o),
(712,1310,cs),
(972,1309,o),
(1073,1175,o),
(1024,872,cs),
(1016,818,ls),
(957,477,o),
(655,67,o),
(116,-14,c),
(90,-180,l)
);
}
);
};
layerId = "11F4534A-B963-4AB5-820F-DAF9A20CD933";
shapes = (
{
closed = 1;
nodes = (
(216,1490,l),
(-94,-418,l),
(114,-418,l),
(426,1490,l)
);
},
{
closed = 1;
nodes = (
(604,-116,o),
(1097,313,o),
(1176,832,cs),
(1186,898,ls),
(1247,1293,o),
(1066,1510,o),
(702,1510,cs),
(553,1510,o),
(443,1476,o),
(344,1408,c),
(278,1016,l),
(351,1241,o),
(466,1341,o),
(678,1342,cs),
(925,1341,o),
(1031,1203,o),
(980,902,cs),
(968,832,ls),
(897,400,o),
(522,55,o),
(68,-14,c),
(42,-180,l)
);
}
);
width = 1196;
},
{
background = {
shapes = (
{
closed = 1;
nodes = (
(354,1458,l),
(46,-416,l),
(434,-416,l),
(742,1458,l)
);
},
{
closed = 1;
nodes = (
(1057,29,o),
(1456,358,o),
(1518,760,cs),
(1528,812,ls),
(1599,1231,o),
(1377,1478,o),
(986,1478,cs),
(831,1478,o),
(685,1420,o),
(614,1344,c),
(544,930,l),
(615,1059,o),
(804,1167,o),
(936,1166,cs),
(1188,1167,o),
(1151,948,o),
(1128,814,cs),
(1118,760,ls),
(1072,468,o),
(816,282,o),
(358,126,c),
(306,-192,l)
);
}
);
};
layerId = "D0EC06BF-13F9-4C88-A6F5-B8203AF6C77E";
shapes = (
{
closed = 1;
nodes = (
(334,1486,l),
(22,-418,l),
(410,-418,l),
(720,1486,l)
);
},
{
closed = 1;
nodes = (
(1033,29,o),
(1404,363,o),
(1496,774,cs),
(1508,826,ls),
(1603,1255,o),
(1346,1507,o),
(982,1506,cs),
(799,1507,o),
(664,1449,o),
(592,1374,c),
(522,960,l),
(594,1088,o),
(772,1196,o),
(934,1196,cs),
(1156,1196,o),
(1137,976,o),
(1106,830,cs),
(1094,774,ls),
(1031,471,o),
(792,282,o),
(334,126,c),
(282,-192,l)
);
}
);
width = 1642;
},
{
background = {
shapes = (
{
closed = 1;
nodes = (
(208,1458,l),
(-104,-418,l),
(-56,-418,l),
(254,1458,l)
);
},
{
closed = 1;
nodes = (
(540,-12,o),
(877,320,o),
(974,842,cs),
(976,858,ls),
(1052,1273,o),
(905,1479,o),
(584,1480,cs),
(441,1479,o),
(312,1446,o),
(210,1382,c),
(224,1340,l),
(321,1400,o),
(445,1433,o),
(578,1432,cs),
(873,1433,o),
(1007,1253,o),
(930,862,cs),
(924,840,ls),
(826,348,o),
(522,39,o),
(-34,-90,c),
(-42,-136,l)
);
}
);
};
layerId = "200BE2C5-40F6-4CF4-AF4F-A33C0CC0964F";
shapes = (
{
closed = 1;
nodes = (
(214,1488,l),
(-104,-418,l),
(-56,-418,l),
(260,1488,l)
);
},
{
closed = 1;
nodes = (
(540,-12,o),
(883,321,o),
(976,856,cs),
(982,888,ls),
(1054,1304,o),
(913,1510,o),
(584,1510,cs),
(449,1510,o),
(318,1476,o),
(216,1412,c),
(230,1370,l),
(327,1431,o),
(454,1463,o),
(580,1464,cs),
(881,1463,o),
(1008,1270,o),
(936,892,cs),
(928,854,ls),
(831,349,o),
(522,39,o),
(-34,-90,c),
(-42,-136,l)
);
}
);
width = 980;
}
);
tags = (
"TODO-opsz"
);
unicode = 503;
userData = {
interface.gridadjust.original = "{'width': 1856, 'leftMargin': 228, 'rightMargin': 163}";
"interface.width-adjustments" = (
-16
);
};
},
{
color = 6;
glyphname = uni0220;
lastChange = "2022-07-22 10:10:35 +0000";
layers = (
{
background = {
shapes = (
{
closed = 1;
nodes = (
(1246,986,ls),
(1300,1315,o),
(1073,1478,o),
(798,1478,cs),
(643,1478,o),
(500,1428,o),
(402,1368,c),
(376,1208,l),
(480,1271,o),
(605,1312,o),
(770,1312,cs),
(969,1312,o),
(1082,1213,o),
(1044,986,cs),
(814,-416,l),
(1016,-416,l)
);
},
{
closed = 1;
nodes = (
(268,1458,l),
(26,0,l),
(224,0,l),
(466,1458,l)
);
}
);
};
layerId = "11F4534A-B963-4AB5-820F-DAF9A20CD933";
shapes = (
{
closed = 1;
nodes = (
(1202,1018,ls),
(1257,1347,o),
(1031,1510,o),
(754,1510,cs),
(601,1510,o),
(458,1460,o),
(360,1400,c),
(334,1240,l),
(438,1303,o),
(570,1344,o),
(710,1344,cs),
(934,1344,o),
(1039,1245,o),
(1002,1018,cs),
(766,-416,l),
(968,-416,l)
);
},
{
closed = 1;
nodes = (
(226,1490,l),
(-22,0,l),
(176,0,l),
(424,1490,l)
);
}
);
width = 1196;
},
{
background = {
shapes = (
{
closed = 1;
nodes = (
(1364,1056,ls),
(1407,1315,o),
(1227,1478,o),
(942,1478,cs),
(692,1478,o),
(482,1332,o),
(344,1186,c),
(282,830,l),
(485,1068,o),
(674,1181,o),
(834,1182,cs),
(977,1181,o),
(994,1120,o),
(984,1056,cs),
(742,-416,l),
(1122,-416,l)
);
},
{
closed = 1;
nodes = (
(300,1458,l),
(58,0,l),
(436,0,l),
(678,1458,l)
);
}
);
};
layerId = "D0EC06BF-13F9-4C88-A6F5-B8203AF6C77E";
shapes = (
{
closed = 1;
nodes = (
(1346,1088,ls),
(1389,1347,o),
(1204,1510,o),
(930,1510,cs),
(669,1510,o),
(464,1364,o),
(326,1218,c),
(264,862,l),
(467,1100,o),
(650,1213,o),
(824,1214,cs),
(953,1213,o),
(975,1152,o),
(966,1088,cs),
(718,-416,l),
(1098,-416,l)
);
},
{
closed = 1;
nodes = (
(282,1490,l),
(34,0,l),
(412,0,l),
(660,1490,l)
);
}
);
width = 1384;
},
{
background = {
shapes = (
{
closed = 1;
nodes = (
(1026,916,ls),
(1091,1311,o),
(972,1479,o),
(626,1480,cs),
(482,1479,o),
(353,1446,o),
(250,1382,c),
(264,1340,l),
(369,1404,o),
(483,1433,o),
(632,1432,cs),
(943,1433,o),
(1040,1288,o),
(978,920,cs),
(756,-418,l),
(804,-418,l)
);
},
{
closed = 1;
nodes = (
(250,1458,l),
(8,0,l),
(56,0,l),
(296,1458,l)
);
}
);
};
layerId = "200BE2C5-40F6-4CF4-AF4F-A33C0CC0964F";
shapes = (
{
closed = 1;
nodes = (
(1030,946,ls),
(1095,1341,o),
(973,1510,o),
(634,1510,cs),
(484,1510,o),
(358,1476,o),
(254,1412,c),
(270,1370,l),
(373,1435,o),
(492,1463,o),
(632,1464,cs),
(951,1463,o),
(1044,1319,o),
(984,950,cs),
(756,-418,l),
(804,-418,l)
);
},
{
closed = 1;
nodes = (
(256,1490,l),
(8,0,l),
(56,0,l),
(302,1490,l)
);
}
);
width = 1062;
}
);
tags = (
"TODO-opsz"
);
unicode = 544;
userData = {
interface.gridadjust.original = "{'width': 1866, 'leftMargin': 228, 'rightMargin': 186}";
"interface.width-adjustments" = (
-16
);
};
},
{
color = 6;
glyphname = uni0222;
lastChange = "2022-07-22 10:10:35 +0000";
layers = (
{
background = {
shapes = (
{
closed = 1;
nodes = (
(375,881,o),
(111,730,o),
(62,434,cs),
(9,128,o),
(227,-20,o),
(538,-20,cs),
(562,-20,ls),
(873,-20,o),
(1137,128,o),
(1190,436,cs),
(1239,730,o),
(1021,881,o),
(710,882,cs),
(686,882,l,{
name = hr00;
})
);
},
{
closed = 1;
nodes = (
(893,724,o),
(1015,631,o),
(984,436,cs),
(951,236,o),
(800,151,o),
(590,152,cs),
(568,152,ls),
(358,151,o),
(236,236,o),
(268,434,cs),
(300,631,o),
(451,724,o),
(660,724,cs),
(684,724,l)
);
},
{
closed = 1;
nodes = (
(500,896,o),
(352,940,o),
(382,1114,cs),
(401,1239,o),
(474,1289,o),
(602,1320,c),
(628,1478,l),
(410,1466,o),
(212,1356,o),
(174,1114,cs),
(128,835,o),
(367,739,o),
(654,738,cs),
(696,738,ls),
(983,739,o),
(1257,835,o),
(1304,1114,cs),
(1341,1356,o),
(1187,1466,o),
(966,1478,c),
(940,1320,l),
(1062,1289,o),
(1117,1239,o),
(1096,1114,cs),
(1068,940,o),
(905,896,o),
(722,896,cs),
(680,896,l)
);
}
);
};
layerId = "11F4534A-B963-4AB5-820F-DAF9A20CD933";
shapes = (
{
closed = 1;
nodes = (
(328,881,o),
(62,730,o),
(14,434,cs),
(-37,128,o),
(179,-20,o),
(490,-20,cs),
(514,-20,ls),
(825,-20,o),
(1091,128,o),
(1142,436,cs),
(1191,730,o),
(974,881,o),
(664,882,cs),
(640,882,l,{
name = hr00;
})
);
},
{
closed = 1;
nodes = (
(846,724,o),
(967,631,o),
(936,436,cs),
(903,236,o),
(751,151,o),
(542,152,cs),
(518,152,ls),
(309,151,o),
(186,236,o),
(220,434,cs),
(253,631,o),
(404,724,o),
(614,724,cs),
(638,724,l)
);
},
{
closed = 1;
nodes = (
(452,896,o),
(300,925,o),
(334,1128,cs),
(356,1257,o),
(430,1321,o),
(560,1352,c),
(586,1510,l),
(367,1498,o),
(169,1379,o),
(128,1128,cs),
(79,826,o),
(319,739,o),
(606,738,cs),
(648,738,ls),
(936,739,o),
(1207,826,o),
(1256,1128,cs),
(1298,1379,o),
(1143,1498,o),
(924,1510,c),
(898,1352,l),
(1017,1321,o),
(1071,1257,o),
(1050,1128,cs),
(1017,925,o),
(857,896,o),
(674,896,cs),
(632,896,l)
);
}
);
width = 1196;
},
{
background = {
shapes = (
{
closed = 1;
nodes = (
(436,954,o),
(162,809,o),
(110,482,cs),
(57,166,o),
(270,-20,o),
(610,-20,cs),
(632,-20,ls),
(968,-20,o),
(1241,166,o),
(1294,486,cs),
(1346,809,o),
(1128,954,o),
(794,954,cs),
(774,954,l)
);
},
{
closed = 1;
nodes = (
(872,684,o),
(913,593,o),
(896,486,cs),
(878,375,o),
(805,285,o),
(680,286,cs),
(660,286,ls),
(537,285,o),
(491,375,o),
(510,482,cs),
(526,599,o),
(607,684,o),
(728,684,cs),
(748,684,l)
);
},
{
closed = 1;
nodes = (
(628,998,o),
(599,1039,o),
(610,1106,cs),
(619,1152,o),
(645,1167,o),
(696,1176,c),
(744,1478,l),
(462,1484,o),
(255,1364,o),
(212,1106,cs),
(168,844,o),
(392,730,o),
(734,730,cs),
(754,730,ls),
(1090,730,o),
(1358,844,o),
(1402,1106,cs),
(1445,1364,o),
(1273,1484,o),
(990,1478,c),
(940,1176,l),
(985,1167,o),
(1012,1152,o),
(1004,1106,cs),
(991,1030,o),
(930,998,o),
(798,998,cs),
(776,998,l)
);
},
{
closed = 1;
nodes = (
(436,954,o),
(162,809,o),
(110,482,cs),
(57,166,o),
(270,-20,o),
(610,-20,cs),
(632,-20,ls),
(968,-20,o),
(1241,166,o),
(1294,486,cs),
(1346,809,o),
(1128,954,o),
(794,954,cs),
(774,954,l)
);
},
{
closed = 1;
nodes = (
(872,684,o),
(913,593,o),
(896,486,cs),
(878,375,o),
(805,285,o),
(680,286,cs),
(660,286,ls),
(537,285,o),
(491,375,o),
(510,482,cs),
(526,599,o),
(607,684,o),
(728,684,cs),
(748,684,l)
);
},
{
closed = 1;
nodes = (
(628,998,o),
(599,1039,o),
(610,1106,cs),
(619,1152,o),
(645,1167,o),
(696,1176,c),
(744,1478,l),
(462,1484,o),
(255,1364,o),
(212,1106,cs),
(168,844,o),
(392,730,o),
(734,730,cs),
(754,730,ls),
(1090,730,o),
(1358,844,o),
(1402,1106,cs),
(1445,1364,o),
(1273,1484,o),
(990,1478,c),
(940,1176,l),
(985,1167,o),
(1012,1152,o),
(1004,1106,cs),
(991,1030,o),
(930,998,o),
(798,998,cs),
(776,998,l)
);
}
);
};
layerId = "D0EC06BF-13F9-4C88-A6F5-B8203AF6C77E";
shapes = (
{
closed = 1;
nodes = (
(375,954,o),
(132,782,o),
(84,482,cs),
(34,178,o),
(231,-20,o),
(586,-20,cs),
(606,-20,ls),
(957,-20,o),
(1217,178,o),
(1270,486,cs),
(1319,782,o),
(1133,954,o),
(768,954,cs),
(746,954,l)
);
},
{
closed = 1;
nodes = (
(833,684,o),
(889,608,o),
(870,486,cs),
(851,360,o),
(767,285,o),
(656,286,cs),
(636,286,ls),
(523,285,o),
(462,364,o),
(482,482,cs),
(503,605,o),
(588,684,o),
(702,684,cs),
(722,684,l)
);
},
{
closed = 1;
nodes = (
(620,998,o),
(572,1018,o),
(586,1114,cs),
(596,1170,o),
(618,1198,o),
(676,1208,c),
(726,1510,l),
(423,1516,o),
(229,1365,o),
(188,1114,cs),
(147,859,o),
(333,730,o),
(706,730,cs),
(726,730,ls),
(1100,730,o),
(1337,861,o),
(1378,1114,cs),
(1419,1363,o),
(1272,1516,o),
(970,1510,c),
(920,1208,l),
(972,1197,o),
(988,1169,o),
(980,1114,cs),
(966,1021,o),
(904,998,o),
(772,998,cs),
(752,998,l)
);
}
);
width = 1380;
},
{
background = {
shapes = (
{
closed = 1;
nodes = (
(263,801,o),
(73,653,o),
(30,392,cs),
(-12,131,o),
(154,-20,o),
(478,-20,cs),
(490,-20,ls),
(823,-20,o),
(1027,121,o),
(1072,392,cs),
(1113,641,o),
(961,801,o),
(638,802,cs),
(602,802,ls)
);
},
{
closed = 1;
nodes = (
(938,755,o),
(1063,621,o),
(1026,392,cs),
(987,155,o),
(801,26,o),
(498,26,cs),
(482,26,ls),
(177,26,o),
(38,154,o),
(78,392,cs),
(115,620,o),
(284,755,o),
(594,754,cs),
(628,754,ls)
);
},
{
closed = 1;
nodes = (
(316,801,o),
(183,914,o),
(216,1118,cs),
(243,1276,o),
(347,1371,o),
(474,1398,c),
(482,1448,l),
(321,1415,o),
(202,1307,o),
(170,1118,cs),
(132,892,o),
(293,755,o),
(594,754,cs),
(628,754,ls),
(941,755,o),
(1134,887,o),
(1170,1118,cs),
(1202,1311,o),
(1100,1431,o),
(942,1456,c),
(936,1408,l),
(1073,1385,o),
(1154,1290,o),
(1124,1118,cs),
(1090,919,o),
(914,801,o),
(638,802,cs),
(602,802,ls)
);
}
);
};
layerId = "200BE2C5-40F6-4CF4-AF4F-A33C0CC0964F";
shapes = (
{
closed = 1;
nodes = (
(265,831,o),
(78,685,o),
(32,406,cs),
(-13,129,o),
(151,-20,o),
(476,-20,cs),
(488,-20,ls),
(826,-20,o),
(1025,117,o),
(1074,406,cs),
(1118,675,o),
(971,831,o),
(640,830,cs),
(606,830,ls)
);
},
{
closed = 1;
nodes = (
(943,784,o),
(1067,650,o),
(1026,406,cs),
(985,153,o),
(802,26,o),
(498,26,cs),
(482,26,ls),
(175,26,o),
(37,154,o),
(78,406,cs),
(119,652,o),
(285,784,o),
(598,784,cs),
(632,784,ls)
);
},
{
closed = 1;
nodes = (
(324,831,o),
(187,940,o),
(224,1166,cs),
(252,1334,o),
(355,1433,o),
(484,1460,c),
(494,1510,l),
(329,1477,o),
(211,1365,o),
(178,1166,cs),
(136,916,o),
(298,784,o),
(598,784,cs),
(632,784,ls),
(944,784,o),
(1137,912,o),
(1178,1166,cs),
(1211,1367,o),
(1109,1493,o),
(952,1518,c),
(944,1470,l),
(1080,1449,o),
(1161,1344,o),
(1132,1166,cs),
(1095,941,o),
(921,831,o),
(642,830,cs),
(606,830,ls)
);
}
);
width = 1158;
}
);
tags = (
"TODO-opsz"
);
unicode = 546;
userData = {
interface.gridadjust.original = "{'width': 1873, 'leftMargin': 161, 'rightMargin': 161}";
"interface.width-adjustments" = (
-16
);
};
},
{
color = 6;
glyphname = uni0224;
kernLeft = Z;
kernRight = Z;
lastChange = "2022-07-22 10:10:35 +0000";
layers = (
{
layerId = "11F4534A-B963-4AB5-820F-DAF9A20CD933";
shapes = (
{
closed = 1;
nodes = (
(1014,1330,l),
(14,130,l),
(-10,0,l),
(732,0,ls),
(833,0,o),
(854,-81,o),
(840,-166,cs),
(830,-222,l),
(994,-222,l),
(1008,-134,ls),
(1037,41,o),
(941,160,o),
(758,160,cs),
(232,160,l),
(1234,1358,l),
(1256,1490,l),
(228,1490,l),
(202,1330,l)
);
}
);
width = 1184;
},
{
layerId = "D0EC06BF-13F9-4C88-A6F5-B8203AF6C77E";
shapes = (
{
closed = 1;
nodes = (
(892,1164,l),
(22,224,l),
(-16,0,l),
(746,0,ls),
(885,0,o),
(894,-87,o),
(874,-190,cs),
(860,-280,l),
(1184,-280,l),
(1212,-116,ls),
(1257,163,o),
(1118,326,o),
(802,326,cs),
(544,326,l),
(1414,1266,l),
(1450,1490,l),
(234,1490,l),
(180,1164,l)
);
}
);
width = 1374;
},
{
layerId = "200BE2C5-40F6-4CF4-AF4F-A33C0CC0964F";
shapes = (
{
closed = 1;
nodes = (
(1146,1442,l),
(44,46,l),
(34,0,l),
(772,0,ls),
(884,0,o),
(918,-52,o),
(896,-182,c),
(896,-186,l),
(942,-186,l),
(946,-156,ls),
(969,-29,o),
(909,47,o),
(782,46,cs),
(102,46,l),
(1208,1442,l),
(1214,1490,l),
(288,1490,l),
(282,1442,l)
);
}
);
width = 1194;
}
);
note = "!post:RemoveOverlap";
tags = (
"TODO-opsz"
);
unicode = 548;
userData = {
interface.gridadjust.original = "{'width': 1724, 'leftMargin': 118, 'rightMargin': 44}";
"interface.width-adjustments" = (
-16
);
};
},
{
color = 3;
glyphname = uni023A;
kernLeft = A;
kernRight = A;
lastChange = "2022-07-22 10:10:35 +0000";
layers = (
{
layerId = "11F4534A-B963-4AB5-820F-DAF9A20CD933";
shapes = (
{
closed = 1;
nodes = (
(1116,1678,l),
(142,-190,l),
(306,-190,l),
(1282,1678,l)
);
},
{
ref = A;
}
);
width = 1290;
},
{
layerId = "D0EC06BF-13F9-4C88-A6F5-B8203AF6C77E";
shapes = (
{
closed = 1;
nodes = (
(1282,1678,l),
(406,-190,l),
(614,-190,l),
(1488,1678,l)
);
},
{
ref = A;
}
);
width = 1582;
},
{
layerId = "200BE2C5-40F6-4CF4-AF4F-A33C0CC0964F";
shapes = (
{
closed = 1;
nodes = (
(1092,1678,l),
(120,-190,l),
(168,-190,l),
(1140,1678,l)
);
},
{
alignment = -1;
ref = A;
}
);
width = 1262;
}
);
metricLeft = A;
metricRight = A;
unicode = 570;
userData = {
interface.gridadjust.original = "{'width': 1855, 'leftMargin': -226, 'rightMargin': -8}";
};
},
{
color = 3;
glyphname = uni023B;
kernLeft = C;
kernRight = C;
lastChange = "2022-07-22 10:10:35 +0000";
layers = (
{
guides = (
{
angle = 90;
pos = (1248,1756);
}
);
layerId = "11F4534A-B963-4AB5-820F-DAF9A20CD933";
shapes = (
{
closed = 1;
nodes = (
(330,-190,l),
(1304,1678,l),
(1138,1678,l),
(164,-190,l)
);
},
{
ref = C;
}
);
width = 1395;
},
{
layerId = "D0EC06BF-13F9-4C88-A6F5-B8203AF6C77E";
shapes = (
{
closed = 1;
nodes = (
(462,-190,l),
(1338,1678,l),
(1130,1678,l),
(256,-190,l)
);
},
{
ref = C;
}
);
width = 1525;
},
{
layerId = "200BE2C5-40F6-4CF4-AF4F-A33C0CC0964F";
shapes = (
{
closed = 1;
nodes = (
(290,-190,l),
(1326,1678,l),
(1278,1678,l),
(242,-190,l)
);
},
{
ref = C;
}
);
width = 1481;
}
);
metricLeft = C;
metricRight = C;
unicode = 571;
userData = {
com.typemytype.robofont.guideline.magnetic.7GS4PBDdqi = 5;
interface.gridadjust.original = "{'width': 1834, 'leftMargin': 256, 'rightMargin': 2}";
"interface.width-adjustments" = (
-16
);
};
},
{
color = 3;
glyphname = uni023E;
kernLeft = T;
kernRight = T;
lastChange = "2022-07-22 10:10:35 +0000";
layers = (
{
layerId = "11F4534A-B963-4AB5-820F-DAF9A20CD933";
shapes = (
{
closed = 1;
nodes = (
(254,-190,l),
(1230,1678,l),
(1064,1678,l),
(88,-190,l)
);
},
{
ref = T;
}
);
width = 1218;
},
{
layerId = "D0EC06BF-13F9-4C88-A6F5-B8203AF6C77E";
shapes = (
{
closed = 1;
nodes = (
(404,-190,l),
(1280,1678,l),
(1072,1678,l),
(198,-190,l)
);
},
{
ref = T;
}
);
width = 1358;
},
{
layerId = "200BE2C5-40F6-4CF4-AF4F-A33C0CC0964F";
shapes = (
{
closed = 1;
nodes = (
(178,-190,l),
(1210,1678,l),
(1162,1678,l),
(130,-190,l)
);
},
{
alignment = -1;
ref = T;
}
);
width = 1256;
}
);
metricLeft = T;
metricRight = T;
tags = (
"TODO-opsz"
);
unicode = 574;
userData = {
interface.gridadjust.original = "{'width': 1680, 'leftMargin': 128, 'rightMargin': 16}";
"interface.width-adjustments" = (
-16
);
};
},
{
color = 6;
glyphname = uni0241;
lastChange = "2022-07-22 10:10:35 +0000";
layers = (
{
background = {
shapes = (
{
closed = 1;
nodes = (
(436,280,l),
(480,280,ls),
(812,279,o),
(1015,532,o),
(1062,820,cs),
(1082,936,ls),
(1129,1225,o),
(1009,1478,o),
(678,1478,cs),
(419,1478,o),
(218,1303,o),
(172,1070,c),
(366,1070,l),
(399,1210,o),
(503,1303,o),
(648,1304,cs),
(873,1303,o),
(905,1117,o),
(876,936,cs),
(856,820,ls),
(823,637,o),
(736,454,o),
(510,454,c),
(466,454,l)
);
},
{
closed = 1;
nodes = (
(414,454,l),
(338,0,l),
(546,0,l),
(622,454,l)
);
}
);
};
layerId = "11F4534A-B963-4AB5-820F-DAF9A20CD933";
shapes = (
{
closed = 1;
nodes = (
(388,280,l),
(432,280,ls),
(764,279,o),
(966,534,o),
(1014,820,cs),
(1038,968,ls),
(1087,1255,o),
(966,1510,o),
(634,1510,cs),
(375,1510,o),
(175,1335,o),
(128,1102,c),
(322,1102,l),
(355,1242,o),
(460,1335,o),
(606,1336,cs),
(829,1335,o),
(862,1150,o),
(832,968,cs),
(808,820,ls),
(777,636,o),
(688,454,o),
(462,454,c),
(418,454,l)
);
},
{
closed = 1;
nodes = (
(366,454,l),
(290,0,l),
(498,0,l),
(574,454,l)
);
}
);
width = 1010;
},
{
background = {
shapes = (
{
closed = 1;
nodes = (
(396,238,l),
(536,238,ls),
(889,239,o),
(1130,468,o),
(1184,788,cs),
(1208,920,ls),
(1258,1245,o),
(1089,1478,o),
(742,1478,cs),
(458,1478,o),
(199,1303,o),
(158,1012,c),
(532,1012,l),
(540,1091,o),
(595,1161,o),
(698,1160,cs),
(845,1161,o),
(819,1007,o),
(808,920,cs),
(786,788,ls),
(761,640,o),
(723,553,o),
(600,552,cs),
(448,552,l,{
name = hr00;
})
);
},
{
closed = 1;
nodes = (
(418,552,l),
(326,0,l),
(718,0,l),
(812,552,l)
);
}
);
};
layerId = "D0EC06BF-13F9-4C88-A6F5-B8203AF6C77E";
shapes = (
{
closed = 1;
nodes = (
(372,238,l),
(512,238,ls),
(865,239,o),
(1105,469,o),
(1160,788,cs),
(1188,952,ls),
(1243,1276,o),
(1070,1510,o),
(722,1510,cs),
(439,1510,o),
(180,1335,o),
(138,1044,c),
(512,1044,l),
(520,1123,o),
(575,1193,o),
(678,1192,cs),
(825,1193,o),
(804,1038,o),
(790,952,cs),
(762,788,ls),
(736,640,o),
(699,553,o),
(576,552,cs),
(424,552,l,{
name = hr00;
})
);
},
{
closed = 1;
nodes = (
(394,552,l),
(302,0,l),
(694,0,l),
(788,552,l)
);
}
);
width = 1176;
},
{
background = {
shapes = (
{
closed = 1;
nodes = (
(440,350,l),
(456,350,l),
(750,349,o),
(933,510,o),
(984,812,cs),
(1018,1022,ls),
(1065,1303,o),
(935,1478,o),
(678,1478,cs),
(420,1478,o),
(233,1338,o),
(180,1106,c),
(226,1106,l),
(270,1303,o),
(444,1430,o),
(670,1430,cs),
(909,1430,o),
(1015,1287,o),
(972,1022,cs),
(936,812,ls),
(892,539,o),
(724,394,o),
(456,396,c),
(446,396,l,{
name = hr00;
})
);
},
{
closed = 1;
nodes = (
(438,396,l),
(372,0,l),
(418,0,l),
(484,396,l)
);
}
);
};
layerId = "200BE2C5-40F6-4CF4-AF4F-A33C0CC0964F";
shapes = (
{
closed = 1;
nodes = (
(440,350,l),
(456,350,l),
(750,349,o),
(932,508,o),
(984,812,cs),
(1024,1054,ls),
(1072,1337,o),
(941,1510,o),
(684,1510,cs),
(426,1510,o),
(239,1370,o),
(186,1138,c),
(232,1138,l),
(276,1335,o),
(449,1462,o),
(676,1462,cs),
(915,1462,o),
(1023,1319,o),
(978,1054,cs),
(936,812,ls),
(890,537,o),
(724,394,o),
(456,396,c),
(446,396,l,{
name = hr00;
})
);
},
{
closed = 1;
nodes = (
(438,396,l),
(372,0,l),
(418,0,l),
(484,396,l)
);
}
);
width = 1032;
}
);
tags = (
"TODO-opsz"
);
unicode = 577;
userData = {
interface.gridadjust.original = "{'width': 1526, 'leftMargin': 88, 'rightMargin': 156}";
"interface.width-adjustments" = (
-16
);
};
},
{
color = 3;
glyphname = uni0244;
kernLeft = U;
kernRight = J;
lastChange = "2022-07-22 10:10:35 +0000";
layers = (
{
guides = (
{
angle = 90;
pos = (940,148);
}
);
layerId = "11F4534A-B963-4AB5-820F-DAF9A20CD933";
shapes = (
{
closed = 1;
nodes = (
(-4,864,l),
(-22,744,l),
(1508,744,l),
(1526,864,l)
);
},
{
ref = U;
}
);
width = 1422;
},
{
layerId = "D0EC06BF-13F9-4C88-A6F5-B8203AF6C77E";
shapes = (
{
closed = 1;
nodes = (
(10,834,l),
(-26,614,l),
(1578,614,l),
(1616,834,l)
);
},
{
pos = (62,0);
ref = U;
}
);
width = 1534;
},
{
layerId = "200BE2C5-40F6-4CF4-AF4F-A33C0CC0964F";
shapes = (
{
closed = 1;
nodes = (
(50,876,l),
(40,830,l),
(1528,830,l),
(1536,876,l)
);
},
{
alignment = -1;
pos = (-38,0);
ref = U;
}
);
width = 1480;
}
);
tags = (
"TODO-opsz"
);
unicode = 580;
userData = {
com.typemytype.robofont.guideline.magnetic.DxUS4DFy1H = 5;
interface.gridadjust.original = "{'width': 2199, 'leftMargin': 41, 'rightMargin': 42}";
"interface.width-adjustments" = (
-16
);
};
},
{
color = 6;
glyphname = uni0245;
lastChange = "2022-07-22 10:10:35 +0000";
layers = (
{
background = {
shapes = (
{
closed = 1;
nodes = (
(1278,0,l),
(978,1458,l),
(818,1458,l),
(832,1228,l),
(1050,0,l)
);
},
{
closed = 1;
nodes = (
(958,1458,l),
(798,1458,l),
(18,0,l),
(244,0,l),
(864,1228,l)
);
}
);
};
layerId = "11F4534A-B963-4AB5-820F-DAF9A20CD933";
shapes = (
{
closed = 1;
nodes = (
(1230,0,l),
(936,1490,l),
(776,1490,l),
(790,1260,l),
(1002,0,l)
);
},
{
closed = 1;
nodes = (
(914,1490,l),
(754,1490,l),
(-30,0,l),
(196,0,l),
(822,1260,l)
);
}
);
width = 1382;
},
{
background = {
shapes = (
{
closed = 1;
nodes = (
(1438,0,l),
(1172,1458,l),
(890,1458,l),
(878,1068,l),
(1000,0,l)
);
},
{
closed = 1;
nodes = (
(1022,1458,l),
(738,1458,l),
(-8,0,l),
(428,0,l),
(908,1068,l)
);
}
);
};
layerId = "D0EC06BF-13F9-4C88-A6F5-B8203AF6C77E";
shapes = (
{
closed = 1;
nodes = (
(1414,0,l),
(1152,1490,l),
(870,1490,l),
(858,1100,l),
(976,0,l)
);
},
{
closed = 1;
nodes = (
(1002,1490,l),
(720,1490,l),
(-32,0,l),
(404,0,l),
(888,1100,l)
);
}
);
width = 1570;
},
{
background = {
shapes = (
{
closed = 1;
nodes = (
(1158,0,l),
(866,1458,l),
(814,1458,l),
(826,1422,l),
(1112,0,l)
);
},
{
closed = 1;
nodes = (
(850,1458,l),
(802,1458,l),
(30,0,l),
(82,0,l),
(838,1424,l)
);
},
{
closed = 1;
nodes = (
(1158,0,l),
(866,1458,l),
(814,1458,l),
(826,1422,l),
(1112,0,l)
);
},
{
closed = 1;
nodes = (
(850,1458,l),
(802,1458,l),
(30,0,l),
(82,0,l),
(838,1424,l)
);
}
);
};
layerId = "200BE2C5-40F6-4CF4-AF4F-A33C0CC0964F";
shapes = (
{
closed = 1;
nodes = (
(1158,0,l),
(872,1490,l),
(818,1490,l),
(830,1454,l),
(1112,0,l)
);
},
{
closed = 1;
nodes = (
(856,1490,l),
(808,1490,l),
(30,0,l),
(82,0,l),
(842,1456,l)
);
}
);
width = 1370;
}
);
tags = (
"TODO-opsz"
);
unicode = 581;
userData = {
interface.gridadjust.original = "{'width': 1805, 'leftMargin': 37, 'rightMargin': 37}";
"interface.width-adjustments" = (
-16
);
};
},
{
color = 3;
glyphname = uni0246;
kernLeft = B;
kernRight = E;
lastChange = "2022-07-22 10:10:35 +0000";
layers = (
{
layerId = "11F4534A-B963-4AB5-820F-DAF9A20CD933";
shapes = (
{
closed = 1;
nodes = (
(1000,1678,l),
(150,-190,l),
(316,-190,l),
(1166,1678,l)
);
},
{
ref = E;
}
);
width = 1128;
},
{
layerId = "D0EC06BF-13F9-4C88-A6F5-B8203AF6C77E";
shapes = (
{
closed = 1;
nodes = (
(1024,1678,l),
(174,-190,l),
(340,-190,l),
(1190,1678,l)
);
},
{
ref = E;
}
);
width = 1226;
},
{
layerId = "200BE2C5-40F6-4CF4-AF4F-A33C0CC0964F";
shapes = (
{
closed = 1;
nodes = (
(290,-190,l),
(1142,1678,l),
(1096,1678,l),
(242,-190,l)
);
},
{
alignment = -1;
ref = E;
}
);
width = 1196;
}
);
metricLeft = E;
metricRight = E;
unicode = 582;
userData = {
interface.gridadjust.original = "{'width': 1601, 'leftMargin': 256, 'rightMargin': 65}";
"interface.width-adjustments" = (
-16
);
};
},
{
color = 3;
glyphname = uni024C;
kernLeft = B;
kernRight = R;
lastChange = "2022-07-22 10:10:35 +0000";
layers = (
{
layerId = "11F4534A-B963-4AB5-820F-DAF9A20CD933";
shapes = (
{
closed = 1;
nodes = (
(284,744,l),
(8,744,l),
(-18,582,l),
(258,582,l)
);
},
{
pos = (18,0);
ref = R;
}
);
width = 1204;
},
{
layerId = "D0EC06BF-13F9-4C88-A6F5-B8203AF6C77E";
shapes = (
{
closed = 1;
nodes = (
(400,812,l),
(32,812,l),
(-16,526,l),
(354,526,l)
);
},
{
pos = (40,0);
ref = R;
}
);
width = 1372;
},
{
layerId = "200BE2C5-40F6-4CF4-AF4F-A33C0CC0964F";
shapes = (
{
closed = 1;
nodes = (
(274,690,l),
(54,690,l),
(46,642,l),
(266,642,l)
);
},
{
alignment = -1;
pos = (2,0);
ref = R;
}
);
width = 1270;
}
);
tags = (
"TODO-opsz"
);
unicode = 588;
userData = {
interface.gridadjust.original = "{'width': 1816, 'leftMargin': 55, 'rightMargin': 33}";
"interface.width-adjustments" = (
-16
);
};
},
{
color = 3;
glyphname = uni024E;
kernLeft = Y;
kernRight = Y;
lastChange = "2022-07-22 10:10:35 +0000";
layers = (
{
guides = (
{
angle = 90;
pos = (1044,1188);
}
);
layerId = "11F4534A-B963-4AB5-820F-DAF9A20CD933";
shapes = (
{
closed = 1;
nodes = (
(62,1184,l),
(42,1064,l),
(1398,1064,l),
(1418,1184,l)
);
},
{
ref = Y;
}
);
width = 1272;
},
{
layerId = "D0EC06BF-13F9-4C88-A6F5-B8203AF6C77E";
shapes = (
{
closed = 1;
nodes = (
(104,1176,l),
(72,986,l),
(1584,986,l),
(1616,1176,l)
);
},
{
ref = Y;
}
);
width = 1518;
},
{
layerId = "200BE2C5-40F6-4CF4-AF4F-A33C0CC0964F";
shapes = (
{
closed = 1;
nodes = (
(98,1174,l),
(88,1128,l),
(1352,1128,l),
(1360,1174,l)
);
},
{
alignment = -1;
ref = Y;
}
);
width = 1248;
}
);
tags = (
"TODO-opsz"
);
unicode = 590;
userData = {
com.typemytype.robofont.guideline.magnetic.lWiVRVgKy6 = 5;
interface.gridadjust.original = "{'width': 1911, 'leftMargin': 41, 'rightMargin': 41}";
"interface.width-adjustments" = (
-16
);
};
},
{
color = 6;
glyphname = uni1EFC;
lastChange = "2022-07-22 10:10:35 +0000";
layers = (
{
layerId = "11F4534A-B963-4AB5-820F-DAF9A20CD933";
shapes = (
{
closed = 1;
nodes = (
(676,777,o),
(787,660,o),
(750,434,cs),
(717,247,o),
(607,143,o),
(440,142,cs),
(307,143,o),
(196,279,o),
(240,538,cs),
(260,670,ls),
(316,1004,o),
(479,1225,o),
(818,1292,c),
(814,1458,l),
(287,1364,o),
(118,1018,o),
(48,600,cs),
(40,544,ls),
(-4,276,o),
(95,-20,o),
(414,-20,cs),
(717,-20,o),
(900,163,o),
(950,448,cs),
(993,713,o),
(857,916,o),
(622,978,c),
(542,814,l,{
name = hr00;
})
);
}
);
width = 1010;
},
{
layerId = "D0EC06BF-13F9-4C88-A6F5-B8203AF6C77E";
shapes = (
{
closed = 1;
nodes = (
(879,634,o),
(911,550,o),
(892,456,cs),
(876,355,o),
(791,294,o),
(688,294,cs),
(544,294,o),
(518,381,o),
(538,510,cs),
(552,596,ls),
(625,1027,o),
(896,1146,o),
(1142,1182,c),
(1162,1486,l),
(739,1457,o),
(244,1164,o),
(160,642,cs),
(148,576,ls),
(81,166,o),
(314,-20,o),
(648,-20,cs),
(966,-20,o),
(1236,157,o),
(1290,480,cs),
(1327,692,o),
(1190,867,o),
(1026,966,c),
(794,710,l)
);
}
);
width = 1444;
},
{
background = {
shapes = (
{
closed = 1;
nodes = (
(674,827,o),
(799,673,o),
(760,430,cs),
(722,203,o),
(548,26,o),
(364,26,cs),
(129,26,o),
(24,241,o),
(94,612,cs),
(104,668,ls),
(175,1060,o),
(351,1298,o),
(662,1390,c),
(654,1432,l),
(324,1340,o),
(134,1090,o),
(60,690,cs),
(48,626,ls),
(-28,223,o),
(98,-20,o),
(354,-20,cs),
(572,-20,o),
(762,169,o),
(806,430,cs),
(849,687,o),
(701,875,o),
(470,936,c),
(450,894,l)
);
}
);
};
layerId = "200BE2C5-40F6-4CF4-AF4F-A33C0CC0964F";
shapes = (
{
closed = 1;
nodes = (
(674,827,o),
(799,673,o),
(760,430,cs),
(722,203,o),
(548,26,o),
(364,26,cs),
(129,26,o),
(24,241,o),
(94,612,cs),
(104,668,ls),
(175,1060,o),
(351,1298,o),
(662,1390,c),
(654,1432,l),
(324,1340,o),
(134,1090,o),
(60,690,cs),
(48,626,ls),
(-28,223,o),
(98,-20,o),
(354,-20,cs),
(572,-20,o),
(762,169,o),
(806,430,cs),
(849,687,o),
(701,875,o),
(470,936,c),
(450,894,l)
);
}
);
width = 868;
}
);
tags = (
"TODO-opsz"
);
unicode = 7932;
userData = {
interface.gridadjust.original = "{'width': 1594, 'leftMargin': 161, 'rightMargin': 163}";
"interface.width-adjustments" = (
-16
);
};
},
{
color = 6;
glyphname = uni1EFE;
lastChange = "2022-07-22 10:10:35 +0000";
layers = (
{
layerId = "11F4534A-B963-4AB5-820F-DAF9A20CD933";
shapes = (
{
closed = 1;
nodes = (
(668,506,l),
(630,158,l),
(1494,1490,l),
(1264,1490,l),
(682,556,l)
);
},
{
closed = 1;
nodes = (
(270,1490,l),
(630,504,l),
(754,504,l),
(808,568,l),
(498,1490,l)
);
},
{
closed = 1;
nodes = (
(490,-20,o),
(671,131,o),
(700,320,cs),
(729,489,o),
(624,660,o),
(418,660,cs),
(228,660,o),
(51,506,o),
(18,320,cs),
(-10,131,o),
(115,-20,o),
(304,-20,cs)
);
},
{
closed = 1;
nodes = (
(246,160,o),
(188,215,o),
(206,320,cs),
(225,428,o),
(301,483,o),
(388,482,cs),
(473,483,o),
(531,428,o),
(510,320,cs),
(493,215,o),
(417,160,o),
(334,160,cs)
);
}
);
width = 1382;
},
{
layerId = "D0EC06BF-13F9-4C88-A6F5-B8203AF6C77E";
shapes = (
{
closed = 1;
nodes = (
(774,526,l),
(838,230,l),
(1726,1490,l),
(1312,1490,l),
(790,690,l)
);
},
{
closed = 1;
nodes = (
(326,1490,l),
(694,472,l),
(892,472,l),
(982,672,l),
(738,1490,l)
);
},
{
closed = 1;
nodes = (
(636,-20,o),
(881,186,o),
(922,434,cs),
(965,695,o),
(782,893,o),
(528,894,cs),
(270,893,o),
(25,684,o),
(-16,434,cs),
(-56,183,o),
(121,-20,o),
(378,-20,cs)
);
},
{
closed = 1;
nodes = (
(345,291,o),
(293,343,o),
(308,440,cs),
(325,532,o),
(392,585,o),
(476,584,cs),
(558,585,o),
(616,532,o),
(598,440,cs),
(584,343,o),
(511,291,o),
(430,290,cs)
);
}
);
width = 1558;
},
{
layerId = "200BE2C5-40F6-4CF4-AF4F-A33C0CC0964F";
shapes = (
{
closed = 1;
nodes = (
(670,232,l),
(656,166,l),
(1428,1490,l),
(1376,1490,l),
(674,284,l)
);
},
{
closed = 1;
nodes = (
(384,1490,l),
(686,292,l),
(708,304,l),
(728,318,l),
(432,1490,l)
);
},
{
closed = 1;
nodes = (
(524,-17,o),
(658,97,o),
(684,250,cs),
(707,388,o),
(601,515,o),
(456,514,cs),
(308,515,o),
(175,400,o),
(150,250,cs),
(125,105,o),
(228,-17,o),
(374,-18,cs)
);
},
{
closed = 1;
nodes = (
(256,28,o),
(176,123,o),
(196,250,cs),
(215,368,o),
(333,468,o),
(454,468,cs),
(577,468,o),
(655,373,o),
(636,250,cs),
(617,129,o),
(502,31,o),
(382,30,cs)
);
}
);
width = 1414;
}
);
tags = (
"TODO-opsz"
);
unicode = 7934;
userData = {
interface.gridadjust.original = "{'width': 1859.0, 'leftMargin': 36, 'rightMargin': 84.0}";
"interface.width-adjustments" = (
-16
);
};
},
{
color = 6;
glyphname = uni2C7F;
kernLeft = Z;
kernRight = Z;
lastChange = "2022-07-22 10:10:35 +0000";
layers = (
{
layerId = "11F4534A-B963-4AB5-820F-DAF9A20CD933";
shapes = (
{
closed = 1;
nodes = (
(863,-436,o),
(932,-425,o),
(968,-410,c),
(994,-250,l),
(953,-259,o),
(912,-268,o),
(856,-268,cs),
(644,-268,o),
(586,84,o),
(226,152,c),
(1234,1358,l),
(1256,1490,l),
(228,1490,l),
(202,1330,l),
(1014,1330,l),
(14,130,l),
(-10,0,l),
(68,0,ls),
(438,0,o),
(493,-436,o),
(796,-436,cs)
);
}
);
width = 1184;
},
{
background = {
shapes = (
{
closed = 1;
nodes = (
(1044,-436,o),
(1108,-422,o),
(1160,-402,c),
(1214,-98,l),
(1161,-116,o),
(1108,-122,o),
(1054,-122,cs),
(852,-122,o),
(780,151,o),
(538,268,c),
(1416,1246,l),
(1448,1446,l),
(248,1446,l),
(194,1128,l),
(882,1128,l),
(40,204,l),
(6,0,l),
(120,0,ls),
(564,0,o),
(559,-436,o),
(974,-436,cs)
);
},
{
closed = 1;
nodes = (
(1044,-436,o),
(1108,-422,o),
(1160,-402,c),
(1214,-98,l),
(1161,-116,o),
(1108,-122,o),
(1054,-122,cs),
(852,-122,o),
(780,151,o),
(538,268,c),
(1416,1246,l),
(1448,1446,l),
(248,1446,l),
(194,1128,l),
(882,1128,l),
(40,204,l),
(6,0,l),
(120,0,ls),
(564,0,o),
(559,-436,o),
(974,-436,cs)
);
}
);
};
layerId = "D0EC06BF-13F9-4C88-A6F5-B8203AF6C77E";
shapes = (
{
closed = 1;
nodes = (
(1020,-436,o),
(1084,-422,o),
(1136,-402,c),
(1190,-98,l),
(1137,-116,o),
(1084,-122,o),
(1030,-122,cs),
(828,-122,o),
(756,151,o),
(514,268,c),
(1398,1288,l),
(1430,1490,l),
(230,1490,l),
(176,1172,l),
(864,1172,l),
(16,204,l),
(-18,0,l),
(96,0,ls),
(540,0,o),
(535,-436,o),
(950,-436,cs)
);
}
);
width = 1374;
},
{
layerId = "200BE2C5-40F6-4CF4-AF4F-A33C0CC0964F";
shapes = (
{
closed = 1;
nodes = (
(860,-436,o),
(911,-425,o),
(934,-416,c),
(940,-376,l),
(908,-383,o),
(872,-390,o),
(842,-390,cs),
(580,-390,o),
(482,46,o),
(104,46,c),
(1210,1442,l),
(1216,1490,l),
(290,1490,l),
(286,1442,l),
(1150,1442,l),
(46,46,l),
(38,0,l),
(94,0,ls),
(457,0,o),
(556,-436,o),
(818,-436,cs)
);
}
);
width = 1194;
}
);
tags = (
"TODO-opsz"
);
unicode = 11391;
userData = {
interface.gridadjust.original = "{'width': 1687, 'leftMargin': 117, 'rightMargin': 115}";
"interface.width-adjustments" = (
-16
);
};
},
{
color = 6;
glyphname = Gsmallcap;
lastChange = "2022-07-22 10:10:35 +0000";
layers = (
{
layerId = "11F4534A-B963-4AB5-820F-DAF9A20CD933";
shapes = (
{
closed = 1;
nodes = (
(626,552,l),
(600,392,l),
(882,392,l),
(854,224,l),
(816,198,o),
(703,140,o),
(546,140,cs),
(348,140,o),
(225,279,o),
(258,462,cs),
(284,626,ls),
(313,806,o),
(487,945,o),
(674,946,cs),
(839,945,o),
(932,873,o),
(926,736,c),
(1106,736,l),
(1121,945,o),
(1005,1103,o),
(700,1102,cs),
(400,1103,o),
(153,908,o),
(106,626,cs),
(80,462,ls),
(31,177,o),
(211,-20,o),
(520,-20,cs),
(787,-20,o),
(953,90,o),
(1014,158,c),
(1080,552,l)
);
}
);
width = 1196;
},
{
layerId = "D0EC06BF-13F9-4C88-A6F5-B8203AF6C77E";
shapes = (
{
closed = 1;
nodes = (
(712,610,l),
(674,376,l),
(866,376,l),
(852,294,l),
(812,276,o),
(797,282,o),
(672,282,cs),
(535,282,o),
(492,358,o),
(508,462,cs),
(534,628,ls),
(553,736,o),
(617,806,o),
(736,806,cs),
(844,806,o),
(881,785,o),
(886,706,c),
(1264,706,l),
(1283,998,o),
(1100,1103,o),
(784,1102,cs),
(460,1103,o),
(198,911,o),
(150,626,cs),
(124,462,ls),
(76,177,o),
(285,-17,o),
(622,-18,cs),
(954,-17,o),
(1091,81,o),
(1190,166,c),
(1262,610,l)
);
}
);
width = 1384;
},
{
layerId = "200BE2C5-40F6-4CF4-AF4F-A33C0CC0964F";
shapes = (
{
closed = 1;
nodes = (
(634,486,l),
(626,440,l),
(978,440,l),
(934,168,l),
(879,99,o),
(663,22,o),
(530,24,cs),
(265,25,o),
(121,197,o),
(164,462,cs),
(192,626,ls),
(233,878,o),
(446,1055,o),
(708,1056,cs),
(924,1056,o),
(1036,951,o),
(1032,754,c),
(1076,754,l),
(1095,963,o),
(951,1103,o),
(716,1102,cs),
(421,1103,o),
(192,910,o),
(146,626,cs),
(118,462,ls),
(71,180,o),
(239,-22,o),
(524,-24,cs),
(694,-24,o),
(914,62,o),
(978,152,c),
(1032,486,l)
);
}
);
width = 1208;
}
);
tags = (
"TODO-opsz"
);
unicode = 610;
userData = {
interface.gridadjust.original = "{'width': 1700, 'leftMargin': 154, 'rightMargin': 159}";
"interface.width-adjustments" = (
-16
);
};
},
{
color = 6;
glyphname = Gsmallcaphook;
lastChange = "2022-07-22 10:10:35 +0000";
layers = (
{
layerId = "11F4534A-B963-4AB5-820F-DAF9A20CD933";
shapes = (
{
closed = 1;
nodes = (
(1130,856,ls),
(1151,972,o),
(1215,1012,o),
(1308,1012,cs),
(1322,1012,o),
(1345,1009,o),
(1360,1006,c),
(1384,1140,l),
(1357,1149,o),
(1316,1155,o),
(1288,1154,cs),
(1121,1155,o),
(1025,1047,o),
(994,856,cs),
(974,736,l),
(1110,736,l)
);
},
{
closed = 1;
nodes = (
(626,552,l),
(600,392,l),
(882,392,l),
(854,224,l),
(816,198,o),
(703,140,o),
(546,140,cs),
(348,140,o),
(225,279,o),
(258,462,cs),
(284,626,ls),
(313,806,o),
(487,945,o),
(674,946,cs),
(839,945,o),
(932,873,o),
(926,736,c),
(1106,736,l),
(1121,945,o),
(1005,1103,o),
(700,1102,cs),
(400,1103,o),
(153,908,o),
(106,626,cs),
(80,462,ls),
(31,177,o),
(211,-20,o),
(520,-20,cs),
(787,-20,o),
(953,90,o),
(1014,158,c),
(1080,552,l)
);
}
);
width = 1234;
},
{
layerId = "D0EC06BF-13F9-4C88-A6F5-B8203AF6C77E";
shapes = (
{
closed = 1;
nodes = (
(1312,864,ls),
(1328,960,o),
(1380,992,o),
(1466,992,cs),
(1500,992,o),
(1523,986,o),
(1552,984,c),
(1594,1230,l),
(1543,1242,o),
(1505,1248,o),
(1448,1248,cs),
(1212,1248,o),
(1037,1111,o),
(998,864,cs),
(970,706,l),
(1286,706,l)
);
},
{
closed = 1;
nodes = (
(732,610,l),
(694,376,l),
(886,376,l),
(872,294,l),
(831,276,o),
(816,282,o),
(692,282,cs),
(554,282,o),
(511,358,o),
(528,462,cs),
(554,628,ls),
(572,736,o),
(636,806,o),
(756,806,cs),
(863,806,o),
(900,785,o),
(906,706,c),
(1286,706,l),
(1302,998,o),
(1119,1103,o),
(806,1102,cs),
(479,1103,o),
(217,911,o),
(170,626,cs),
(144,462,ls),
(95,177,o),
(304,-17,o),
(642,-18,cs),
(973,-17,o),
(1110,81,o),
(1210,166,c),
(1282,610,l)
);
}
);
width = 1630;
},
{
layerId = "200BE2C5-40F6-4CF4-AF4F-A33C0CC0964F";
shapes = (
{
closed = 1;
nodes = (
(1086,884,ls),
(1104,1000,o),
(1153,1053,o),
(1254,1054,cs),
(1269,1053,o),
(1296,1052,o),
(1322,1048,c),
(1330,1096,l),
(1305,1098,o),
(1278,1100,o),
(1260,1100,cs),
(1130,1100,o),
(1063,1035,o),
(1038,884,cs),
(1016,754,l),
(1064,754,l,{
name = hr00;
})
);
},
{
closed = 1;
nodes = (
(620,486,l),
(612,440,l),
(964,440,l),
(920,168,l),
(865,99,o),
(649,22,o),
(516,24,cs),
(251,26,o),
(105,197,o),
(150,462,cs),
(178,626,ls),
(220,878,o),
(431,1055,o),
(694,1056,cs),
(910,1057,o),
(1021,951,o),
(1016,754,c),
(1062,754,l),
(1080,963,o),
(936,1103,o),
(702,1102,cs),
(407,1103,o),
(179,910,o),
(130,626,cs),
(104,462,ls),
(55,180,o),
(224,-22,o),
(510,-24,cs),
(679,-24,o),
(900,62,o),
(962,152,c),
(1018,486,l)
);
}
);
width = 1120;
}
);
tags = (
"TODO-opsz"
);
unicode = 667;
userData = {
interface.gridadjust.original = "{'width': 1748, 'leftMargin': 126, 'rightMargin': -13}";
"interface.width-adjustments" = (
-16
);
};
},
{
color = 6;
glyphname = Ismallcap;
lastChange = "2022-07-22 10:10:35 +0000";
layers = (
{
layerId = "11F4534A-B963-4AB5-820F-DAF9A20CD933";
shapes = (
{
closed = 1;
nodes = (
(158,1082,l),
(132,922,l),
(630,922,l),
(656,1082,l)
);
},
{
closed = 1;
nodes = (
(304,1082,l),
(124,0,l),
(324,0,l),
(504,1082,l)
);
},
{
closed = 1;
nodes = (
(4,160,l),
(-22,0,l),
(476,0,l),
(502,160,l)
);
}
);
width = 638;
},
{
guides = (
{
angle = 90;
pos = (260,0);
}
);
layerId = "D0EC06BF-13F9-4C88-A6F5-B8203AF6C77E";
shapes = (
{
closed = 1;
nodes = (
(270,1082,l),
(220,782,l),
(912,782,l),
(962,1082,l,{
name = hr00;
})
);
},
{
closed = 1;
nodes = (
(426,1082,l),
(246,0,l),
(622,0,l),
(802,1082,l)
);
},
{
closed = 1;
nodes = (
(138,302,l),
(90,0,l),
(782,0,l),
(832,302,l)
);
}
);
width = 1058;
},
{
layerId = "200BE2C5-40F6-4CF4-AF4F-A33C0CC0964F";
shapes = (
{
closed = 1;
nodes = (
(154,1082,l),
(146,1036,l),
(528,1036,l),
(536,1082,l,{
name = hr00;
})
);
},
{
closed = 1;
nodes = (
(318,1082,l),
(138,0,l),
(184,0,l),
(366,1082,l)
);
},
{
closed = 1;
nodes = (
(-18,46,l),
(-26,0,l),
(354,0,l),
(362,46,l)
);
}
);
width = 506;
}
);
tags = (
"TODO-opsz"
);
unicode = 618;
userData = {
interface.gridadjust.original = "{'width': 958, 'leftMargin': 138, 'rightMargin': 137}";
"interface.width-adjustments" = (
-16
);
};
},
{
color = 6;
glyphname = Lsmallcap;
lastChange = "2022-07-22 10:10:35 +0000";
layers = (
{
layerId = "11F4534A-B963-4AB5-820F-DAF9A20CD933";
shapes = (
{
closed = 1;
nodes = (
(138,158,l),
(112,0,l),
(682,0,l),
(708,158,l)
);
},
{
closed = 1;
nodes = (
(138,1082,l),
(-42,0,l),
(158,0,l),
(338,1082,l)
);
}
);
width = 824;
},
{
layerId = "D0EC06BF-13F9-4C88-A6F5-B8203AF6C77E";
shapes = (
{
closed = 1;
nodes = (
(246,300,l),
(198,0,l),
(826,0,l),
(874,300,l)
);
},
{
closed = 1;
nodes = (
(154,1082,l),
(-26,0,l),
(352,0,l),
(532,1082,l)
);
}
);
width = 984;
},
{
layerId = "200BE2C5-40F6-4CF4-AF4F-A33C0CC0964F";
shapes = (
{
closed = 1;
nodes = (
(30,46,l),
(24,0,l),
(660,0,l),
(668,46,l)
);
},
{
closed = 1;
nodes = (
(192,1082,l),
(12,0,l),
(58,0,l),
(238,1082,l)
);
}
);
width = 850;
}
);
tags = (
"TODO-opsz"
);
unicode = 671;
userData = {
interface.gridadjust.original = "{'width': 1239, 'leftMargin': 188, 'rightMargin': 56}";
"interface.width-adjustments" = (
-16
);
};
},
{
color = 6;
glyphname = Nsmallcap;
kernLeft = m;
kernRight = u;
lastChange = "2022-07-22 10:10:35 +0000";
layers = (
{
layerId = "11F4534A-B963-4AB5-820F-DAF9A20CD933";
shapes = (
{
closed = 1;
nodes = (
(916,1118,l),
(784,318,l),
(770,318,l),
(368,1118,l),
(202,1118,l),
(16,0,l),
(188,0,l),
(320,798,l),
(334,798,l),
(734,0,l),
(902,0,l),
(1088,1118,l)
);
}
);
width = 1104;
},
{
layerId = "D0EC06BF-13F9-4C88-A6F5-B8203AF6C77E";
shapes = (
{
closed = 1;
nodes = (
(898,1118,l),
(812,606,l),
(800,606,l),
(486,1118,l),
(170,1118,l),
(-16,0,l),
(370,0,l),
(448,462,l),
(456,462,l),
(738,0,l),
(1106,0,l),
(1292,1118,l)
);
}
);
width = 1276;
},
{
layerId = "200BE2C5-40F6-4CF4-AF4F-A33C0CC0964F";
shapes = (
{
closed = 1;
nodes = (
(1082,1118,l),
(910,82,l),
(904,82,l),
(338,1118,l),
(290,1118,l),
(104,0,l),
(152,0,l),
(324,1036,l),
(328,1036,l),
(898,0,l),
(942,0,l),
(1128,1118,l)
);
}
);
width = 1232;
}
);
metricLeft = m;
metricRight = u;
tags = (
"TODO-opsz"
);
unicode = 628;
userData = {
interface.gridadjust.original = "{'width': 1585, 'leftMargin': 188, 'rightMargin': 188}";
"interface.width-adjustments" = (
-16
);
};
},
{
color = 6;
glyphname = OEsmallcap;
lastChange = "2022-07-22 10:10:35 +0000";
layers = (
{
layerId = "11F4534A-B963-4AB5-820F-DAF9A20CD933";
shapes = (
{
closed = 1;
nodes = (
(936,158,l),
(910,0,l),
(1544,0,l),
(1570,158,l,{
name = hr00;
})
);
},
{
closed = 1;
nodes = (
(936,1082,l),
(754,0,l),
(956,0,l),
(1136,1082,l)
);
},
{
closed = 1;
nodes = (
(1014,628,l),
(988,468,l),
(1534,468,l),
(1560,628,l)
);
},
{
closed = 1;
nodes = (
(1090,1082,l),
(1064,926,l),
(1698,926,l),
(1724,1082,l)
);
},
{
closed = 1;
nodes = (
(636,-20,o),
(740,0,o),
(892,0,c),
(918,158,l),
(767,157,o),
(676,140,o),
(546,140,cs),
(348,140,o),
(281,320,o),
(316,530,c),
(322,552,l),
(353,759,o),
(481,943,o),
(676,942,cs),
(810,943,o),
(895,925,o),
(1046,926,c),
(1072,1082,l),
(921,1082,o),
(822,1103,o),
(702,1102,cs),
(400,1103,o),
(170,864,o),
(120,552,c),
(114,530,l),
(65,218,o),
(214,-20,o),
(520,-20,cs)
);
}
);
width = 1754;
},
{
layerId = "D0EC06BF-13F9-4C88-A6F5-B8203AF6C77E";
shapes = (
{
closed = 1;
nodes = (
(956,300,l),
(906,0,l),
(1544,0,l),
(1594,300,l,{
name = hr00;
})
);
},
{
closed = 1;
nodes = (
(860,1082,l),
(680,0,l),
(1058,0,l),
(1238,1082,l)
);
},
{
closed = 1;
nodes = (
(1020,690,l),
(970,390,l),
(1518,390,l),
(1568,690,l)
);
},
{
closed = 1;
nodes = (
(1088,1082,l),
(1038,782,l),
(1674,782,l),
(1724,1082,l)
);
},
{
closed = 1;
nodes = (
(653,-20,o),
(700,0,o),
(934,0,c),
(982,300,l),
(749,300,o),
(665,282,o),
(576,282,cs),
(429,282,o),
(415,387,o),
(438,530,c),
(444,552,l),
(464,687,o),
(519,803,o),
(660,802,cs),
(755,803,o),
(831,783,o),
(1064,782,c),
(1114,1082,l),
(886,1082,o),
(839,1103,o),
(710,1102,cs),
(351,1103,o),
(118,867,o),
(66,552,c),
(60,530,l),
(7,215,o),
(164,-20,o),
(526,-20,cs)
);
}
);
width = 1706;
},
{
layerId = "200BE2C5-40F6-4CF4-AF4F-A33C0CC0964F";
shapes = (
{
closed = 1;
nodes = (
(928,46,l),
(920,0,l),
(1608,0,l),
(1618,46,l,{
name = hr00;
})
);
},
{
closed = 1;
nodes = (
(1062,1082,l),
(882,0,l),
(928,0,l),
(1108,1082,l)
);
},
{
closed = 1;
nodes = (
(1016,578,l),
(1008,530,l),
(1614,530,l),
(1620,578,l)
);
},
{
closed = 1;
nodes = (
(1100,1082,l),
(1090,1036,l),
(1780,1036,l),
(1790,1082,l)
);
},
{
closed = 1;
nodes = (
(681,-23,o),
(805,-12,o),
(894,2,c),
(900,48,l),
(799,33,o),
(691,23,o),
(630,24,cs),
(342,23,o),
(210,228,o),
(262,542,cs),
(264,546,ls),
(313,849,o),
(512,1057,o),
(802,1058,cs),
(888,1057,o),
(951,1052,o),
(1070,1034,c),
(1078,1080,l),
(950,1097,o),
(870,1104,o),
(802,1104,cs),
(487,1104,o),
(271,879,o),
(216,546,cs),
(216,542,ls),
(161,210,o),
(314,-23,o),
(618,-24,cs)
);
}
);
width = 1908;
}
);
tags = (
"TODO-opsz"
);
unicode = 630;
userData = {
interface.gridadjust.original = "{'width': 2375, 'leftMargin': 172, 'rightMargin': 120}";
"interface.width-adjustments" = (
-16
);
};
},
{
color = 6;
glyphname = Rsmallcap;
lastChange = "2022-07-22 10:10:35 +0000";
layers = (
{
layerId = "11F4534A-B963-4AB5-820F-DAF9A20CD933";
shapes = (
{
closed = 1;
nodes = (
(758,0,l),
(974,0,l),
(744,520,l),
(528,520,l)
);
},
{
closed = 1;
nodes = (
(36,0,l),
(238,0,l),
(392,926,l),
(650,926,ls),
(801,925,o),
(851,835,o),
(836,750,cs),
(822,666,o),
(749,579,o),
(612,578,cs),
(280,578,l),
(254,418,l),
(586,418,ls),
(836,419,o),
(1005,561,o),
(1038,750,cs),
(1069,943,o),
(941,1082,o),
(676,1082,cs),
(216,1082,l)
);
}
);
width = 1196;
},
{
layerId = "D0EC06BF-13F9-4C88-A6F5-B8203AF6C77E";
shapes = (
{
closed = 1;
nodes = (
(756,0,l),
(1128,0,l),
(916,564,l),
(544,564,l)
);
},
{
closed = 1;
nodes = (
(78,0,l),
(450,0,l),
(582,782,l),
(724,782,ls),
(820,783,o),
(860,736,o),
(852,678,cs),
(843,623,o),
(782,576,o),
(682,576,cs),
(392,576,l),
(352,334,l),
(642,334,ls),
(959,335,o),
(1192,483,o),
(1226,692,cs),
(1262,916,o),
(1090,1082,o),
(774,1082,cs),
(258,1082,l)
);
}
);
width = 1390;
},
{
layerId = "200BE2C5-40F6-4CF4-AF4F-A33C0CC0964F";
shapes = (
{
closed = 1;
nodes = (
(892,0,l),
(942,0,l),
(704,494,l),
(652,494,l)
);
},
{
closed = 1;
nodes = (
(76,0,l),
(122,0,l),
(296,1036,l),
(670,1036,ls),
(873,1036,o),
(967,946,o),
(938,782,cs),
(908,610,o),
(793,518,o),
(634,518,cs),
(180,518,l),
(172,472,l),
(616,472,ls),
(819,471,o),
(952,577,o),
(986,786,cs),
(1016,966,o),
(896,1082,o),
(680,1082,cs),
(256,1082,l)
);
}
);
width = 1204;
}
);
tags = (
"TODO-opsz"
);
unicode = 640;
userData = {
interface.gridadjust.original = "{'width': 1555, 'leftMargin': 147, 'rightMargin': 122}";
"interface.width-adjustments" = (
-16
);
};
},
{
color = 6;
glyphname = Rsmallcapinv;
lastChange = "2022-07-22 10:10:35 +0000";
layers = (
{
layerId = "11F4534A-B963-4AB5-820F-DAF9A20CD933";
shapes = (
{
closed = 1;
nodes = (
(1154,1082,l),
(938,1082,l),
(534,562,l),
(750,562,l)
);
},
{
closed = 1;
nodes = (
(761,0,o),
(935,143,o),
(968,332,cs),
(999,524,o),
(877,663,o),
(626,664,cs),
(296,664,l),
(270,504,l),
(600,504,ls),
(737,503,o),
(781,416,o),
(766,334,cs),
(752,247,o),
(673,157,o),
(522,158,cs),
(264,158,l),
(418,1082,l),
(216,1082,l),
(36,0,l),
(496,0,l)
);
}
);
width = 1196;
},
{
layerId = "D0EC06BF-13F9-4C88-A6F5-B8203AF6C77E";
shapes = (
{
closed = 1;
nodes = (
(1308,1082,l),
(936,1082,l),
(538,520,l),
(910,520,l)
);
},
{
closed = 1;
nodes = (
(907,0,o),
(1137,163,o),
(1174,390,cs),
(1209,596,o),
(1032,748,o),
(712,748,cs),
(422,748,l),
(380,506,l),
(672,506,ls),
(770,506,o),
(814,451,o),
(806,404,cs),
(799,358,o),
(735,300,o),
(642,300,cs),
(500,300,l),
(630,1082,l),
(258,1082,l),
(78,0,l),
(592,0,l)
);
}
);
width = 1390;
},
{
layerId = "200BE2C5-40F6-4CF4-AF4F-A33C0CC0964F";
shapes = (
{
closed = 1;
nodes = (
(1122,1082,l),
(1064,1082,l),
(656,588,l),
(716,588,l)
);
},
{
closed = 1;
nodes = (
(722,0,o),
(874,111,o),
(904,296,cs),
(935,480,o),
(823,614,o),
(640,614,cs),
(202,614,l),
(192,568,l),
(622,568,ls),
(799,567,o),
(887,464,o),
(856,294,cs),
(831,143,o),
(696,47,o),
(512,46,cs),
(130,46,l),
(302,1082,l),
(256,1082,l),
(76,0,l),
(500,0,l)
);
}
);
width = 1204;
}
);
tags = (
"TODO-opsz"
);
unicode = 641;
userData = {
interface.gridadjust.original = "{'width': 1555, 'leftMargin': 147, 'rightMargin': 122}";
"interface.width-adjustments" = (
-16
);
};
},
{
color = 6;
glyphname = Ysmallcap;
lastChange = "2022-07-22 10:10:35 +0000";
layers = (
{
layerId = "11F4534A-B963-4AB5-820F-DAF9A20CD933";
shapes = (
{
closed = 1;
nodes = (
(440,350,l),
(560,350,l),
(1116,1082,l),
(892,1082,l),
(424,428,l)
);
},
{
closed = 1;
nodes = (
(68,1082,l),
(380,350,l),
(498,350,l),
(548,422,l),
(292,1082,l)
);
},
{
closed = 1;
nodes = (
(398,518,l),
(310,0,l),
(508,0,l),
(594,518,l)
);
}
);
width = 1010;
},
{
layerId = "D0EC06BF-13F9-4C88-A6F5-B8203AF6C77E";
shapes = (
{
closed = 1;
nodes = (
(508,290,l),
(700,290,l),
(1254,1082,l),
(854,1082,l),
(508,500,l)
);
},
{
closed = 1;
nodes = (
(84,1082,l),
(378,290,l),
(570,290,l),
(640,494,l),
(488,1082,l)
);
},
{
closed = 1;
nodes = (
(374,456,l),
(298,0,l),
(672,0,l),
(746,456,l)
);
}
);
width = 1162;
},
{
layerId = "200BE2C5-40F6-4CF4-AF4F-A33C0CC0964F";
shapes = (
{
closed = 1;
nodes = (
(472,384,l),
(514,384,l),
(1100,1082,l),
(1040,1082,l),
(470,402,l)
);
},
{
closed = 1;
nodes = (
(126,1082,l),
(468,384,l),
(510,384,l),
(510,402,l),
(176,1082,l)
);
},
{
closed = 1;
nodes = (
(470,396,l),
(404,0,l),
(450,0,l),
(516,396,l)
);
}
);
width = 1042;
}
);
tags = (
"TODO-opsz"
);
unicode = 655;
userData = {
interface.gridadjust.original = "{'width': 1474.0, 'leftMargin': 17, 'rightMargin': 16.0}";
"interface.width-adjustments" = (
-16
);
};
},
{
color = 6;
glyphname = a;
kernLeft = a;
kernRight = a;
lastChange = "2022-07-22 10:10:35 +0000";
layers = (
{
anchors = (
{
name = bottom;
pos = (446,0);
},
{
name = ogonek;
pos = (856,0);
},
{
name = rhalfring;
pos = (658,1304);
},
{
name = top;
pos = (670,1304);
}
);
guides = (
{
angle = -99.4;
pos = (904,1160);
}
);
layerId = "11F4534A-B963-4AB5-820F-DAF9A20CD933";
shapes = (
{
closed = 1;
nodes = (
(537,-26,o),
(656,79,o),
(702,152,c),
(712,152,l),
(686,0,l),
(856,0,l),
(978,736,ls),
(1037,1091,o),
(775,1132,o),
(632,1132,cs),
(464,1132,o),
(260,1073,o),
(142,870,c),
(292,812,l),
(345,893,o),
(455,980,o),
(618,980,cs),
(775,980,o),
(833,896,o),
(810,754,cs),
(810,748,ls),
(796,666,o),
(711,672,o),
(504,646,cs),
(292,620,o),
(60,573,o),
(16,318,cs),
(-19,99,o),
(129,-26,o),
(342,-26,cs)
);
},
{
closed = 1;
nodes = (
(255,128,o),
(167,189,o),
(188,308,cs),
(208,439,o),
(336,480,o),
(472,498,cs),
(545,506,o),
(743,527,o),
(778,562,c),
(752,404,ls),
(729,265,o),
(595,128,o),
(392,128,cs)
);
}
);
width = 1058;
},
{
anchors = (
{
name = bottom;
pos = (486,0);
},
{
name = ogonek;
pos = (1002,0);
},
{
name = rhalfring;
pos = (724,1304);
},
{
name = top;
pos = (714,1304);
}
);
guides = (
{
pos = (4944,2280);
},
{
orientation = center;
angle = 90;
pos = (846,1164);
},
{
angle = -99.4;
pos = (616,520);
}
);
layerId = "D0EC06BF-13F9-4C88-A6F5-B8203AF6C77E";
shapes = (
{
closed = 1;
nodes = (
(439,-17,o),
(558,32,o),
(646,158,c),
(654,158,l),
(628,0,l),
(1002,0,l),
(1130,766,ls),
(1166,972,o),
(994,1132,o),
(678,1132,cs),
(343,1132,o),
(148,957,o),
(102,754,c),
(470,754,l),
(491,823,o),
(549,855,o),
(624,856,cs),
(695,855,o),
(738,823,o),
(730,766,cs),
(730,762,ls),
(718,698,o),
(642,678,o),
(454,664,cs),
(220,646,o),
(25,553,o),
(-16,308,cs),
(-53,87,o),
(81,-17,o),
(294,-18,cs)
);
},
{
closed = 1;
nodes = (
(398,236,o),
(357,271,o),
(366,332,cs),
(375,390,o),
(424,433,o),
(520,448,cs),
(584,460,o),
(642,471,o),
(686,488,c),
(672,396,ls),
(654,294,o),
(558,236,o),
(468,236,cs)
);
}
);
width = 1174;
},
{
anchors = (
{
name = bottom;
pos = (462,0);
},
{
name = ogonek;
pos = (812,0);
},
{
name = rhalfring;
pos = (678,1304);
},
{
name = top;
pos = (674,1304);
}
);
layerId = "200BE2C5-40F6-4CF4-AF4F-A33C0CC0964F";
shapes = (
{
closed = 1;
nodes = (
(550,-23,o),
(704,76,o),
(798,226,c),
(802,226,l),
(766,0,l),
(812,0,l),
(946,802,ls),
(977,992,o),
(864,1135,o),
(638,1134,cs),
(463,1135,o),
(303,1047,o),
(226,908,c),
(268,890,l),
(335,1012,o),
(480,1088,o),
(638,1088,cs),
(829,1088,o),
(928,975,o),
(898,802,cs),
(888,736,ls),
(873,649,o),
(724,631,o),
(568,614,cs),
(218,573,o),
(119,454,o),
(94,302,cs),
(61,93,o),
(198,-23,o),
(382,-24,cs)
);
},
{
closed = 1;
nodes = (
(215,23,o),
(113,134,o),
(140,302,cs),
(166,445,o),
(273,535,o),
(578,570,cs),
(707,585,o),
(812,605,o),
(872,646,c),
(844,478,ls),
(800,207,o),
(593,23,o),
(382,24,cs)
);
}
);
width = 1103;
}
);
metricRight = n;
unicode = 97;
userData = {
com.typemytype.robofont.guideline.magnetic.bPqRSFRUb5 = 5;
"interface.width-adjustments" = (
-16
);
};
},
{
color = 6;
glyphname = ascriptturn;
lastChange = "2022-07-22 10:10:35 +0000";
layers = (
{
background = {
shapes = (
{
closed = 1;
nodes = (
(1225,884,o),
(1105,1103,o),
(838,1102,cs),
(570,1103,o),
(413,902,o),
(328,570,c),
(318,510,l),
(291,180,o),
(384,-20,o),
(648,-20,cs),
(922,-20,o),
(1114,221,o),
(1170,562,cs),
(1172,582,l)
);
},
{
closed = 1;
nodes = (
(931,335,o),
(823,140,o),
(622,140,cs),
(433,140,o),
(387,329,o),
(386,526,c),
(396,576,l),
(471,765,o),
(567,943,o),
(760,942,cs),
(957,943,o),
(1007,780,o),
(972,582,cs),
(968,562,l)
);
},
{
closed = 1;
nodes = (
(402,236,l),
(492,782,l),
(529,1012,o),
(468,1103,o),
(344,1102,cs),
(297,1103,o),
(256,1097,o),
(210,1068,c),
(210,922,l),
(215,922,o),
(227,925,o),
(238,926,cs),
(279,925,o),
(311,902,o),
(290,782,c),
(160,0,l),
(328,0,l)
);
}
);
};
layerId = "11F4534A-B963-4AB5-820F-DAF9A20CD933";
shapes = (
{
closed = 1;
nodes = (
(1172,916,o),
(1062,1133,o),
(788,1134,cs),
(527,1133,o),
(369,932,o),
(286,600,c),
(270,510,l),
(243,180,o),
(336,-20,o),
(592,-20,cs),
(874,-20,o),
(1073,220,o),
(1122,562,cs),
(1128,612,ls)
);
},
{
closed = 1;
nodes = (
(888,334,o),
(775,140,o),
(578,140,cs),
(385,140,o),
(339,329,o),
(338,526,c),
(352,606,l),
(428,796,o),
(524,973,o),
(722,974,cs),
(913,973,o),
(956,810,o),
(928,612,cs),
(920,562,ls)
);
},
{
closed = 1;
nodes = (
(354,236,l),
(448,814,l),
(486,1043,o),
(425,1132,o),
(300,1132,cs),
(253,1132,o),
(212,1126,o),
(166,1096,c),
(166,952,l),
(172,953,o),
(183,954,o),
(194,954,cs),
(236,954,o),
(268,932,o),
(248,814,c),
(112,0,l),
(280,0,l)
);
}
);
width = 1196;
},
{
background = {
shapes = (
{
closed = 1;
nodes = (
(1345,876,o),
(1229,1100,o),
(940,1100,cs),
(705,1100,o),
(572,855,o),
(480,570,c),
(478,558,l),
(470,241,o),
(522,-23,o),
(750,-24,cs),
(1043,-23,o),
(1235,212,o),
(1288,532,cs),
(1292,552,l)
);
},
{
closed = 1;
nodes = (
(886,387,o),
(825,279,o),
(710,280,cs),
(575,279,o),
(554,367,o),
(576,514,cs),
(590,606,ls),
(612,730,o),
(662,800,o),
(794,800,cs),
(935,800,o),
(932,672,o),
(914,552,cs),
(910,532,l)
);
},
{
closed = 1;
nodes = (
(574,226,l),
(648,680,ls),
(697,954,o),
(583,1103,o),
(360,1102,cs),
(307,1103,o),
(275,1100,o),
(226,1086,c),
(204,802,l),
(214,803,o),
(214,806,o),
(218,806,cs),
(275,806,o),
(284,759,o),
(270,680,cs),
(158,-2,l),
(488,-2,l)
);
}
);
};
layerId = "D0EC06BF-13F9-4C88-A6F5-B8203AF6C77E";
shapes = (
{
closed = 1;
nodes = (
(1327,908,o),
(1211,1132,o),
(950,1132,cs),
(687,1132,o),
(553,887,o),
(462,602,c),
(454,558,l),
(446,241,o),
(498,-23,o),
(770,-24,cs),
(1019,-23,o),
(1211,212,o),
(1264,532,cs),
(1268,552,l)
);
},
{
closed = 1;
nodes = (
(862,387,o),
(801,279,o),
(686,280,cs),
(551,279,o),
(527,367,o),
(552,514,cs),
(572,638,ls),
(593,763,o),
(644,832,o),
(776,832,cs),
(917,832,o),
(911,704,o),
(890,552,cs),
(886,532,l)
);
},
{
closed = 1;
nodes = (
(550,226,l),
(630,712,ls),
(676,987,o),
(564,1132,o),
(334,1132,cs),
(287,1132,o),
(251,1125,o),
(208,1114,c),
(184,832,l),
(194,832,o),
(194,835,o),
(198,834,cs),
(255,835,o),
(264,788,o),
(250,710,cs),
(134,-2,l),
(464,-2,l)
);
}
);
width = 1380;
},
{
background = {
shapes = (
{
closed = 1;
nodes = (
(1145,855,o),
(1006,1103,o),
(754,1102,cs),
(542,1103,o),
(375,960,o),
(298,742,c),
(220,288,l),
(236,107,o),
(340,-23,o),
(552,-24,cs),
(832,-23,o),
(1036,196,o),
(1090,534,c),
(1092,542,l)
);
},
{
closed = 1;
nodes = (
(994,228,o),
(809,23,o),
(560,24,cs),
(355,23,o),
(273,136,o),
(258,344,c),
(312,678,l),
(404,919,o),
(553,1056,o),
(746,1056,cs),
(978,1056,o),
(1096,836,o),
(1046,542,c),
(1046,536,l)
);
},
{
closed = 1;
nodes = (
(248,230,l),
(366,940,ls),
(382,1041,o),
(343,1103,o),
(260,1102,cs),
(234,1103,o),
(212,1096,o),
(192,1082,c),
(200,1042,l),
(217,1052,o),
(236,1056,o),
(254,1056,cs),
(309,1056,o),
(332,1017,o),
(318,940,cs),
(162,0,l),
(202,0,l)
);
}
);
};
layerId = "200BE2C5-40F6-4CF4-AF4F-A33C0CC0964F";
shapes = (
{
closed = 1;
nodes = (
(1150,887,o),
(1028,1135,o),
(756,1134,cs),
(552,1135,o),
(380,992,o),
(302,774,c),
(220,288,l),
(236,107,o),
(340,-23,o),
(552,-24,cs),
(832,-23,o),
(1036,196,o),
(1090,534,c),
(1096,574,l)
);
},
{
closed = 1;
nodes = (
(994,228,o),
(809,23,o),
(560,24,cs),
(355,23,o),
(273,136,o),
(258,344,c),
(316,710,l),
(409,951,o),
(558,1088,o),
(750,1088,cs),
(994,1088,o),
(1100,868,o),
(1050,574,c),
(1046,536,l)
);
},
{
closed = 1;
nodes = (
(248,230,l),
(370,972,ls),
(386,1073,o),
(347,1135,o),
(264,1134,cs),
(239,1135,o),
(217,1128,o),
(196,1114,c),
(204,1074,l),
(222,1084,o),
(240,1088,o),
(258,1088,cs),
(313,1088,o),
(335,1049,o),
(322,972,cs),
(162,0,l),
(202,0,l)
);
}
);
width = 1220;
}
);
tags = (
"TODO-opsz"
);
unicode = 594;
userData = {
interface.gridadjust.original = "{'width': 1665, 'leftMargin': 94, 'rightMargin': 135}";
"interface.width-adjustments" = (
-16
);
};
},
{
color = 6;
glyphname = ae;
kernLeft = a;
kernRight = e;
lastChange = "2022-07-22 10:10:35 +0000";
layers = (
{
anchors = (
{
name = top;
pos = (1008,1304);
}
);
guides = (
{
pos = (1376,888);
}
);
layerId = "11F4534A-B963-4AB5-820F-DAF9A20CD933";
shapes = (
{
closed = 1;
nodes = (
(1409,-23,o),
(1593,90,o),
(1674,258,c),
(1518,306,l),
(1453,189,o),
(1343,131,o),
(1208,130,cs),
(1002,131,o),
(883,271,o),
(924,524,cs),
(942,622,ls),
(970,806,o),
(1124,977,o),
(1330,978,c),
(1517,977,o),
(1613,838,o),
(1582,648,c),
(894,648,l),
(872,500,l),
(1732,500,l),
(1744,574,ls),
(1814,989,o),
(1590,1132,o),
(1358,1132,cs),
(1159,1132,o),
(1002,1030,o),
(900,862,c),
(778,306,l),
(784,111,o),
(935,-23,o),
(1182,-24,c)
);
},
{
closed = 1;
nodes = (
(255,128,o),
(167,189,o),
(188,308,cs),
(208,439,o),
(336,480,o),
(472,498,cs),
(545,506,o),
(743,527,o),
(778,562,c),
(752,404,ls),
(729,265,o),
(595,128,o),
(392,128,cs)
);
},
{
closed = 1;
nodes = (
(537,-26,o),
(726,79,o),
(790,204,c),
(804,204,l),
(984,888,l),
(953,1103,o),
(752,1132,o),
(632,1132,cs),
(464,1132,o),
(260,1073,o),
(142,870,c),
(292,812,l),
(345,893,o),
(449,980,o),
(612,980,cs),
(769,980,o),
(833,896,o),
(810,754,cs),
(810,748,ls),
(796,666,o),
(711,672,o),
(504,646,cs),
(292,620,o),
(60,573,o),
(16,318,cs),
(-19,99,o),
(129,-26,o),
(342,-26,cs)
);
}
);
width = 1797;
},
{
anchors = (
{
name = top;
pos = (1012,1304);
}
);
background = {
shapes = (
{
pos = (812,0);
ref = e;
},
{
pos = (8,0);
ref = a;
}
);
};
guides = (
{
pos = (772,1148);
}
);
layerId = "D0EC06BF-13F9-4C88-A6F5-B8203AF6C77E";
shapes = (
{
closed = 1;
nodes = (
(1431,-20,o),
(1660,128,o),
(1738,360,c),
(1372,360,l),
(1337,297,o),
(1265,262,o),
(1184,262,cs),
(1064,262,o),
(1009,340,o),
(1026,448,c),
(1064,686,l),
(1084,783,o),
(1175,849,o),
(1274,850,cs),
(1372,849,o),
(1436,783,o),
(1422,686,c),
(832,686,l),
(796,466,l),
(1756,466,l),
(1770,558,ls),
(1829,913,o),
(1649,1132,o),
(1312,1132,cs),
(1140,1132,o),
(994,1076,o),
(866,920,c),
(782,194,l),
(828,47,o),
(980,-20,o),
(1160,-20,cs)
);
},
{
closed = 1;
nodes = (
(398,236,o),
(357,271,o),
(366,332,cs),
(375,390,o),
(424,433,o),
(520,448,cs),
(584,460,o),
(642,471,o),
(686,488,c),
(672,396,ls),
(654,294,o),
(558,236,o),
(468,236,cs)
);
},
{
closed = 1;
nodes = (
(508,-17,o),
(697,44,o),
(788,168,c),
(810,168,l),
(962,984,l),
(927,1076,o),
(837,1132,o),
(686,1132,cs),
(340,1132,o),
(151,957,o),
(102,754,c),
(470,754,l),
(491,823,o),
(549,855,o),
(624,856,cs),
(695,855,o),
(738,823,o),
(730,766,cs),
(730,762,ls),
(718,698,o),
(645,678,o),
(454,664,cs),
(220,646,o),
(25,553,o),
(-16,308,cs),
(-53,87,o),
(78,-17,o),
(322,-18,cs)
);
}
);
width = 1805;
},
{
anchors = (
{
name = top;
pos = (1068,1304);
}
);
layerId = "200BE2C5-40F6-4CF4-AF4F-A33C0CC0964F";
shapes = (
{
closed = 1;
nodes = (
(1446,-23,o),
(1588,113,o),
(1650,198,c),
(1618,224,l),
(1565,157,o),
(1443,23,o),
(1236,24,cs),
(954,23,o),
(835,268,o),
(884,562,cs),
(884,568,ls),
(940,864,o),
(1158,1088,o),
(1388,1088,cs),
(1615,1088,o),
(1763,873,o),
(1720,606,c),
(878,606,l),
(870,558,l),
(1758,558,l),
(1766,606,ls),
(1812,893,o),
(1655,1135,o),
(1396,1134,cs),
(1207,1135,o),
(1033,1009,o),
(928,818,c),
(832,334,l),
(864,122,o),
(1004,-23,o),
(1228,-24,cs)
);
},
{
closed = 1;
nodes = (
(224,23,o),
(113,134,o),
(140,302,cs),
(166,445,o),
(273,535,o),
(578,570,cs),
(707,585,o),
(812,605,o),
(872,646,c),
(844,478,ls),
(800,207,o),
(602,23,o),
(390,24,cs)
);
},
{
closed = 1;
nodes = (
(550,-23,o),
(751,81,o),
(862,350,c),
(870,350,l),
(946,802,ls),
(977,992,o),
(864,1135,o),
(638,1134,cs),
(463,1135,o),
(303,1047,o),
(226,908,c),
(268,890,l),
(335,1015,o),
(471,1088,o),
(628,1088,cs),
(820,1088,o),
(928,975,o),
(898,802,cs),
(888,736,ls),
(873,649,o),
(724,631,o),
(568,614,cs),
(218,573,o),
(119,454,o),
(94,302,cs),
(61,93,o),
(198,-23,o),
(382,-24,cs)
);
}
);
width = 1879;
}
);
metricLeft = a;
metricRight = e;
unicode = 230;
userData = {
com.typemytype.robofont.guideline.magnetic.47oKtqvLS5 = 5;
interface.gridadjust.original = "{'width': 2377, 'leftMargin': 106, 'rightMargin': 93}";
"interface.width-adjustments" = (
-16
);
};
},
